<svg width="200" height="44" viewBox="0 0 200 44" fill="none" xmlns="http://www.w3.org/2000/svg">
<path d="M183.841 19.1746C183.888 19.1797 183.935 19.1849 183.983 19.1903C184.262 19.2248 184.516 19.281 184.778 19.3819C184.84 19.4052 184.84 19.4052 184.903 19.4289C184.935 19.4426 184.967 19.4563 185 19.4704C185.033 19.4841 185.066 19.4978 185.1 19.5119C185.178 19.5589 185.178 19.5589 185.222 19.6916C185.193 19.9777 185.132 20.2585 185.044 20.5322C185.015 20.5322 184.986 20.5322 184.956 20.5322C184.949 20.5815 184.949 20.5815 184.942 20.6318C184.909 20.763 184.872 20.8333 184.778 20.9304C184.734 20.9304 184.69 20.9304 184.644 20.9304C184.63 20.9742 184.615 21.018 184.6 21.0631C184.245 21.243 183.896 21.2207 183.508 21.171C182.475 21.0403 181.599 21.2529 180.735 21.8429C180.596 21.9457 180.596 21.9457 180.474 22.0724C180.377 22.1692 180.377 22.1692 180.288 22.1692C180.275 22.1956 180.262 22.2221 180.249 22.2494C180.199 22.3461 180.199 22.3461 180.11 22.4789C180.081 22.4789 180.051 22.4789 180.021 22.4789C180.011 22.5071 180.001 22.5354 179.991 22.5646C179.924 22.7197 179.843 22.8635 179.76 23.0103C179.727 23.0683 179.695 23.1271 179.665 23.1867C179.636 23.1867 179.607 23.1867 179.577 23.1867C179.568 23.2552 179.568 23.2552 179.56 23.325C179.532 23.4964 179.532 23.4964 179.489 23.6251C179.312 24.155 179.341 24.7232 179.339 25.2746C179.339 25.4318 179.338 25.5889 179.337 25.7461C179.335 26.1359 179.333 26.5257 179.331 26.9155C179.33 27.2461 179.328 27.5768 179.326 27.9074C179.325 28.062 179.325 28.2167 179.324 28.3713C179.324 28.466 179.323 28.5608 179.323 28.6555C179.323 28.6983 179.323 28.7412 179.323 28.7853C179.32 29.128 179.256 29.3682 179.043 29.646C178.743 29.9362 178.423 29.9707 178.023 29.9674C177.971 29.9663 177.919 29.9652 177.865 29.964C177.812 29.9634 177.758 29.9628 177.703 29.9622C177.572 29.9607 177.441 29.9585 177.309 29.9557C177.254 29.8456 177.259 29.7721 177.259 29.6488C177.259 29.6027 177.259 29.5565 177.259 29.5089C177.259 29.458 177.259 29.4071 177.259 29.3546C177.259 29.3011 177.259 29.2477 177.259 29.1926C177.259 29.0456 177.259 28.8986 177.259 28.7516C177.259 28.5974 177.259 28.4432 177.259 28.289C177.259 28.0295 177.259 27.77 177.259 27.5105C177.259 27.2117 177.259 26.913 177.259 26.6143C177.259 26.3572 177.259 26.1001 177.259 25.843C177.259 25.6898 177.259 25.5365 177.259 25.3833C177.259 25.2116 177.259 25.04 177.259 24.8684C177.259 24.8185 177.259 24.7685 177.259 24.7171C177.26 24.2557 177.273 23.7935 177.387 23.3443C177.395 23.3129 177.403 23.2815 177.411 23.2491C177.519 22.8234 177.655 22.4093 177.882 22.0306C177.933 21.9459 177.977 21.8596 178.021 21.771C178.05 21.771 178.079 21.771 178.11 21.771C178.121 21.7308 178.133 21.6907 178.146 21.6493C178.194 21.5175 178.237 21.431 178.332 21.3286C178.361 21.3286 178.39 21.3286 178.421 21.3286C178.432 21.3029 178.444 21.2771 178.456 21.2506C178.66 20.8717 179.04 20.5408 179.399 20.311C179.413 20.2818 179.428 20.2526 179.443 20.2225C179.487 20.2225 179.531 20.2225 179.577 20.2225C179.599 20.1568 179.599 20.1568 179.621 20.0898C179.694 20.0752 179.768 20.0606 179.843 20.0456C179.843 20.0164 179.843 19.9872 179.843 19.9571C179.881 19.9384 179.919 19.9197 179.958 19.9004C180.058 19.8501 180.159 19.7994 180.26 19.7483C180.649 19.5518 181.019 19.3955 181.444 19.2935C181.473 19.2789 181.502 19.2643 181.533 19.2492C182.311 19.1046 183.057 19.0864 183.841 19.1746Z" fill="#562EB4"/>
<path d="M79.4503 19.2115C79.4916 19.2166 79.533 19.2217 79.5757 19.227C79.6865 19.2491 79.7666 19.2839 79.8651 19.3377C79.922 19.3542 79.9795 19.369 80.0374 19.3819C80.1908 19.4185 80.3402 19.4575 80.4875 19.5147C80.6013 19.7412 80.5228 20.1126 80.4479 20.3458C80.4054 20.4401 80.36 20.5303 80.3096 20.6207C80.2798 20.6796 80.2502 20.7386 80.2207 20.7977C80.1914 20.7977 80.1621 20.7977 80.1318 20.7977C80.1172 20.8415 80.1025 20.8853 80.0874 20.9304C79.617 21.2275 79.2361 21.2315 78.6898 21.1489C77.9385 21.0432 77.0373 21.2139 76.3977 21.6383C76.3536 21.6383 76.3096 21.6383 76.2643 21.6383C76.2643 21.6675 76.2643 21.6967 76.2643 21.7268C76.1943 21.776 76.1943 21.776 76.1004 21.8291C75.9007 21.9484 75.7493 22.0833 75.6114 22.2715C75.5921 22.2961 75.5729 22.3208 75.553 22.3461C75.5237 22.3461 75.4943 22.3461 75.4641 22.3461C75.4525 22.3707 75.441 22.3952 75.429 22.4205C75.3684 22.5361 75.2979 22.6414 75.2252 22.7499C75.0793 22.9764 74.9757 23.1991 74.8862 23.4522C74.8739 23.4823 74.8617 23.5124 74.849 23.5434C74.6146 24.1532 74.6517 24.848 74.6531 25.4894C74.6533 25.6425 74.6529 25.7956 74.6523 25.9488C74.6507 26.3835 74.6499 26.8183 74.6504 27.2531C74.6506 27.5204 74.6498 27.7877 74.6483 28.055C74.648 28.1563 74.648 28.2576 74.6485 28.3589C74.6491 28.5004 74.6484 28.6419 74.6474 28.7834C74.6482 28.8454 74.6482 28.8454 74.649 28.9086C74.6441 29.2498 74.5345 29.5057 74.2944 29.7511C73.9301 29.9704 73.6146 29.9726 73.1969 29.964C73.1413 29.9634 73.0856 29.9628 73.0283 29.9622C72.8919 29.9607 72.7555 29.9585 72.619 29.9557C72.6128 29.1657 72.6081 28.3757 72.6052 27.5857C72.6038 27.2188 72.602 26.8519 72.5989 26.4849C72.5962 26.1646 72.5945 25.8443 72.5939 25.524C72.5936 25.3548 72.5928 25.1857 72.5908 25.0165C72.5794 23.9986 72.6769 23.0863 73.1525 22.1692C73.2 22.0606 73.2464 21.9516 73.2921 21.8422C73.3303 21.771 73.3303 21.771 73.4192 21.7268C73.463 21.6512 73.5067 21.5755 73.5491 21.4992C73.6141 21.3879 73.6879 21.291 73.7748 21.1959C73.8042 21.1959 73.8335 21.1959 73.8638 21.1959C73.8638 21.1521 73.8638 21.1083 73.8638 21.0631C73.9876 20.9228 74.0981 20.8359 74.2638 20.7534C74.2785 20.7096 74.2932 20.6658 74.3083 20.6207C74.933 20.0456 74.933 20.0456 75.1529 20.0456C75.1529 20.0164 75.1529 19.9872 75.1529 19.9571C75.241 19.9425 75.329 19.9279 75.4197 19.9128C75.4197 19.8836 75.4197 19.8544 75.4197 19.8244C75.5484 19.7671 75.6771 19.71 75.8059 19.6529C75.8422 19.6368 75.8785 19.6206 75.9159 19.604C76.4105 19.3848 76.4105 19.3848 76.631 19.3349C76.7877 19.3111 76.7877 19.3111 76.8422 19.2492C77.7285 19.0842 78.5607 19.1012 79.4503 19.2115Z" fill="#562EB4"/>
<path d="M166.478 19.0643C166.572 19.064 166.666 19.0635 166.761 19.0628C167.462 19.0586 168.132 19.0946 168.819 19.249C168.819 19.2782 168.819 19.3074 168.819 19.3375C168.857 19.3417 168.895 19.3459 168.935 19.3503C169.101 19.3851 169.213 19.4436 169.358 19.5311C169.403 19.5579 169.448 19.5847 169.494 19.6123C169.705 19.7464 169.705 19.7464 169.797 19.8242C169.797 19.8534 169.797 19.8826 169.797 19.9126C169.855 19.9272 169.914 19.9418 169.974 19.9569C169.974 19.9861 169.974 20.0153 169.974 20.0454C170.018 20.06 170.062 20.0746 170.108 20.0896C170.183 20.1504 170.183 20.1504 170.241 20.2223C170.241 20.2661 170.241 20.3099 170.241 20.3551C170.285 20.3697 170.329 20.3843 170.375 20.3993C170.876 20.973 171.038 21.7838 170.997 22.5229C170.962 22.8931 170.909 23.2372 170.775 23.5847C170.745 23.5847 170.716 23.5847 170.686 23.5847C170.677 23.6203 170.667 23.6559 170.658 23.6926C170.578 23.8996 170.459 24.0685 170.33 24.2483C170.296 24.2981 170.296 24.2981 170.26 24.3489C170.229 24.3867 170.229 24.3867 170.197 24.4253C170.167 24.4253 170.138 24.4253 170.108 24.4253C170.064 24.5129 170.064 24.5129 170.019 24.6023C169.99 24.6023 169.96 24.6023 169.93 24.6023C169.93 24.6315 169.93 24.6607 169.93 24.6908C169.618 24.9618 169.236 25.1383 168.863 25.3102C168.831 25.3253 168.798 25.3404 168.765 25.3559C168.166 25.6068 167.462 25.5451 166.828 25.5447C166.721 25.5448 166.615 25.545 166.508 25.5452C166.286 25.5456 166.064 25.5456 165.842 25.5453C165.557 25.5451 165.272 25.5458 164.987 25.5468C164.768 25.5475 164.549 25.5475 164.329 25.5474C164.224 25.5474 164.119 25.5477 164.014 25.5481C163.868 25.5486 163.721 25.5483 163.575 25.5478C163.532 25.5482 163.488 25.5485 163.443 25.5489C163.384 25.5484 163.384 25.5484 163.323 25.5479C163.288 25.5479 163.254 25.5479 163.218 25.5479C163.103 25.5267 163.064 25.4917 162.995 25.3986C162.983 25.2811 162.978 25.1757 162.981 25.0585C162.982 25.0266 162.982 24.9947 162.983 24.9618C162.993 24.5643 163.079 24.2004 163.351 23.8944C163.38 23.8944 163.409 23.8944 163.44 23.8944C163.462 23.8287 163.462 23.8287 163.484 23.7617C163.555 23.7116 163.555 23.7116 163.645 23.6677C163.689 23.6456 163.689 23.6456 163.733 23.6231C163.981 23.5339 164.244 23.5338 164.505 23.5328C164.539 23.5325 164.573 23.5322 164.608 23.5319C164.681 23.5313 164.754 23.5308 164.827 23.5303C164.944 23.5296 165.06 23.5286 165.176 23.5274C165.507 23.5243 165.837 23.5217 166.168 23.5194C166.371 23.518 166.573 23.5161 166.776 23.5141C166.853 23.5134 166.93 23.5128 167.006 23.5124C167.798 23.5336 167.798 23.5336 168.483 23.1973C168.552 23.1423 168.552 23.1423 168.641 23.1423C168.657 23.0999 168.657 23.0999 168.674 23.0566C168.73 22.9211 168.73 22.9211 168.775 22.8333C168.914 22.5577 168.977 22.2896 168.877 21.9884C168.845 21.915 168.81 21.8428 168.774 21.7708C168.774 21.727 168.774 21.6832 168.774 21.6381C168.745 21.6381 168.715 21.6381 168.685 21.6381C168.66 21.6052 168.634 21.5724 168.607 21.5385C168.366 21.245 168.069 21.1732 167.707 21.1072C167.493 21.0891 167.28 21.0875 167.066 21.088C167.005 21.0878 166.944 21.0876 166.883 21.0873C166.756 21.0869 166.63 21.087 166.503 21.0874C166.375 21.0878 166.247 21.0876 166.119 21.0865C164.889 21.0715 164.889 21.0715 163.706 21.3726C163.662 21.3726 163.618 21.3726 163.573 21.3726C163.573 21.4018 163.573 21.431 163.573 21.4611C163.485 21.4757 163.397 21.4903 163.306 21.5054C163.306 21.5346 163.306 21.5638 163.306 21.5938C163.266 21.6121 163.226 21.6303 163.184 21.6491C163.039 21.7181 163.039 21.7181 162.942 21.8233C162.862 21.9035 162.862 21.9035 162.728 21.9035C162.706 21.9692 162.706 21.9692 162.684 22.0363C162.653 22.06 162.622 22.0837 162.589 22.1081C162.438 22.2327 162.334 22.3731 162.219 22.5305C162.197 22.5572 162.174 22.5839 162.15 22.6114C162.121 22.6114 162.092 22.6114 162.062 22.6114C162.043 22.6585 162.043 22.6585 162.024 22.7066C161.973 22.8322 161.918 22.9554 161.862 23.0787C161.843 23.1198 161.824 23.1609 161.805 23.2033C161.773 23.2712 161.74 23.3385 161.703 23.4041C161.404 24.0595 161.477 24.8989 161.661 25.5756C161.724 25.7313 161.8 25.8731 161.884 26.018C161.916 26.0851 161.949 26.1524 161.981 26.2199C162.044 26.3737 162.044 26.3737 162.15 26.4162C162.165 26.46 162.18 26.5038 162.195 26.5489C162.232 26.5854 162.268 26.6219 162.306 26.6595C162.417 26.7701 162.417 26.7701 162.462 26.9029C162.52 26.9346 162.579 26.9637 162.639 26.9913C162.711 27.0413 162.781 27.093 162.851 27.1462C162.886 27.1731 162.922 27.2 162.958 27.2278C162.999 27.264 162.999 27.264 163.04 27.301C163.04 27.3302 163.04 27.3594 163.04 27.3895C163.072 27.3946 163.104 27.3998 163.137 27.4051C163.265 27.4345 163.363 27.478 163.479 27.5388C163.756 27.6805 164.017 27.7954 164.324 27.8572C164.383 27.8692 164.442 27.8829 164.5 27.8991C164.6 27.9215 164.689 27.9261 164.791 27.9262C164.83 27.9264 164.869 27.9266 164.909 27.9268C164.952 27.9267 164.994 27.9267 165.038 27.9267C165.105 27.9269 165.105 27.9269 165.174 27.9272C165.271 27.9275 165.369 27.9277 165.466 27.9279C165.621 27.9282 165.776 27.9289 165.93 27.9297C166.37 27.932 166.809 27.9342 167.248 27.9348C167.517 27.9353 167.786 27.9366 168.055 27.9384C168.157 27.939 168.26 27.9392 168.362 27.9391C168.505 27.939 168.649 27.94 168.792 27.9412C168.834 27.9409 168.876 27.9406 168.919 27.9403C169.203 27.9443 169.413 28.0082 169.663 28.1416C169.663 28.1708 169.663 28.2 169.663 28.2301C169.703 28.2452 169.703 28.2452 169.744 28.2605C169.867 28.3344 169.907 28.4146 169.974 28.5398C170.004 28.5836 170.033 28.6274 170.063 28.6725C170.073 28.8013 170.073 28.8013 170.072 28.9565C170.072 29.0397 170.072 29.0397 170.071 29.1245C170.07 29.2115 170.07 29.2115 170.069 29.3002C170.068 29.3593 170.068 29.4184 170.068 29.4774C170.067 29.6221 170.065 29.7667 170.063 29.9113C169.955 29.965 169.886 29.9616 169.765 29.9624C169.721 29.9627 169.677 29.9631 169.632 29.9635C169.583 29.9637 169.534 29.9639 169.484 29.9641C169.407 29.9646 169.407 29.9646 169.329 29.9652C169.159 29.9663 168.989 29.967 168.818 29.9676C168.76 29.9679 168.702 29.9681 168.642 29.9684C168.396 29.9693 168.149 29.9701 167.903 29.9706C167.553 29.9713 167.203 29.9728 166.853 29.9753C166.606 29.9771 166.358 29.9779 166.111 29.9782C165.964 29.9783 165.817 29.9789 165.67 29.9803C164.3 29.9921 163.082 29.738 161.884 29.0707C161.884 29.0415 161.884 29.0123 161.884 28.9822C161.852 28.9786 161.82 28.9749 161.786 28.9712C161.635 28.931 161.552 28.8672 161.439 28.761C161.439 28.7318 161.439 28.7026 161.439 28.6725C161.395 28.6725 161.351 28.6725 161.306 28.6725C161.209 28.5896 161.209 28.5896 161.128 28.4956C161.128 28.4664 161.128 28.4372 161.128 28.4071C161.087 28.3907 161.087 28.3907 161.045 28.3739C160.933 28.3085 160.916 28.2549 160.861 28.1416C160.817 28.127 160.773 28.1124 160.728 28.0974C160.653 28.0366 160.653 28.0366 160.595 27.9647C160.595 27.9209 160.595 27.8771 160.595 27.8319C160.551 27.8173 160.507 27.8027 160.461 27.7877C160.461 27.7439 160.461 27.7001 160.461 27.655C160.432 27.655 160.403 27.655 160.372 27.655C159.794 26.6811 159.794 26.6811 159.661 26.1507C159.646 26.1361 159.632 26.1215 159.617 26.1065C159.4 25.275 159.266 24.1437 159.572 23.3193C159.587 23.2558 159.601 23.1922 159.614 23.1285C159.69 22.7796 159.816 22.4644 159.968 22.1417C160.02 22.0334 160.02 22.0334 160.061 21.9035C160.09 21.9035 160.12 21.9035 160.15 21.9035C160.156 21.8676 160.156 21.8676 160.163 21.8309C160.204 21.6957 160.271 21.5913 160.347 21.4722C160.375 21.4286 160.402 21.385 160.43 21.3401C160.455 21.3071 160.48 21.274 160.506 21.2399C160.535 21.2399 160.564 21.2399 160.595 21.2399C160.599 21.2134 160.604 21.187 160.608 21.1597C160.643 21.0491 160.682 21.0021 160.772 20.9302C160.802 20.9302 160.831 20.9302 160.861 20.9302C160.873 20.9037 160.885 20.8773 160.897 20.85C160.95 20.7533 160.999 20.6907 161.084 20.6205C161.113 20.6205 161.142 20.6205 161.172 20.6205C161.187 20.5767 161.202 20.5329 161.217 20.4878C161.246 20.4878 161.276 20.4878 161.306 20.4878C161.306 20.4586 161.306 20.4294 161.306 20.3993C161.371 20.3423 161.371 20.3423 161.456 20.2832C161.484 20.2634 161.512 20.2437 161.54 20.2234C161.617 20.1781 161.617 20.1781 161.706 20.1781C161.706 20.1489 161.706 20.1197 161.706 20.0896C162 19.9126 162 19.9126 162.15 19.9126C162.15 19.8834 162.15 19.8543 162.15 19.8242C162.263 19.7753 162.375 19.7265 162.487 19.6776C162.518 19.664 162.549 19.6503 162.582 19.6362C162.644 19.6088 162.707 19.5815 162.77 19.5543C162.829 19.5285 162.889 19.5026 162.948 19.4764C163.086 19.4158 163.22 19.364 163.367 19.332C163.519 19.3103 163.519 19.3103 163.573 19.249C164.528 19.0465 165.506 19.0682 166.478 19.0643Z" fill="#562EB4"/>
<path d="M154.139 19.0679C154.17 19.068 154.201 19.068 154.233 19.0681C154.331 19.0683 154.429 19.0689 154.526 19.0695C154.593 19.0697 154.66 19.0699 154.727 19.0701C154.89 19.0706 155.053 19.0713 155.215 19.0722C155.257 19.2054 155.262 19.2433 155.215 19.3819C155.186 19.3819 155.157 19.3819 155.126 19.3819C155.114 19.4207 155.102 19.4596 155.09 19.4996C155.041 19.6374 154.985 19.7597 154.917 19.8888C154.893 19.934 154.869 19.9793 154.845 20.0259C154.819 20.0734 154.794 20.121 154.768 20.17C154.742 20.219 154.716 20.268 154.69 20.3185C154.613 20.4636 154.537 20.6085 154.46 20.7534C154.439 20.7933 154.417 20.8331 154.396 20.8742C154.325 21.0065 154.255 21.1388 154.184 21.2709C154.096 21.4364 154.01 21.6029 153.926 21.771C153.897 21.771 153.868 21.771 153.837 21.771C153.83 21.8162 153.83 21.8162 153.823 21.8622C153.786 22.0219 153.731 22.154 153.659 22.3019C153.615 22.3238 153.615 22.3238 153.571 22.3461C153.54 22.4194 153.51 22.4933 153.482 22.5673C153.422 22.6867 153.359 22.8039 153.296 22.9213C153.278 22.9547 153.26 22.9881 153.241 23.0225C153.112 23.2638 152.982 23.5046 152.851 23.7453C152.739 23.952 152.629 24.1594 152.519 24.367C152.389 24.6127 152.256 24.8571 152.122 25.1009C152.064 25.2131 152.015 25.3251 151.97 25.4431C151.941 25.4431 151.912 25.4431 151.881 25.4431C151.869 25.4817 151.857 25.5204 151.845 25.5603C151.795 25.7004 151.737 25.8249 151.668 25.9562C151.644 26.0023 151.62 26.0484 151.595 26.096C151.569 26.1442 151.544 26.1925 151.517 26.2422C151.491 26.2918 151.465 26.3414 151.438 26.3925C151.283 26.6865 151.126 26.9794 150.967 27.2711C150.868 27.4561 150.774 27.6437 150.681 27.8321C150.652 27.8321 150.622 27.8321 150.592 27.8321C150.57 27.9635 150.57 27.9635 150.548 28.0976C150.518 28.0976 150.489 28.0976 150.459 28.0976C150.454 28.1295 150.45 28.1614 150.445 28.1943C150.411 28.3326 150.356 28.4186 150.281 28.54C150.224 28.6458 150.168 28.7517 150.111 28.858C149.775 29.4897 149.775 29.4897 149.659 29.646C149.629 29.646 149.6 29.646 149.57 29.646C149.555 29.6898 149.54 29.7336 149.525 29.7788C149.149 30.0599 148.583 29.9748 148.142 29.9668C148.056 29.9659 147.97 29.9651 147.884 29.9644C147.675 29.9624 147.467 29.9594 147.258 29.9557C147.21 29.8091 147.21 29.786 147.277 29.635C147.3 29.5948 147.323 29.5547 147.347 29.5133C147.376 29.5133 147.406 29.5133 147.436 29.5133C147.44 29.4821 147.445 29.4508 147.45 29.4186C147.485 29.2744 147.541 29.1672 147.614 29.0377C147.642 28.9873 147.67 28.9369 147.698 28.8849C147.721 28.8443 147.721 28.8443 147.744 28.8029C147.828 28.6499 147.91 28.4953 147.992 28.3409C148.138 28.0647 148.286 27.7895 148.436 27.515C148.482 27.4292 148.526 27.3427 148.569 27.2556C148.634 27.1294 148.704 27.01 148.778 26.8892C148.978 26.5518 149.14 26.1974 149.303 25.8412C149.332 25.8412 149.362 25.8412 149.392 25.8412C149.404 25.8024 149.416 25.7636 149.429 25.7236C149.477 25.5858 149.534 25.4635 149.602 25.3344C149.626 25.2891 149.649 25.2439 149.674 25.1973C149.699 25.1497 149.724 25.1022 149.75 25.0532C149.776 25.0042 149.802 24.9552 149.828 24.9047C149.905 24.7596 149.982 24.6146 150.059 24.4697C150.08 24.4299 150.101 24.39 150.123 24.349C150.193 24.2167 150.263 24.0844 150.334 23.9523C150.423 23.7868 150.509 23.6202 150.592 23.4522C150.621 23.4522 150.651 23.4522 150.681 23.4522C150.686 23.4201 150.691 23.3881 150.696 23.3551C150.727 23.2242 150.773 23.1317 150.839 23.0153C150.949 22.821 151.057 22.6259 151.162 22.4291C151.184 22.3878 151.184 22.3878 151.206 22.3457C151.254 22.2574 151.301 22.169 151.348 22.0807C151.365 22.0481 151.383 22.0155 151.401 21.9818C151.454 21.8812 151.508 21.7805 151.562 21.6797C151.587 21.6331 151.587 21.6331 151.612 21.5856C151.704 21.4126 151.794 21.2387 151.881 21.0631C151.911 21.0631 151.94 21.0631 151.97 21.0631C151.974 21.0084 151.974 21.0084 151.979 20.9525C152.017 20.7866 152.076 20.6927 152.169 20.5533C152.284 20.3676 152.375 20.1696 152.47 19.9733C152.61 19.7049 152.75 19.5159 152.993 19.3377C153.022 19.3377 153.051 19.3377 153.082 19.3377C153.082 19.3085 153.082 19.2793 153.082 19.2492C153.436 19.1043 153.756 19.0664 154.139 19.0679Z" fill="#562EB4"/>
<path d="M141.835 19.0721C142.029 19.0699 142.224 19.0683 142.418 19.0673C142.484 19.0668 142.55 19.0662 142.616 19.0655C143.533 19.055 143.533 19.055 143.949 19.2685C143.986 19.2867 144.022 19.3048 144.06 19.3236C144.146 19.3818 144.146 19.3818 144.191 19.5146C144.235 19.5292 144.279 19.5438 144.324 19.5588C144.502 19.7914 144.502 19.7914 144.502 19.957C144.531 19.957 144.561 19.957 144.591 19.957C144.627 20.0346 144.627 20.0346 144.664 20.1137C144.696 20.1822 144.728 20.2507 144.76 20.3192C144.776 20.3532 144.792 20.3872 144.808 20.4223C144.891 20.5977 144.975 20.7665 145.08 20.9303C145.262 21.2199 145.421 21.516 145.573 21.8223C145.67 22.0173 145.771 22.2085 145.879 22.3979C146.058 22.714 146.058 22.714 146.058 22.8769C146.087 22.8769 146.116 22.8769 146.147 22.8769C146.212 22.9976 146.276 23.1184 146.341 23.2392C146.36 23.2732 146.378 23.3072 146.397 23.3422C146.471 23.4807 146.541 23.615 146.599 23.7612C146.628 23.8583 146.628 23.8583 146.725 23.8945C146.772 23.9812 146.772 23.9812 146.819 24.0881C146.835 24.1231 146.85 24.1581 146.867 24.1942C146.902 24.2927 146.902 24.2927 146.902 24.4254C146.932 24.4254 146.961 24.4254 146.991 24.4254C147.029 24.4962 147.066 24.5672 147.102 24.6383C147.123 24.6778 147.144 24.7174 147.165 24.7581C147.214 24.8678 147.214 24.8678 147.214 25.0005C147.243 25.0005 147.272 25.0005 147.303 25.0005C147.325 25.0461 147.325 25.0461 147.348 25.0927C147.368 25.1325 147.388 25.1724 147.408 25.2135C147.428 25.253 147.447 25.2925 147.467 25.3332C147.526 25.4494 147.526 25.4494 147.614 25.5757C147.646 25.7298 147.657 25.8864 147.672 26.043C147.679 26.1062 147.679 26.1062 147.687 26.1706C147.728 26.5909 147.623 26.913 147.428 27.2845C147.404 27.3298 147.38 27.3751 147.356 27.4217C147.338 27.4549 147.321 27.4881 147.303 27.5223C147.273 27.5223 147.244 27.5223 147.214 27.5223C147.207 27.5488 147.201 27.5752 147.194 27.6025C147.174 27.6799 147.15 27.7562 147.125 27.832C147.095 27.832 147.066 27.832 147.036 27.832C147.014 27.9634 147.014 27.9634 146.991 28.0975C146.962 28.0975 146.933 28.0975 146.902 28.0975C146.896 28.1248 146.89 28.1522 146.883 28.1804C146.858 28.2744 146.858 28.2744 146.814 28.3629C146.784 28.3629 146.755 28.3629 146.725 28.3629C146.492 28.0976 146.349 27.7562 146.195 27.4427C146.106 27.2636 146.014 27.0871 145.919 26.9112C145.904 26.8839 145.89 26.8566 145.874 26.8285C145.806 26.7021 145.737 26.5764 145.667 26.4514C145.643 26.4088 145.619 26.3662 145.594 26.3223C145.573 26.2856 145.552 26.249 145.53 26.2113C145.478 26.1023 145.454 26.0043 145.435 25.8854C145.406 25.8854 145.377 25.8854 145.347 25.8854C145.294 25.7851 145.243 25.6846 145.191 25.584C145.176 25.5555 145.161 25.5271 145.146 25.4978C145.08 25.3679 145.035 25.281 145.035 25.1333C145.006 25.1333 144.977 25.1333 144.946 25.1333C144.928 25.0968 144.91 25.0604 144.892 25.0228C144.805 24.8511 144.715 24.681 144.624 24.5111C144.598 24.4617 144.598 24.4617 144.571 24.4113C144.253 23.8121 144.253 23.8121 143.917 23.2222C143.88 23.1424 143.88 23.1424 143.88 23.0097C143.85 23.0097 143.821 23.0097 143.791 23.0097C143.776 22.9221 143.761 22.8345 143.746 22.7442C143.717 22.7442 143.687 22.7442 143.657 22.7442C143.642 22.7126 143.626 22.6809 143.61 22.6483C143.409 22.2446 143.203 21.8429 142.971 21.4557C142.902 21.3285 142.902 21.3285 142.902 21.1957C142.872 21.1957 142.843 21.1957 142.813 21.1957C142.798 21.1081 142.783 21.0205 142.768 20.9303C142.739 20.9303 142.709 20.9303 142.679 20.9303C142.661 20.8929 142.642 20.8555 142.623 20.8169C142.544 20.6616 142.462 20.5083 142.379 20.3551C142.228 20.0751 142.084 19.7923 141.943 19.5069C141.88 19.3776 141.88 19.3776 141.79 19.2491C141.807 19.1523 141.807 19.1523 141.835 19.0721Z" fill="#562EB4"/>
<path d="M134.855 19.8244C134.892 19.8442 134.929 19.864 134.966 19.8844C135.195 20.0144 135.407 20.1639 135.617 20.3221C135.643 20.3414 135.668 20.3608 135.695 20.3807C135.758 20.429 135.818 20.4804 135.878 20.5323C135.878 20.5615 135.878 20.5907 135.878 20.6207C135.922 20.6353 135.966 20.6499 136.011 20.665C136.011 20.6942 136.011 20.7234 136.011 20.7535C136.055 20.7681 136.099 20.7827 136.145 20.7977C136.205 20.8706 136.264 20.9443 136.322 21.0189C136.352 21.0335 136.381 21.0481 136.411 21.0632C136.411 21.107 136.411 21.1508 136.411 21.1959C136.455 21.2105 136.499 21.2251 136.545 21.2401C137.284 22.1565 137.675 23.3343 137.67 24.5002C137.67 24.5546 137.67 24.6089 137.67 24.6649C137.662 25.2954 137.551 25.8355 137.3 26.4164C137.288 26.4574 137.275 26.4983 137.262 26.5405C137.207 26.6955 137.136 26.8312 137.056 26.975C136.93 27.2025 136.93 27.2025 136.811 27.434C136.782 27.434 136.753 27.434 136.723 27.434C136.711 27.4668 136.699 27.4997 136.686 27.5335C136.636 27.6504 136.585 27.7373 136.5 27.8322C136.471 27.8322 136.442 27.8322 136.411 27.8322C136.411 27.876 136.411 27.9198 136.411 27.9649C136.328 28.0617 136.328 28.0617 136.234 28.1419C136.204 28.1419 136.175 28.1419 136.145 28.1419C136.13 28.1857 136.115 28.2295 136.1 28.2746C136.071 28.2746 136.041 28.2746 136.011 28.2746C135.997 28.3184 135.982 28.3622 135.967 28.4073C135.937 28.4073 135.908 28.4073 135.878 28.4073C135.863 28.4511 135.849 28.4949 135.833 28.54C135.68 28.6728 135.68 28.6728 135.567 28.6728C135.552 28.7166 135.537 28.7604 135.522 28.8055C135.393 28.8957 135.277 28.9538 135.122 28.9824C135.122 29.0116 135.122 29.0408 135.122 29.0709C135.049 29.0855 134.975 29.1001 134.9 29.1152C134.9 29.1444 134.9 29.1736 134.9 29.2037C134.803 29.2526 134.705 29.3015 134.608 29.3502C134.581 29.3639 134.554 29.3775 134.526 29.3916C134.007 29.6511 133.479 29.8184 132.899 29.8673C132.87 29.8819 132.841 29.8965 132.811 29.9115C132.543 29.9562 132.273 29.9633 132.002 29.9648C131.946 29.9651 131.946 29.9651 131.888 29.9655C131.808 29.9659 131.728 29.9662 131.648 29.9664C131.529 29.9668 131.41 29.9682 131.29 29.9696C130.378 29.9751 129.397 29.8689 128.587 29.4249C128.465 29.3632 128.341 29.3029 128.218 29.2424C127.672 28.9743 127.672 28.9743 127.609 28.8497C127.565 28.8351 127.521 28.8205 127.476 28.8055C127.476 28.7763 127.476 28.7471 127.476 28.717C127.437 28.6984 127.437 28.6984 127.397 28.6795C126.87 28.4083 126.503 27.8753 126.187 27.3897C126.187 27.3605 126.187 27.3313 126.187 27.3013C126.157 27.3013 126.128 27.3013 126.098 27.3013C125.646 26.4197 125.646 26.4197 125.52 25.974C125.508 25.9366 125.496 25.8992 125.484 25.8606C125.206 24.8648 125.235 23.5525 125.699 22.6135C125.745 22.5179 125.779 22.4212 125.815 22.3213C125.902 22.1007 126.02 21.9031 126.145 21.7019C126.165 21.6703 126.184 21.6386 126.204 21.606C126.232 21.5617 126.232 21.5617 126.261 21.5165C126.277 21.4899 126.294 21.4633 126.312 21.4358C126.365 21.3729 126.365 21.3729 126.498 21.3286C126.531 21.2395 126.531 21.2395 126.542 21.1516C126.572 21.1516 126.601 21.1516 126.631 21.1516C126.646 21.1147 126.646 21.1147 126.662 21.077C126.737 20.9449 126.832 20.8585 126.943 20.7535C126.969 20.7261 126.996 20.6987 127.023 20.6705C127.051 20.6422 127.078 20.6139 127.106 20.5848C127.132 20.5581 127.158 20.5313 127.185 20.5037C127.254 20.4438 127.254 20.4438 127.343 20.4438C127.343 20.4146 127.343 20.3854 127.343 20.3553C128.043 19.7802 128.043 19.7802 128.365 19.7802C128.365 19.751 128.365 19.7218 128.365 19.6917C128.659 19.5771 128.953 19.4631 129.254 19.3676C129.346 19.3383 129.346 19.3383 129.442 19.2942C129.604 19.2352 129.768 19.2073 129.938 19.1801C129.973 19.1744 130.009 19.1687 130.045 19.1628C131.675 18.911 133.395 19.0196 134.855 19.8244ZM129.476 21.3729C129.476 21.4021 129.476 21.4313 129.476 21.4613C129.388 21.4759 129.3 21.4905 129.21 21.5056C129.21 21.5348 129.21 21.564 129.21 21.5941C129.186 21.5977 129.162 21.6014 129.137 21.6051C128.993 21.6505 128.886 21.7253 128.765 21.8153C128.765 21.8445 128.765 21.8737 128.765 21.9038C128.721 21.9038 128.677 21.9038 128.632 21.9038C128.518 22.0032 128.428 22.089 128.36 22.2245C128.321 22.3019 128.321 22.3019 128.187 22.3462C128.117 22.4306 128.055 22.513 127.993 22.6033C127.975 22.629 127.957 22.6546 127.939 22.681C127.505 23.3305 127.272 24.1839 127.403 24.961C127.472 25.2928 127.568 25.6168 127.698 25.9298C127.716 25.9736 127.733 26.0174 127.751 26.0625C127.769 26.1063 127.769 26.1063 127.787 26.151C127.817 26.151 127.846 26.151 127.876 26.151C127.905 26.2386 127.935 26.3262 127.965 26.4164C127.994 26.4164 128.024 26.4164 128.054 26.4164C128.067 26.4429 128.08 26.4693 128.093 26.4966C128.145 26.6019 128.145 26.6019 128.232 26.7261C128.261 26.7261 128.29 26.7261 128.321 26.7261C128.332 26.7518 128.343 26.7774 128.354 26.8039C128.662 27.3531 129.467 27.6991 130.049 27.8698C130.139 27.8897 130.23 27.9056 130.321 27.9206C130.35 27.9284 130.378 27.9361 130.408 27.9441C130.507 27.9668 130.596 27.9708 130.698 27.9713C130.738 27.9716 130.777 27.9719 130.817 27.9722C130.859 27.9722 130.901 27.9723 130.944 27.9723C130.988 27.9725 131.032 27.9726 131.076 27.9728C131.168 27.973 131.26 27.9731 131.352 27.9731C131.493 27.9732 131.633 27.974 131.773 27.9748C131.863 27.975 131.952 27.975 132.042 27.9751C132.105 27.9756 132.105 27.9756 132.169 27.976C132.387 27.9753 132.561 27.9595 132.766 27.8764C132.829 27.8625 132.892 27.8495 132.955 27.8377C133.185 27.7889 133.395 27.7021 133.611 27.611C133.685 27.5813 133.759 27.5518 133.833 27.5225C133.833 27.4933 133.833 27.4641 133.833 27.434C133.864 27.4234 133.895 27.4129 133.927 27.402C134.078 27.3353 134.196 27.2491 134.328 27.1492C134.373 27.1146 134.419 27.0799 134.467 27.0443C134.604 26.9384 134.604 26.9384 134.722 26.8146C134.722 26.7708 134.722 26.727 134.722 26.6819C134.766 26.6673 134.81 26.6527 134.855 26.6376C135.003 26.485 135.003 26.485 135.033 26.2837C135.063 26.2837 135.092 26.2837 135.122 26.2837C135.372 25.8159 135.372 25.8159 135.522 25.3104C135.537 25.2812 135.552 25.252 135.567 25.2219C135.63 24.5678 135.659 23.9325 135.389 23.3195C135.373 23.2824 135.357 23.2454 135.341 23.2072C135.272 23.0505 135.2 22.8968 135.122 22.7444C135.093 22.7444 135.063 22.7444 135.033 22.7444C135.03 22.7197 135.026 22.6951 135.022 22.6697C134.978 22.5348 134.907 22.4501 134.811 22.3462C134.782 22.3462 134.752 22.3462 134.722 22.3462C134.704 22.3065 134.704 22.3065 134.686 22.266C134.633 22.1693 134.584 22.1067 134.5 22.0365C134.47 22.0365 134.441 22.0365 134.411 22.0365C134.411 22.0073 134.411 21.9781 134.411 21.948C133.731 21.2698 132.666 21.0454 131.739 21.0425C131.671 21.0428 131.603 21.0433 131.535 21.0438C131.5 21.0439 131.465 21.044 131.429 21.0441C130.744 21.047 130.118 21.123 129.476 21.3729Z" fill="#562EB4"/>
<path d="M95.5131 19.4263C95.5676 19.4469 95.6222 19.4675 95.6784 19.4888C95.9841 19.6048 96.263 19.7303 96.5355 19.9129C96.5795 19.9275 96.6235 19.9421 96.6689 19.9572C96.6689 19.9864 96.6689 20.0156 96.6689 20.0456C96.7129 20.0593 96.7129 20.0593 96.7578 20.0733C96.9388 20.1559 97.0996 20.2658 97.2468 20.3996C97.2468 20.4288 97.2468 20.458 97.2468 20.4881C97.2825 20.5031 97.2825 20.5031 97.319 20.5185C97.5742 20.6588 97.7896 20.8714 97.9581 21.1074C97.9581 21.1366 97.9581 21.1658 97.9581 21.1959C97.9874 21.1959 98.0167 21.1959 98.047 21.1959C98.0616 21.2543 98.0763 21.3127 98.0914 21.3729C98.1208 21.3729 98.1501 21.3729 98.1803 21.3729C98.3581 21.6071 98.3581 21.6071 98.3581 21.7711C98.3875 21.7711 98.4168 21.7711 98.4471 21.7711C98.5038 21.8816 98.5602 21.9922 98.6165 22.1029C98.6324 22.1337 98.6482 22.1645 98.6646 22.1962C98.8404 22.543 98.9659 22.9011 99.0694 23.2753C99.082 23.3157 99.0945 23.356 99.1074 23.3976C99.3268 24.2135 99.2608 25.126 99.025 25.9298C99.0106 25.99 99.0106 25.99 98.996 26.0515C98.9035 26.4171 98.7097 26.7476 98.536 27.0801C98.5062 27.139 98.4764 27.1979 98.4471 27.2571C98.4177 27.2571 98.3884 27.2571 98.3581 27.2571C98.3535 27.2819 98.3489 27.3068 98.3441 27.3324C98.3081 27.4528 98.2531 27.5399 98.1831 27.6442C98.1598 27.6795 98.1365 27.7149 98.1124 27.7513C98.0908 27.778 98.0692 27.8047 98.047 27.8322C98.0176 27.8322 97.9883 27.8322 97.9581 27.8322C97.9429 27.8678 97.9429 27.8678 97.9275 27.9041C97.7865 28.1581 97.5728 28.3724 97.3357 28.5401C97.3064 28.5401 97.277 28.5401 97.2468 28.5401C97.2321 28.5839 97.2174 28.6277 97.2023 28.6728C97.0864 28.8202 96.9213 28.8967 96.7578 28.9825C96.7284 28.9825 96.6991 28.9825 96.6689 28.9825C96.6689 29.0117 96.6689 29.0409 96.6689 29.071C96.6308 29.0896 96.5927 29.1082 96.5534 29.1273C96.3558 29.2271 96.1641 29.3367 95.9717 29.446C95.8158 29.5173 95.6831 29.5418 95.5131 29.5576C95.5131 29.5868 95.5131 29.616 95.5131 29.6461C94.6877 29.8693 93.8906 29.9809 93.0347 29.9752C92.9941 29.9751 92.9535 29.975 92.9117 29.9749C92.2823 29.9726 91.6796 29.9366 91.0676 29.7788C91.0257 29.7683 90.9838 29.7577 90.9406 29.7469C90.6926 29.6824 90.4779 29.6037 90.2513 29.4842C90.0403 29.3775 89.82 29.2918 89.6006 29.2037C89.6006 29.1745 89.6006 29.1453 89.6006 29.1152C89.5419 29.1006 89.4833 29.086 89.4228 29.071C89.4228 29.0418 89.4228 29.0126 89.4228 28.9825C89.3733 28.9756 89.3733 28.9756 89.3228 28.9687C89.1918 28.9361 89.1212 28.8963 89.0227 28.8055C89.0227 28.7763 89.0227 28.7471 89.0227 28.717C88.9969 28.7048 88.971 28.6926 88.9444 28.68C88.6297 28.5172 88.3997 28.28 88.1781 28.0092C88.1423 27.9672 88.1066 27.9252 88.0697 27.882C88.0003 27.788 88.0003 27.788 88.0003 27.6995C87.9709 27.6995 87.9416 27.6995 87.9114 27.6995C87.8893 27.6119 87.8893 27.6119 87.8669 27.5225C87.8376 27.5225 87.8082 27.5225 87.778 27.5225C87.7519 27.4691 87.7519 27.4691 87.7252 27.4147C87.6654 27.2976 87.6037 27.1834 87.539 27.069C87.5 26.999 87.4611 26.929 87.4224 26.8589C87.4034 26.8247 87.3844 26.7904 87.3649 26.7552C87.2089 26.461 87.1084 26.1622 87.0223 25.8413C87.0089 25.7959 86.9954 25.7505 86.9816 25.7037C86.8803 25.3023 86.8759 24.9034 86.875 24.4919C86.8748 24.4339 86.8745 24.3758 86.8743 24.3159C86.8763 24.0398 86.8849 23.8012 86.9778 23.5407C87.0002 23.425 87.0189 23.3092 87.0374 23.1929C87.1128 22.8362 87.2318 22.5199 87.4057 22.1997C87.425 22.1637 87.4443 22.1277 87.4642 22.0906C87.6342 21.7792 87.8162 21.4689 88.0447 21.1959C88.0741 21.1959 88.1034 21.1959 88.1336 21.1959C88.1437 21.1722 88.1538 21.1485 88.1642 21.124C88.4221 20.6595 88.9137 20.3499 89.3339 20.0456C89.3663 20.0214 89.3986 19.9972 89.432 19.9722C90.9836 18.865 93.7779 18.7035 95.5131 19.4263ZM90.1341 21.948C90.1341 21.9772 90.1341 22.0064 90.1341 22.0365C90.1066 22.0475 90.0791 22.0584 90.0507 22.0697C89.939 22.1351 89.9224 22.1887 89.8673 22.302C89.8233 22.3166 89.7793 22.3312 89.734 22.3462C89.5307 22.5148 89.4274 22.7735 89.3117 23.0043C89.2855 23.0562 89.2594 23.1081 89.2325 23.1616C88.8933 23.8629 88.8382 24.64 89.0227 25.3989C89.0876 25.5805 89.1643 25.7547 89.245 25.9298C89.275 26.0034 89.3048 26.0771 89.3339 26.151C89.3632 26.151 89.3926 26.151 89.4228 26.151C89.4251 26.1819 89.4274 26.2127 89.4297 26.2445C89.4805 26.4174 89.588 26.5205 89.7118 26.646C89.9524 26.8954 89.9524 26.8954 90.0007 26.9916C90.0447 26.9916 90.0887 26.9916 90.1341 26.9916C90.1487 27.0354 90.1634 27.0792 90.1785 27.1243C90.2819 27.2155 90.2819 27.2155 90.4008 27.3013C90.432 27.3268 90.4631 27.3524 90.4953 27.3787C90.5804 27.4463 90.5804 27.4463 90.712 27.434C90.712 27.4632 90.712 27.4924 90.712 27.5225C90.8 27.5371 90.888 27.5517 90.9787 27.5667C90.9787 27.5959 90.9787 27.6251 90.9787 27.6552C91.2726 27.7678 91.5592 27.8593 91.8678 27.9207C91.8949 27.9282 91.922 27.9357 91.95 27.9435C92.0501 27.9659 92.1386 27.9708 92.2411 27.9713C92.2794 27.9716 92.3177 27.9719 92.3571 27.9722C92.3982 27.9723 92.4392 27.9723 92.4815 27.9724C92.524 27.9725 92.5665 27.9726 92.6104 27.9728C92.7003 27.973 92.7902 27.9731 92.8801 27.9731C93.0172 27.9732 93.1544 27.974 93.2916 27.9749C93.379 27.975 93.4665 27.9751 93.5539 27.9751C93.6152 27.9756 93.6152 27.9756 93.6777 27.9761C93.8935 27.9753 94.0653 27.9578 94.2683 27.8764C94.3348 27.8642 94.4015 27.8531 94.4684 27.8433C95.0316 27.7325 95.5232 27.4454 95.9576 27.0801C95.9576 27.0509 95.9576 27.0217 95.9576 26.9916C95.9841 26.9801 96.0107 26.9687 96.038 26.9569C96.1427 26.8991 96.1969 26.8432 96.2716 26.751C96.3352 26.6733 96.3968 26.5986 96.4692 26.5288C96.7045 26.2873 96.8321 25.9633 96.9495 25.6533C96.9608 25.6235 96.9721 25.5937 96.9838 25.563C97.109 25.2199 97.1215 24.9055 97.1218 24.5445C97.1223 24.5005 97.1228 24.4565 97.1234 24.4111C97.1239 24.138 97.0973 23.8925 97.0245 23.6292C97.0081 23.5667 97.0081 23.5667 96.9913 23.5029C96.9302 23.2976 96.8624 23.1098 96.7578 22.9214C96.7284 22.9214 96.6991 22.9214 96.6689 22.9214C96.6641 22.8963 96.6594 22.8712 96.6545 22.8453C96.5799 22.5949 96.3812 22.3338 96.1799 22.1692C96.1505 22.1692 96.1212 22.1692 96.091 22.1692C96.0763 22.1254 96.0616 22.0816 96.0465 22.0365C96.0172 22.0365 95.9878 22.0365 95.9576 22.0365C95.9576 22.0073 95.9576 21.9781 95.9576 21.948C95.8989 21.9334 95.8402 21.9188 95.7798 21.9038C95.7798 21.8746 95.7798 21.8454 95.7798 21.8153C95.7064 21.7861 95.6331 21.7569 95.5575 21.7268C95.5575 21.6976 95.5575 21.6684 95.5575 21.6383C94.7433 21.2176 93.9757 21.036 93.057 21.0438C93.0231 21.044 92.9893 21.0441 92.9544 21.0443C91.8944 21.0505 90.9633 21.2507 90.1341 21.948Z" fill="#562EB4"/>
<path d="M64.8343 19.0666C64.8635 19.0665 64.8926 19.0665 64.9226 19.0665C64.984 19.0664 65.0453 19.0665 65.1067 19.0667C65.2007 19.0669 65.2948 19.0667 65.3888 19.0664C65.4485 19.0664 65.5082 19.0665 65.5678 19.0666C65.6221 19.0666 65.6764 19.0667 65.7323 19.0667C65.862 19.0725 65.862 19.0725 65.9509 19.1167C65.9551 19.9032 65.9582 20.6897 65.9601 21.4763C65.961 21.8416 65.9623 22.2069 65.9643 22.5722C65.9661 22.891 65.9673 23.2098 65.9676 23.5286C65.9679 23.697 65.9684 23.8654 65.9697 24.0339C65.9774 25.0644 65.909 26.0033 65.4619 26.9475C65.4455 26.9831 65.429 27.0187 65.4121 27.0553C65.2799 27.3315 65.1275 27.5979 64.9285 27.8323C64.8991 27.8323 64.8698 27.8323 64.8396 27.8323C64.8249 27.8907 64.8102 27.9491 64.7951 28.0093C64.7658 28.0093 64.7364 28.0093 64.7062 28.0093C64.6961 28.0339 64.686 28.0586 64.6756 28.084C64.5314 28.3368 64.2683 28.5224 64.0529 28.7134C63.9532 28.8008 63.9532 28.8008 63.8777 28.8822C63.7921 28.9616 63.7084 28.9674 63.5948 28.9826C63.5948 29.0118 63.5948 29.041 63.5948 29.0711C63.4823 29.1469 63.3705 29.2163 63.2531 29.284C63.2014 29.314 63.2014 29.314 63.1487 29.3445C62.8624 29.5069 62.573 29.6289 62.2612 29.7347C62.2079 29.7548 62.1546 29.7748 62.0997 29.7954C61.8258 29.8976 61.576 29.9827 61.2832 30.0002C61.1837 29.8021 61.2305 29.5292 61.2304 29.3117C61.2299 29.2563 61.2293 29.201 61.2288 29.144C61.2281 28.7131 61.2279 28.2886 61.5499 27.9651C61.7849 27.7753 62.0404 27.6257 62.3067 27.4843C62.4196 27.4199 62.5163 27.3391 62.6168 27.2572C62.6462 27.2572 62.6755 27.2572 62.7057 27.2572C62.7204 27.2134 62.7351 27.1696 62.7502 27.1245C62.7795 27.1245 62.8089 27.1245 62.8391 27.1245C62.8538 27.0807 62.8684 27.0369 62.8836 26.9917C62.9576 26.9328 63.0317 26.8738 63.1058 26.8148C63.1205 26.771 63.1352 26.7272 63.1503 26.682C63.1796 26.682 63.209 26.682 63.2392 26.682C63.2572 26.6461 63.2572 26.6461 63.2755 26.6095C63.3134 26.5342 63.3518 26.4591 63.3904 26.3841C63.6756 25.8267 63.8306 25.3515 63.8292 24.7241C63.8294 24.6707 63.8296 24.6172 63.8299 24.5622C63.8304 24.4166 63.8306 24.271 63.8307 24.1254C63.8309 23.9724 63.8317 23.8195 63.8325 23.6665C63.8346 23.2122 63.836 22.7578 63.837 22.3034C63.8377 21.9498 63.8387 21.5963 63.8407 21.2428C63.8415 21.0908 63.842 20.9388 63.8419 20.7869C63.8419 20.6173 63.8428 20.4478 63.8437 20.2783C63.8435 20.2284 63.8433 20.1785 63.8431 20.1271C63.846 19.8195 63.859 19.5285 64.0795 19.2911C64.1243 19.2609 64.1243 19.2609 64.17 19.2301C64.2146 19.1987 64.2146 19.1987 64.2601 19.1666C64.4469 19.0635 64.6232 19.0668 64.8343 19.0666Z" fill="#562EB4"/>
<path d="M54.6594 19.0723C54.787 19.0552 54.787 19.0552 54.9489 19.0547C55.0366 19.0545 55.0366 19.0545 55.1261 19.0542C55.172 19.0546 55.172 19.0546 55.2188 19.055C55.3112 19.0557 55.4036 19.0551 55.496 19.0542C55.5553 19.0543 55.6147 19.0545 55.6741 19.0547C55.7277 19.0549 55.7814 19.055 55.8367 19.0552C56.1322 19.0876 56.3291 19.2017 56.5265 19.4263C56.623 19.5704 56.6267 19.6111 56.6275 19.7778C56.6281 19.8455 56.6281 19.8455 56.6288 19.9146C56.6288 19.9641 56.6289 20.0136 56.6289 20.0646C56.6293 20.1168 56.6296 20.169 56.63 20.2227C56.631 20.3659 56.6315 20.509 56.6319 20.6522C56.6325 20.8021 56.6335 20.9521 56.6346 21.102C56.6364 21.3864 56.6378 21.6707 56.6391 21.955C56.6414 22.4636 56.6441 22.9721 56.6473 23.4807C56.6483 23.6298 56.6491 23.779 56.6497 23.9282C56.6503 24.0948 56.6512 24.2614 56.6522 24.428C56.6523 24.4771 56.6524 24.5263 56.6525 24.5769C56.6277 24.9661 56.6277 24.9661 56.7488 25.3104C56.7621 25.3766 56.7739 25.443 56.7849 25.5095C56.8297 25.7423 56.9104 25.9394 57.0155 26.151C57.0366 26.1967 57.0577 26.2423 57.0794 26.2893C57.1371 26.395 57.1972 26.4858 57.2683 26.5824C57.3711 26.7262 57.3711 26.7262 57.3711 26.8147C57.4152 26.8293 57.4592 26.8439 57.5045 26.8589C57.5045 26.8881 57.5045 26.9173 57.5045 26.9474C57.5485 26.962 57.5925 26.9766 57.6379 26.9916C57.7129 27.0552 57.7129 27.0552 57.7712 27.1244C57.7712 27.1536 57.7712 27.1828 57.7712 27.2128C57.8446 27.242 57.9179 27.2712 57.9935 27.3013C57.9935 27.3305 57.9935 27.3597 57.9935 27.3898C58.0522 27.4044 58.1109 27.419 58.1713 27.434C58.1713 27.4632 58.1713 27.4924 58.1713 27.5225C58.1949 27.5267 58.2185 27.5309 58.2429 27.5351C58.384 27.5771 58.4997 27.6453 58.627 27.7189C58.6749 27.7462 58.7228 27.7735 58.7722 27.8016C58.8086 27.8263 58.845 27.851 58.8826 27.8765C58.8826 27.9057 58.8826 27.9349 58.8826 27.965C58.9266 27.9796 58.9706 27.9942 59.016 28.0092C59.0626 28.0851 59.1091 28.1611 59.1509 28.2397C59.1981 28.3298 59.1981 28.3298 59.2827 28.4516C59.2903 28.5673 59.293 28.6781 59.2914 28.7936C59.2912 28.8268 59.2911 28.86 59.291 28.8942C59.2905 29.0002 59.2894 29.1061 59.2882 29.212C59.2878 29.2839 59.2874 29.3557 59.287 29.4276C59.286 29.6037 59.2845 29.7798 59.2827 29.9558C58.9974 30.0505 58.6879 29.8947 58.4226 29.7832C58.3277 29.7441 58.2329 29.7087 58.1364 29.674C57.9428 29.6022 57.7605 29.5131 57.5767 29.4194C57.5452 29.4035 57.5136 29.3876 57.4811 29.3712C57.3999 29.3303 57.3188 29.2891 57.2378 29.248C57.2084 29.2334 57.1791 29.2188 57.1489 29.2037C57.1489 29.1745 57.1489 29.1453 57.1489 29.1152C57.0755 29.1006 57.0022 29.086 56.9266 29.071C56.9266 29.0418 56.9266 29.0126 56.9266 28.9825C56.8679 28.9679 56.8092 28.9533 56.7488 28.9383C56.7488 28.9091 56.7488 28.8799 56.7488 28.8498C56.7158 28.8379 56.6828 28.8261 56.6488 28.8138C56.5314 28.7634 56.444 28.7129 56.3487 28.6286C56.3487 28.5994 56.3487 28.5702 56.3487 28.5401C56.3047 28.5255 56.2607 28.5109 56.2153 28.4959C56.2153 28.4667 56.2153 28.4375 56.2153 28.4074C56.1887 28.3955 56.1622 28.3836 56.1348 28.3714C56.0376 28.3189 55.9747 28.2704 55.9041 28.1862C55.9041 28.157 55.9041 28.1278 55.9041 28.0977C55.8601 28.0831 55.8161 28.0685 55.7708 28.0534C55.6939 27.959 55.6234 27.8656 55.5541 27.7659C55.5243 27.7235 55.5243 27.7235 55.4939 27.6804C54.774 26.6461 54.5636 25.5612 54.5641 24.3202C54.5639 24.2646 54.5638 24.2091 54.5636 24.1518C54.5633 24.0017 54.5631 23.8515 54.5631 23.7014C54.563 23.6074 54.563 23.5134 54.5628 23.4194C54.5624 23.0911 54.5622 22.7628 54.5623 22.4345C54.5623 22.1288 54.5618 21.8232 54.5611 21.5176C54.5606 21.2544 54.5603 20.9911 54.5603 20.7278C54.5604 20.5709 54.5602 20.414 54.5598 20.2571C54.5592 20.0828 54.5594 19.9085 54.5597 19.7342C54.5595 19.6823 54.5592 19.6304 54.559 19.5769C54.5591 19.5296 54.5593 19.4823 54.5595 19.4335C54.5595 19.3924 54.5595 19.3512 54.5595 19.3088C54.5705 19.2051 54.5705 19.2051 54.6594 19.0723Z" fill="#562EB4"/>
<path d="M44.8737 19.0641C45.0142 19.064 45.1547 19.0632 45.2952 19.0623C46.889 19.058 46.889 19.058 47.5469 19.4262C47.6339 19.4733 47.721 19.5203 47.808 19.5672C47.884 19.6087 47.96 19.6501 48.0359 19.6917C48.0359 19.7209 48.0359 19.7501 48.0359 19.7802C48.067 19.7902 48.0982 19.8002 48.1303 19.8106C48.399 19.9326 48.5788 20.1387 48.7527 20.3691C48.772 20.3945 48.7913 20.4198 48.8112 20.4459C48.9495 20.6306 49.0559 20.8079 49.1472 21.0189C49.1702 21.0645 49.1931 21.1102 49.2167 21.1572C49.5043 21.854 49.5179 22.7521 49.2254 23.4515C49.1889 23.5242 49.151 23.5961 49.1109 23.6669C49.0544 23.7637 49.0544 23.7637 49.0127 23.8819C48.9694 23.9831 48.9694 23.9831 48.8805 24.0274C48.8658 24.0712 48.8512 24.115 48.8361 24.1601C48.763 24.2348 48.6887 24.3084 48.6138 24.3813C48.5711 24.4374 48.5711 24.4374 48.5277 24.4947C48.4217 24.6193 48.307 24.692 48.1692 24.7795C48.1484 24.8005 48.1275 24.8216 48.106 24.8432C47.8705 25.0747 47.5483 25.204 47.244 25.3214C47.2167 25.3323 47.1894 25.3432 47.1613 25.3544C46.532 25.5868 45.8549 25.5432 45.1955 25.5402C45.0887 25.5401 44.9818 25.5399 44.875 25.5399C44.5956 25.5395 44.3163 25.5386 44.0369 25.5377C43.7511 25.5368 43.4653 25.5364 43.1795 25.5359C42.62 25.535 42.0605 25.5335 41.5011 25.5316C41.302 25.1672 41.3926 24.6365 41.5011 24.2486C41.5678 24.1076 41.5678 24.1076 41.6344 24.0274C41.6638 24.0274 41.6931 24.0274 41.7233 24.0274C41.7674 23.9398 41.7674 23.9398 41.8123 23.8504C41.8416 23.8504 41.8709 23.8504 41.9012 23.8504C41.9012 23.8212 41.9012 23.792 41.9012 23.7619C41.9536 23.7328 42.0065 23.7043 42.0595 23.6762C42.1036 23.6523 42.1036 23.6523 42.1486 23.628C42.3944 23.5302 42.6613 23.534 42.9227 23.533C42.9567 23.5327 42.9908 23.5324 43.0258 23.5321C43.0992 23.5315 43.1725 23.531 43.2459 23.5305C43.3624 23.5298 43.4789 23.5288 43.5954 23.5277C43.9264 23.5246 44.2574 23.5219 44.5885 23.5196C44.7914 23.5182 44.9944 23.5164 45.1974 23.5143C45.2744 23.5136 45.3513 23.513 45.4282 23.5127C46.1619 23.5257 46.1619 23.5257 46.8356 23.2753C46.9347 23.1631 46.9347 23.1631 47.0134 23.054C47.0428 23.0394 47.0721 23.0248 47.1023 23.0098C47.3037 22.7277 47.3605 22.3431 47.3052 22.0033C47.2332 21.75 47.0578 21.4918 46.8255 21.3616C46.7995 21.3507 46.7735 21.3398 46.7467 21.3286C46.7467 21.2994 46.7467 21.2702 46.7467 21.2401C46.6847 21.2263 46.6226 21.2125 46.5605 21.1987C46.526 21.191 46.4914 21.1833 46.4558 21.1753C46.4198 21.1675 46.3837 21.1597 46.3466 21.1516C46.3133 21.144 46.28 21.1364 46.2456 21.1285C46.1126 21.1054 45.9877 21.1008 45.8527 21.0996C45.7988 21.099 45.7449 21.0984 45.6893 21.0979C45.6312 21.0975 45.573 21.0972 45.5131 21.0969C45.4681 21.0966 45.4681 21.0966 45.4221 21.0963C45.2625 21.0954 45.1029 21.0948 44.9433 21.0943C44.8132 21.094 44.6831 21.093 44.553 21.0916C43.3206 21.0785 42.1195 21.1157 41.1427 21.9674C41.0121 22.0807 41.0121 22.0807 40.9232 22.0807C40.9012 22.1464 40.9012 22.1464 40.8787 22.2135C40.8494 22.2135 40.82 22.2135 40.7898 22.2135C40.7788 22.2381 40.7678 22.2627 40.7565 22.2881C40.7009 22.3904 40.7009 22.3904 40.6092 22.5038C40.5158 22.6081 40.5158 22.6081 40.4786 22.7444C40.4346 22.7663 40.4346 22.7663 40.3897 22.7886C40.3343 22.9013 40.2832 23.0133 40.2341 23.1287C40.2204 23.16 40.2067 23.1914 40.1926 23.2237C39.8972 23.9068 39.8019 24.8216 40.0785 25.5316C40.0904 25.5643 40.1023 25.5969 40.1145 25.6306C40.234 25.9479 40.3883 26.244 40.5979 26.5122C40.6564 26.5934 40.6564 26.5934 40.6564 26.6819C40.7004 26.6965 40.7445 26.7111 40.7898 26.7261C40.7898 26.7553 40.7898 26.7845 40.7898 26.8146C40.8338 26.8292 40.8778 26.8438 40.9232 26.8588C40.9982 26.9224 40.9982 26.9224 41.0565 26.9916C41.0565 27.0208 41.0565 27.05 41.0565 27.0801C41.0895 27.0916 41.1224 27.1032 41.1564 27.1151C41.2799 27.169 41.3582 27.2275 41.4594 27.3151C41.6895 27.4992 41.9377 27.5975 42.2123 27.6994C42.2501 27.7151 42.2879 27.7307 42.3268 27.7468C42.4304 27.7863 42.5289 27.8126 42.6374 27.8349C42.8303 27.8752 42.8303 27.8752 42.9175 27.8995C43.0175 27.9218 43.1056 27.9262 43.2081 27.9262C43.247 27.9263 43.2859 27.9264 43.3259 27.9265C43.3682 27.9264 43.4105 27.9263 43.4541 27.9262C43.499 27.9263 43.5438 27.9264 43.59 27.9265C43.6874 27.9266 43.7848 27.9267 43.8822 27.9268C44.0895 27.9269 44.2969 27.9279 44.5042 27.9288C44.8902 27.9304 45.2762 27.9318 45.6622 27.9317C45.9308 27.9317 46.1993 27.9327 46.4679 27.9345C46.57 27.9349 46.6721 27.935 46.7742 27.9347C46.9176 27.9342 47.0608 27.9352 47.2041 27.9364C47.2459 27.936 47.2877 27.9355 47.3307 27.9351C47.6806 27.9405 47.9851 28.0436 48.2331 28.2967C48.2561 28.3332 48.279 28.3697 48.3026 28.4073C48.3274 28.442 48.3521 28.4767 48.3776 28.5124C48.5161 28.788 48.4872 29.1155 48.486 29.4166C48.4861 29.4587 48.4863 29.5009 48.4865 29.5444C48.4864 29.6047 48.4864 29.6047 48.4863 29.6663C48.4863 29.7028 48.4862 29.7393 48.4862 29.7769C48.4804 29.8673 48.4804 29.8673 48.436 29.9558C47.7357 29.961 47.0354 29.9649 46.3351 29.9672C46.0098 29.9684 45.6845 29.9699 45.3592 29.9725C45.0752 29.9747 44.7911 29.9761 44.507 29.9766C44.3571 29.9769 44.2072 29.9776 44.0573 29.9792C43.1878 29.9876 42.3726 29.918 41.5466 29.6327C41.4515 29.6001 41.3556 29.5704 41.2594 29.541C41.0658 29.4773 40.8886 29.39 40.7082 29.2959C40.6081 29.2431 40.6081 29.2431 40.4786 29.2037C40.4786 29.1745 40.4786 29.1453 40.4786 29.1152C40.4522 29.1098 40.4258 29.1044 40.3986 29.0988C40.2445 29.0549 40.1256 28.9568 39.998 28.8636C39.97 28.8433 39.9421 28.8231 39.9134 28.8022C39.8347 28.7447 39.7565 28.6868 39.6784 28.6285C39.6468 28.605 39.6152 28.5815 39.5826 28.5573C39.3408 28.3644 39.1579 28.1175 38.9672 27.8764C38.925 27.8255 38.925 27.8255 38.8819 27.7736C38.1237 26.8458 37.7057 25.4386 37.8114 24.2486C37.8891 23.5912 38.0343 22.9697 38.2559 22.3462C38.2852 22.3462 38.3146 22.3462 38.3448 22.3462C38.3493 22.3077 38.3539 22.2693 38.3585 22.2297C38.3913 22.071 38.4447 21.9609 38.5254 21.8208C38.5498 21.778 38.5741 21.7353 38.5992 21.6912C38.6179 21.6591 38.6367 21.6271 38.656 21.5941C38.6853 21.5941 38.7147 21.5941 38.7449 21.5941C38.7541 21.5649 38.7632 21.5357 38.7727 21.5056C38.8556 21.3254 38.9661 21.1655 39.1005 21.0189C39.1299 21.0189 39.1592 21.0189 39.1894 21.0189C39.2 20.9941 39.2105 20.9692 39.2214 20.9436C39.2912 20.819 39.3768 20.7323 39.4784 20.6318C39.5137 20.5964 39.549 20.5611 39.5854 20.5247C39.6784 20.4438 39.6784 20.4438 39.7673 20.4438C39.7673 20.4146 39.7673 20.3854 39.7673 20.3553C40.4674 19.7802 40.4674 19.7802 40.7898 19.7802C40.7898 19.751 40.7898 19.7218 40.7898 19.6917C41.6317 19.3585 42.4144 19.1244 43.3261 19.0911C43.3722 19.0893 43.4182 19.0876 43.4657 19.0857C43.9349 19.0689 44.4041 19.064 44.8737 19.0641Z" fill="#562EB4"/>
<path d="M106.998 14.0107C107.059 14.0098 107.12 14.0083 107.182 14.0062C107.586 13.9925 107.916 14.0112 108.227 14.2941C108.249 14.3598 108.249 14.3598 108.271 14.4268C108.315 14.4414 108.359 14.456 108.405 14.4711C108.531 14.6678 108.555 14.8212 108.555 15.0519C108.555 15.098 108.555 15.098 108.555 15.145C108.556 15.2475 108.555 15.3499 108.555 15.4524C108.555 15.5261 108.555 15.5998 108.555 15.6736C108.555 15.8322 108.555 15.9909 108.555 16.1496C108.555 16.4015 108.555 16.6535 108.556 16.9054C108.557 17.5319 108.558 18.1584 108.558 18.7849C108.558 19.2706 108.558 19.7564 108.559 20.2421C108.56 20.451 108.56 20.6599 108.56 20.8687C108.556 22.2478 108.63 23.4935 109.278 24.7398C109.339 24.8688 109.385 24.9973 109.427 25.1333C109.457 25.1333 109.486 25.1333 109.516 25.1333C109.694 25.432 109.694 25.432 109.694 25.5315C109.738 25.5461 109.782 25.5607 109.827 25.5758C109.827 25.6196 109.827 25.6634 109.827 25.7085C109.871 25.7231 109.915 25.7377 109.961 25.7527C110.021 25.8261 110.08 25.8999 110.139 25.9739C110.179 26.005 110.219 26.036 110.261 26.068C110.294 26.0953 110.327 26.1227 110.361 26.1509C110.361 26.1947 110.361 26.2385 110.361 26.2836C110.401 26.3028 110.401 26.3028 110.441 26.3223C110.539 26.3721 110.539 26.3721 110.672 26.4606C110.672 26.4898 110.672 26.519 110.672 26.5491C110.697 26.5607 110.722 26.5724 110.748 26.5843C110.858 26.6418 110.953 26.7086 111.053 26.7814C111.287 26.946 111.529 27.0817 111.783 27.2127C111.847 27.247 111.847 27.247 111.913 27.282C112.231 27.4485 112.549 27.5579 112.895 27.6551C112.951 27.6735 112.951 27.6735 113.008 27.6923C113.275 27.7797 113.541 27.8219 113.819 27.8573C113.962 27.8763 113.962 27.8763 114.056 27.8993C114.235 27.9291 114.41 27.927 114.591 27.9269C114.632 27.927 114.672 27.9272 114.714 27.9273C114.802 27.9276 114.891 27.9279 114.979 27.928C115.118 27.9284 115.258 27.9291 115.397 27.9299C115.794 27.9322 116.191 27.9343 116.588 27.935C116.831 27.9354 117.074 27.9367 117.317 27.9386C117.409 27.9391 117.502 27.9394 117.594 27.9393C117.724 27.9392 117.853 27.9402 117.983 27.9414C118.02 27.9411 118.058 27.9408 118.097 27.9405C118.363 27.9446 118.533 28.0094 118.763 28.1418C118.763 28.171 118.763 28.2002 118.763 28.2303C118.807 28.2449 118.851 28.2595 118.896 28.2745C118.896 28.3037 118.896 28.3329 118.896 28.363C118.925 28.363 118.955 28.363 118.985 28.363C119.189 28.6837 119.186 28.9607 119.177 29.3336C119.176 29.3886 119.176 29.4436 119.175 29.5002C119.17 29.904 119.17 29.904 119.118 29.9557C119.057 29.9602 118.996 29.9617 118.934 29.9619C118.895 29.9622 118.855 29.9624 118.814 29.9627C118.77 29.9627 118.726 29.9628 118.681 29.9628C118.612 29.9632 118.612 29.9632 118.541 29.9635C118.387 29.9642 118.234 29.9644 118.08 29.9647C117.973 29.9649 117.866 29.9652 117.759 29.9655C117.533 29.9659 117.308 29.9662 117.082 29.9663C116.796 29.9666 116.509 29.9676 116.223 29.9689C116.001 29.9697 115.779 29.97 115.557 29.97C115.451 29.9702 115.346 29.9705 115.241 29.9711C114.048 29.9773 112.847 29.8688 111.735 29.4148C111.65 29.3807 111.565 29.3486 111.479 29.317C110.937 29.1141 110.459 28.8305 109.974 28.5154C109.876 28.451 109.876 28.451 109.78 28.4097C109.672 28.351 109.602 28.2742 109.516 28.186C109.444 28.1261 109.371 28.0671 109.297 28.0091C109.26 27.9799 109.223 27.9507 109.184 27.9206C109.107 27.8599 109.03 27.7995 108.952 27.7393C108.84 27.6473 108.761 27.5477 108.672 27.4339C108.638 27.4003 108.603 27.3667 108.568 27.3321C108.365 27.1285 108.187 26.9039 108.005 26.6818C107.975 26.6458 107.945 26.6098 107.915 26.5728C107.739 26.3553 107.601 26.132 107.471 25.8855C107.435 25.8208 107.399 25.7563 107.363 25.6919C107.345 25.6593 107.327 25.6267 107.308 25.593C107.265 25.5167 107.222 25.4407 107.179 25.3649C107.053 25.1415 106.957 24.9406 106.893 24.6909C106.866 24.6262 106.838 24.5617 106.81 24.4974C106.678 24.1752 106.611 23.8357 106.538 23.4964C106.528 23.4535 106.518 23.4105 106.508 23.3663C106.377 22.7321 106.398 22.0662 106.399 21.4216C106.399 21.3409 106.398 21.2603 106.398 21.1796C106.398 20.9631 106.398 20.7466 106.398 20.5301C106.399 20.3028 106.398 20.0756 106.398 19.8484C106.398 19.4677 106.398 19.0871 106.399 18.7064C106.399 18.266 106.399 17.8256 106.399 17.3851C106.398 17.0062 106.398 16.6273 106.398 16.2484C106.398 16.0224 106.398 15.7964 106.398 15.5704C106.398 15.3586 106.398 15.1468 106.399 14.935C106.399 14.8571 106.399 14.7792 106.398 14.7013C106.398 14.5955 106.399 14.4897 106.399 14.3839C106.399 14.3527 106.399 14.3215 106.398 14.2893C106.4 13.9088 106.672 14.0145 106.998 14.0107Z" fill="#562EB4"/>
<path d="M15.2677 14.0213C15.3371 14.0206 15.3371 14.0206 15.408 14.02C15.4585 14.0198 15.5089 14.0196 15.5609 14.0194C15.6125 14.0191 15.6641 14.0189 15.7173 14.0186C15.8268 14.0182 15.9364 14.0179 16.0459 14.0178C16.2132 14.0173 16.3805 14.016 16.5479 14.0146C16.6542 14.0143 16.7605 14.014 16.8668 14.0139C16.9418 14.013 16.9418 14.013 17.0184 14.0122C17.3088 14.013 17.5271 14.0239 17.7486 14.2316C17.7772 14.2687 17.7772 14.2687 17.8064 14.3064C17.8276 14.3336 17.8488 14.3607 17.8707 14.3886C17.8917 14.4167 17.9128 14.4447 17.9346 14.4736C17.9567 14.5018 17.9788 14.53 18.0016 14.559C18.1624 14.7676 18.1624 14.7676 18.1624 14.869C18.1917 14.869 18.2211 14.869 18.2513 14.869C18.2733 14.9566 18.2733 14.9566 18.2957 15.0459C18.3251 15.0459 18.3544 15.0459 18.3847 15.0459C18.4388 15.1218 18.4388 15.1218 18.4958 15.2201C18.5707 15.358 18.5707 15.358 18.6958 15.4441C18.6958 15.4879 18.6958 15.5317 18.6958 15.5768C18.7619 15.5987 18.7619 15.5987 18.8292 15.6211C18.882 15.7345 18.882 15.7345 18.9181 15.8423C18.9474 15.8423 18.9768 15.8423 19.007 15.8423C19.007 15.8861 19.007 15.9299 19.007 15.975C19.073 15.9969 19.073 15.9969 19.1404 16.0193C19.2234 16.1192 19.2234 16.1192 19.3126 16.246C19.3439 16.2899 19.3751 16.3338 19.4073 16.3791C19.4366 16.4209 19.4658 16.4628 19.496 16.5059C19.6284 16.7012 19.6284 16.7012 19.7822 16.879C19.8606 16.9572 19.9264 17.04 19.9934 17.1281C20.0169 17.1587 20.0405 17.1893 20.0647 17.2209C20.1184 17.3023 20.1184 17.3023 20.1184 17.3908C20.1844 17.4127 20.1844 17.4127 20.2517 17.435C20.4296 17.6726 20.4296 17.6726 20.4296 17.7889C20.4589 17.7889 20.4882 17.7889 20.5185 17.7889C20.5231 17.8172 20.5276 17.8455 20.5324 17.8747C20.5424 17.9048 20.5525 17.9349 20.5629 17.9659C20.6289 17.9878 20.6289 17.9878 20.6963 18.0101C20.7809 18.1147 20.7809 18.1147 20.8713 18.2452C20.9813 18.4032 21.0915 18.5398 21.2297 18.6738C21.2754 18.7468 21.3197 18.8206 21.3631 18.895C21.4004 18.9507 21.4384 19.006 21.477 19.0609C21.4954 19.0871 21.5138 19.1134 21.5328 19.1404C21.5834 19.2113 21.5834 19.2113 21.6743 19.2489C21.6743 19.2927 21.6743 19.3365 21.6743 19.3816C21.7036 19.3816 21.733 19.3816 21.7632 19.3816C21.8205 19.4463 21.8205 19.4463 21.8799 19.531C21.8997 19.5587 21.9195 19.5864 21.94 19.6149C21.9855 19.6913 21.9855 19.6913 21.9855 19.7798C22.0148 19.7798 22.0441 19.7798 22.0744 19.7798C22.089 19.8382 22.1037 19.8966 22.1188 19.9568C22.1482 19.9568 22.1775 19.9568 22.2077 19.9568C22.2734 20.031 22.2734 20.031 22.3498 20.1348C22.3778 20.1725 22.4058 20.2102 22.4347 20.249C22.4643 20.2895 22.4939 20.3299 22.5245 20.3715C22.5848 20.4529 22.6452 20.5343 22.7056 20.6156C22.7347 20.6547 22.7637 20.6939 22.7937 20.7342C22.9162 20.8969 23.0446 21.0539 23.1758 21.2097C23.2302 21.284 23.2302 21.284 23.2302 21.3725C23.2595 21.3725 23.2889 21.3725 23.3191 21.3725C23.3764 21.4372 23.3764 21.4372 23.4358 21.5218C23.4556 21.5496 23.4754 21.5773 23.4959 21.6058C23.5414 21.6822 23.5414 21.6822 23.5414 21.7707C23.5707 21.7707 23.6001 21.7707 23.6303 21.7707C23.6876 21.8353 23.6876 21.8353 23.747 21.92C23.7668 21.9477 23.7866 21.9754 23.8071 22.004C23.8526 22.0804 23.8526 22.0804 23.8526 22.1689C23.8819 22.1689 23.9112 22.1689 23.9415 22.1689C23.9415 22.2127 23.9415 22.2565 23.9415 22.3016C23.9855 22.3162 24.0295 22.3308 24.0748 22.3458C24.1312 22.406 24.1312 22.406 24.1874 22.4832C24.2085 22.5119 24.2297 22.5405 24.2515 22.5701C24.2851 22.6165 24.2851 22.6165 24.3193 22.6638C24.3667 22.7282 24.4142 22.7926 24.4617 22.8569C24.4859 22.8896 24.51 22.9223 24.5349 22.956C24.6689 23.1345 24.8093 23.308 24.9505 23.481C25.0973 23.6636 25.0973 23.6636 25.0973 23.7616C25.1266 23.7616 25.156 23.7616 25.1862 23.7616C25.2404 23.8374 25.2404 23.8374 25.2973 23.9358C25.3722 24.0737 25.3722 24.0737 25.4974 24.1598C25.4974 24.2036 25.4974 24.2474 25.4974 24.2925C25.5414 24.3071 25.5854 24.3217 25.6307 24.3367C25.7118 24.4235 25.7118 24.4235 25.7947 24.5303C25.8223 24.5653 25.85 24.6003 25.8785 24.6364C25.9419 24.7349 25.9419 24.7349 25.9419 24.8676C25.9859 24.8822 26.0299 24.8968 26.0753 24.9119C26.1598 25.0164 26.1598 25.0164 26.2503 25.1469C26.3377 25.2724 26.4192 25.387 26.5283 25.4944C26.6087 25.5755 26.6087 25.5755 26.6532 25.7082C26.6966 25.7534 26.7412 25.7976 26.7865 25.8409C26.9199 26.0032 26.9199 26.0032 26.9199 26.1064C26.9639 26.121 27.0079 26.1356 27.0533 26.1506C27.0533 26.1944 27.0533 26.2382 27.0533 26.2834C27.0973 26.298 27.1413 26.3126 27.1866 26.3276C27.3645 26.5652 27.3645 26.5652 27.3645 26.6815C27.3938 26.6815 27.4231 26.6815 27.4534 26.6815C27.5244 26.7687 27.5908 26.8558 27.6562 26.947C27.7209 27.0364 27.7864 27.1247 27.8535 27.2124C27.8681 27.2124 27.8828 27.2124 27.8979 27.2124C27.8979 27.1864 27.898 27.1603 27.898 27.1334C27.8996 25.5877 27.9021 24.0419 27.9058 22.4962C27.9063 22.3105 27.9067 22.1249 27.9071 21.9393C27.9073 21.8839 27.9073 21.8839 27.9074 21.8273C27.9088 21.229 27.9095 20.6308 27.9101 20.0325C27.9106 19.4186 27.9118 18.8047 27.9137 18.1907C27.9148 17.8119 27.9154 17.4332 27.9153 17.0544C27.9153 16.7946 27.916 16.5348 27.9171 16.275C27.9178 16.1251 27.918 15.9753 27.9177 15.8254C27.9174 15.6628 27.9182 15.5002 27.9193 15.3376C27.9188 15.2668 27.9188 15.2668 27.9182 15.1946C27.9223 14.8414 27.9963 14.6058 28.2369 14.3436C28.2717 14.3126 28.3066 14.2816 28.3425 14.2496C28.3718 14.2204 28.4011 14.1912 28.4314 14.1611C28.7124 13.9941 28.9937 14.0109 29.3144 14.0159C29.4045 14.0173 29.4946 14.0178 29.5847 14.018C30.0249 14.0216 30.0249 14.0216 30.0762 14.0726C30.0806 14.1568 30.0818 14.2411 30.0818 14.3253C30.0819 14.4081 30.0819 14.4081 30.0821 14.4927C30.082 14.5548 30.0819 14.6168 30.0818 14.6789C30.0819 14.7443 30.0819 14.8096 30.082 14.8749C30.0822 15.0553 30.0821 15.2357 30.082 15.4161C30.0819 15.6104 30.082 15.8046 30.0822 15.9988C30.0824 16.3796 30.0823 16.7604 30.0822 17.1412C30.0821 17.4506 30.0821 17.7599 30.0821 18.0693C30.0821 18.1132 30.0821 18.1572 30.0821 18.2024C30.0822 18.2917 30.0822 18.3809 30.0822 18.4702C30.0823 19.3081 30.0822 20.146 30.0819 20.9839C30.0817 21.7037 30.0818 22.4235 30.082 23.1433C30.0822 23.9781 30.0823 24.8129 30.0822 25.6477C30.0822 25.7367 30.0821 25.8256 30.0821 25.9145C30.0821 25.9583 30.0821 26.002 30.0821 26.0471C30.0821 26.3563 30.0821 26.6655 30.0822 26.9746C30.0824 27.3511 30.0823 27.7276 30.0821 28.1041C30.082 28.2964 30.0819 28.4887 30.0821 28.681C30.0822 28.8567 30.0821 29.0325 30.0819 29.2082C30.0818 29.2721 30.0819 29.3359 30.082 29.3998C30.0821 29.486 30.082 29.5723 30.0818 29.6585C30.0818 29.7066 30.0818 29.7547 30.0817 29.8042C30.0762 29.9112 30.0762 29.9112 30.0317 29.9554C29.9624 29.9605 29.8929 29.9625 29.8235 29.9633C29.7791 29.9638 29.7347 29.9644 29.689 29.965C29.6406 29.9653 29.5922 29.9656 29.5424 29.966C29.4929 29.9663 29.4433 29.9667 29.3923 29.9671C29.2871 29.9677 29.182 29.9681 29.0768 29.9685C28.9164 29.9693 28.756 29.9712 28.5956 29.9731C28.4935 29.9736 28.3914 29.974 28.2893 29.9743C28.2415 29.975 28.1936 29.9758 28.1443 29.9766C27.8572 29.9758 27.6884 29.9449 27.4534 29.7785C27.4094 29.7493 27.3653 29.7201 27.32 29.69C27.32 29.6462 27.32 29.6024 27.32 29.5573C27.276 29.5427 27.232 29.5281 27.1866 29.513C27.1178 29.4307 27.0524 29.3454 26.9894 29.2586C26.8413 29.056 26.8413 29.056 26.685 28.8598C26.6087 28.7609 26.6087 28.7609 26.6087 28.6724C26.5794 28.6724 26.55 28.6724 26.5198 28.6724C26.5051 28.614 26.4905 28.5556 26.4754 28.4955C26.446 28.4955 26.4167 28.4955 26.3865 28.4955C26.3571 28.4225 26.3278 28.3495 26.2975 28.2742C26.2682 28.2742 26.2389 28.2742 26.2086 28.2742C26.194 28.2158 26.1793 28.1574 26.1642 28.0973C26.1348 28.0973 26.1055 28.0973 26.0753 28.0973C25.9985 28.0036 25.9985 28.0036 25.9141 27.8816C25.886 27.8416 25.858 27.8015 25.829 27.7603C25.7641 27.6549 25.7641 27.6549 25.7641 27.5664C25.7201 27.5518 25.6761 27.5372 25.6307 27.5221C25.5496 27.4354 25.5496 27.4354 25.4668 27.3286C25.4391 27.2936 25.4114 27.2585 25.3829 27.2225C25.3195 27.124 25.3195 27.124 25.3195 26.9912C25.2755 26.9766 25.2315 26.962 25.1862 26.947C25.14 26.8743 25.0957 26.8004 25.0528 26.7258C25.0317 26.7048 25.0106 26.6838 24.9889 26.6622C24.9195 26.5931 24.9195 26.5931 24.8278 26.4548C24.7554 26.3254 24.7554 26.3254 24.6527 26.2834C24.6381 26.2396 24.6234 26.1958 24.6083 26.1506C24.5716 26.115 24.5349 26.0795 24.4971 26.0428C24.3931 25.9366 24.3575 25.8953 24.3416 25.7525C24.3122 25.7525 24.2829 25.7525 24.2526 25.7525C24.2481 25.7242 24.2435 25.6959 24.2388 25.6667C24.2236 25.6216 24.2236 25.6216 24.2082 25.5755C24.1642 25.5609 24.1202 25.5463 24.0748 25.5313C24.0164 25.469 24.0164 25.469 23.9576 25.3892C23.9358 25.3599 23.9139 25.3305 23.8914 25.3003C23.8685 25.2688 23.8456 25.2374 23.822 25.205C23.7984 25.1731 23.7748 25.1413 23.7505 25.1085C23.6428 24.963 23.5363 24.8166 23.4304 24.6697C23.3836 24.6048 23.3836 24.6048 23.3358 24.5386C23.295 24.4812 23.295 24.4812 23.2535 24.4226C23.1919 24.3319 23.1919 24.3319 23.0968 24.2925C23.0968 24.2487 23.0968 24.2049 23.0968 24.1598C23.0528 24.1452 23.0088 24.1306 22.9635 24.1155C22.7856 23.8779 22.7856 23.8779 22.7856 23.7616C22.7416 23.747 22.6976 23.7324 22.6523 23.7173C22.5833 23.6346 22.5833 23.6346 22.505 23.521C22.3334 23.2791 22.1543 23.0441 21.9716 22.8104C21.9444 22.7755 21.9173 22.7405 21.8893 22.7045C21.8634 22.6715 21.8376 22.6384 21.8109 22.6044C21.7878 22.5748 21.7647 22.5452 21.7409 22.5148C21.6763 22.433 21.6763 22.433 21.5991 22.3656C21.5409 22.3016 21.5409 22.3016 21.5409 22.1689C21.5116 22.1689 21.4822 22.1689 21.452 22.1689C21.3947 22.1042 21.3947 22.1042 21.3353 22.0196C21.3155 21.9918 21.2957 21.9641 21.2752 21.9356C21.2297 21.8592 21.2297 21.8592 21.2297 21.7707C21.2004 21.7707 21.1711 21.7707 21.1408 21.7707C21.1262 21.7123 21.1115 21.6539 21.0964 21.5937C21.067 21.5937 21.0377 21.5937 21.0075 21.5937C20.9005 21.4803 20.8099 21.3528 20.7157 21.2287C20.6889 21.1943 20.6622 21.16 20.6346 21.1245C20.609 21.0912 20.5835 21.0578 20.5572 21.0234C20.5338 20.9928 20.5104 20.9623 20.4862 20.9308C20.4296 20.8416 20.4296 20.8416 20.4077 20.7445C20.4002 20.7182 20.3928 20.6918 20.3851 20.6647C20.3411 20.6501 20.2971 20.6355 20.2517 20.6204C20.1706 20.527 20.0954 20.4342 20.0211 20.3356C20.0005 20.3091 19.9799 20.2826 19.9587 20.2553C19.8072 20.057 19.8072 20.057 19.8072 19.9568C19.7779 19.9568 19.7485 19.9568 19.7183 19.9568C19.7036 19.8984 19.6889 19.84 19.6738 19.7798C19.6445 19.7798 19.6152 19.7798 19.5849 19.7798C19.4884 19.6488 19.4144 19.5362 19.3627 19.3816C19.3333 19.3816 19.304 19.3816 19.2737 19.3816C19.202 19.2983 19.1361 19.2154 19.0709 19.1272C19.0526 19.1034 19.0343 19.0796 19.0154 19.055C18.9203 18.928 18.8667 18.8259 18.8292 18.6738C18.7632 18.6519 18.7632 18.6519 18.6958 18.6295C18.6147 18.5361 18.5395 18.4433 18.4652 18.3447C18.4446 18.3182 18.424 18.2917 18.4028 18.2644C18.2513 18.0661 18.2513 18.0661 18.2513 17.9659C18.222 17.9659 18.1926 17.9659 18.1624 17.9659C18.1477 17.9221 18.133 17.8783 18.1179 17.8332C18.0568 17.765 18.0568 17.765 17.9846 17.7004C17.8824 17.6066 17.8524 17.5714 17.8067 17.435C17.7728 17.4012 17.7389 17.3675 17.7039 17.3327C17.4067 17.0368 17.4067 17.0368 17.4067 16.8599C17.348 16.8453 17.2893 16.8307 17.2288 16.8156C17.2287 16.842 17.2285 16.8683 17.2283 16.8955C17.2237 17.5376 17.2188 18.1798 17.2138 18.822C17.2113 19.1325 17.2089 19.4431 17.2067 19.7537C17.2046 20.0534 17.2023 20.3532 17.1998 20.653C17.1989 20.7673 17.1981 20.8816 17.1973 20.9959C17.1962 21.1561 17.1949 21.3163 17.1935 21.4766C17.1933 21.5237 17.193 21.5708 17.1927 21.6194C17.1903 21.8654 17.1763 22.1024 17.1399 22.3458C17.1106 22.3458 17.0813 22.3458 17.051 22.3458C17.0217 22.4334 16.9923 22.521 16.9621 22.6113C16.9328 22.6113 16.9034 22.6113 16.8732 22.6113C16.8585 22.6551 16.8439 22.6989 16.8287 22.744C16.5507 22.925 16.3366 22.9708 16.0029 22.9711C15.92 22.9712 15.92 22.9712 15.8355 22.9713C15.7782 22.9711 15.7209 22.9709 15.6618 22.9708C15.5748 22.971 15.5748 22.971 15.4861 22.9713C15.4311 22.9712 15.3761 22.9712 15.3194 22.9711C15.2689 22.9711 15.2184 22.971 15.1664 22.971C15.0506 22.9652 15.0506 22.9652 15.0061 22.921C15.0017 22.807 15.0001 22.6941 15.0005 22.58C15.0004 22.5439 15.0003 22.5078 15.0003 22.4705C15.0001 22.3485 15.0002 22.2265 15.0004 22.1044C15.0003 22.0173 15.0002 21.9302 15.0001 21.8431C14.9999 21.6058 15 21.3685 15.0001 21.1312C15.0003 20.8835 15.0002 20.6357 15.0001 20.388C15 19.9719 15.0001 19.5558 15.0003 19.1396C15.0006 18.6578 15.0005 18.176 15.0002 17.6941C15 17.2813 15 16.8684 15.0001 16.4555C15.0002 16.2085 15.0002 15.9616 15.0001 15.7146C14.9999 15.4825 15 15.2504 15.0003 15.0183C15.0003 14.9328 15.0003 14.8474 15.0002 14.7619C15.0001 14.6458 15.0002 14.5297 15.0005 14.4136C15.0004 14.3793 15.0003 14.345 15.0002 14.3097C15.0012 14.0467 15.0056 14.0232 15.2677 14.0213Z" fill="#562EB4"/>
</svg>
