<svg width="20" height="21" viewBox="0 0 20 21" fill="none" xmlns="http://www.w3.org/2000/svg">
<path d="M20 10.6748C20 9.36231 18.9375 8.2998 17.625 8.2998C17.0625 8.2998 16.5 8.48731 16.125 8.86231C14.6875 7.92481 12.8125 7.36231 10.8125 7.29981L11.875 3.9873L14.6875 4.6123C14.75 5.67481 15.625 6.48731 16.6875 6.48731C17.8125 6.48731 18.6875 5.6123 18.6875 4.4873C18.6875 3.3623 17.8125 2.4873 16.6875 2.4873C15.9375 2.4873 15.25 2.9248 14.875 3.5498L11.5625 2.7373C11.3125 2.6748 11 2.8623 10.9375 3.1123L9.625 7.17481C7.5 7.23731 5.4375 7.79981 3.875 8.73731C3.4375 8.42481 2.9375 8.23731 2.375 8.23731C1.0625 8.23731 0 9.29981 0 10.6123C0 11.4248 0.4375 12.1748 1.0625 12.6123C1.0625 12.7998 1 12.9873 1 13.1748C1 14.8623 1.9375 16.3623 3.6875 17.4873C5.375 18.6123 7.5625 19.1748 9.9375 19.1748C12.3125 19.1748 14.5 18.5498 16.1875 17.4873C17.9375 16.3623 18.875 14.7998 18.875 13.1748C18.875 12.9873 18.875 12.7998 18.8125 12.6748C19.5625 12.2998 20 11.5498 20 10.6748ZM16.6875 3.5498C17.1875 3.5498 17.625 3.9873 17.625 4.4873C17.625 4.9873 17.1875 5.4248 16.6875 5.4248C16.1875 5.4248 15.75 4.9873 15.75 4.4873C15.75 3.9873 16.1875 3.5498 16.6875 3.5498ZM5.6875 12.1748C5.6875 11.4248 6.3125 10.7998 7.0625 10.7998C7.8125 10.7998 8.4375 11.4248 8.4375 12.1748C8.4375 12.9248 7.8125 13.5498 7.0625 13.5498C6.3125 13.5498 5.6875 12.9248 5.6875 12.1748ZM13.3125 16.1748C12.625 16.8623 11.5625 17.2373 10 17.2373C8.5 17.2373 7.4375 16.9248 6.6875 16.1748C6.5 15.9873 6.5 15.6123 6.6875 15.4248C6.875 15.2373 7.25 15.2373 7.4375 15.4248C7.9375 15.9248 8.75 16.1123 9.9375 16.1123C11.125 16.1123 11.9375 15.8623 12.4375 15.4248C12.625 15.2373 13 15.2373 13.1875 15.4248C13.5 15.6123 13.5 15.9248 13.3125 16.1748ZM13 13.5498C12.25 13.5498 11.625 12.9248 11.625 12.1748C11.625 11.4248 12.25 10.7998 13 10.7998C13.75 10.7998 14.375 11.4248 14.375 12.1748C14.375 12.9248 13.75 13.5498 13 13.5498Z" fill="white" fill-opacity="0.8"/>
</svg>
