<svg width="20" height="21" viewBox="0 0 20 21" fill="none" xmlns="http://www.w3.org/2000/svg">
<path d="M19.9593 2.96778C19.9432 2.89397 19.9078 2.82575 19.8568 2.77008C19.8057 2.71441 19.7408 2.67329 19.6687 2.65091C19.406 2.59911 19.1344 2.61854 18.8818 2.70716C18.8818 2.70716 1.35866 9.00528 0.35804 9.70278C0.14179 9.85278 0.0699149 9.93966 0.0342899 10.0428C-0.138835 10.539 0.399915 10.7578 0.399915 10.7578L4.91616 12.2297C4.99245 12.2428 5.07076 12.2381 5.14491 12.2159C6.17241 11.5672 15.4818 5.68841 16.0199 5.49091C16.1043 5.46528 16.1668 5.49091 16.153 5.55341C15.933 6.30716 7.89366 13.4515 7.84929 13.4953C7.82772 13.513 7.81076 13.5356 7.79988 13.5613C7.78899 13.587 7.7845 13.615 7.78679 13.6428L7.36679 18.0497C7.36679 18.0497 7.19054 19.4247 8.56304 18.0497C9.53616 17.0753 10.4699 16.269 10.938 15.8772C12.4912 16.949 14.1624 18.1347 14.883 18.7522C15.0039 18.8696 15.1473 18.9615 15.3045 19.0222C15.4617 19.083 15.6296 19.1115 15.798 19.1059C16.4855 19.0797 16.673 18.3278 16.673 18.3278C16.673 18.3278 19.8655 5.48091 19.973 3.75903C19.983 3.59028 19.9974 3.48216 19.9987 3.36653C20.0044 3.23243 19.9911 3.09819 19.9593 2.96778Z" fill="white" fill-opacity="0.8"/>
</svg>
