<svg width="20" height="21" viewBox="0 0 20 21" fill="none" xmlns="http://www.w3.org/2000/svg">
<path d="M16.5081 4.94732C15.2763 4.38357 13.9756 3.98295 12.64 3.75732C12.4575 4.0842 12.2919 4.42045 12.1444 4.76482C10.7213 4.55045 9.27439 4.55045 7.85127 4.76482C7.70377 4.42045 7.53877 4.0842 7.35564 3.75732C6.01877 3.98545 4.71752 4.38607 3.48439 4.95045C1.03627 8.57232 0.372518 12.1042 0.704393 15.5861C2.13814 16.6454 3.74252 17.4511 5.44877 17.9679C5.83314 17.4511 6.17252 16.9029 6.46502 16.3292C5.91002 16.1217 5.37502 15.8661 4.86502 15.5654C4.99939 15.4679 5.13064 15.3679 5.25752 15.2704C8.26127 16.6829 11.7388 16.6829 14.7431 15.2704C14.8713 15.3754 15.0025 15.4754 15.1356 15.5654C14.625 15.8673 14.0881 16.1229 13.5325 16.3311C13.8244 16.9048 14.1644 17.4523 14.5488 17.9679C16.2563 17.4529 17.8619 16.6479 19.2963 15.5879C19.6856 11.5498 18.6306 8.05045 16.5081 4.94732ZM6.88564 13.4448C5.96127 13.4448 5.19689 12.6054 5.19689 11.5736C5.19689 10.5417 5.93439 9.69482 6.88252 9.69482C7.83064 9.69482 8.58877 10.5411 8.57252 11.5736C8.55627 12.6061 7.82752 13.4448 6.88564 13.4448ZM13.115 13.4448C12.1888 13.4448 11.4281 12.6054 11.4281 11.5736C11.4281 10.5417 12.1656 9.69482 13.115 9.69482C14.0644 9.69482 14.8169 10.5411 14.8006 11.5736C14.7844 12.6061 14.0575 13.4448 13.115 13.4448Z" fill="white" fill-opacity="0.8"/>
</svg>
