<svg width="200" height="45" viewBox="0 0 200 45" fill="none" xmlns="http://www.w3.org/2000/svg">
<path d="M183.841 20.0369C183.888 20.0421 183.935 20.0472 183.983 20.0526C184.262 20.0871 184.516 20.1433 184.778 20.2442C184.84 20.2675 184.84 20.2675 184.903 20.2912C184.935 20.3049 184.967 20.3186 185 20.3327C185.033 20.3464 185.066 20.3601 185.1 20.3742C185.178 20.4212 185.178 20.4212 185.222 20.5539C185.193 20.84 185.132 21.1208 185.044 21.3945C185.015 21.3945 184.986 21.3945 184.956 21.3945C184.949 21.4438 184.949 21.4438 184.942 21.4941C184.909 21.6253 184.872 21.6956 184.778 21.7927C184.734 21.7927 184.69 21.7927 184.644 21.7927C184.63 21.8365 184.615 21.8803 184.6 21.9254C184.245 22.1053 183.896 22.083 183.508 22.0333C182.475 21.9026 181.599 22.1152 180.735 22.7052C180.596 22.808 180.596 22.808 180.474 22.9347C180.377 23.0315 180.377 23.0315 180.288 23.0315C180.275 23.0579 180.262 23.0844 180.249 23.1117C180.199 23.2084 180.199 23.2084 180.11 23.3412C180.081 23.3412 180.051 23.3412 180.021 23.3412C180.011 23.3695 180.001 23.3977 179.991 23.4269C179.924 23.582 179.843 23.7258 179.76 23.8726C179.727 23.9306 179.695 23.9895 179.665 24.049C179.636 24.049 179.607 24.049 179.577 24.049C179.568 24.1175 179.568 24.1175 179.56 24.1873C179.532 24.3587 179.532 24.3587 179.489 24.4874C179.312 25.0173 179.341 25.5855 179.339 26.1369C179.339 26.2941 179.338 26.4512 179.337 26.6084C179.335 26.9982 179.333 27.388 179.331 27.7778C179.33 28.1084 179.328 28.4391 179.326 28.7697C179.325 28.9243 179.325 29.079 179.324 29.2336C179.324 29.3284 179.323 29.4231 179.323 29.5178C179.323 29.5606 179.323 29.6035 179.323 29.6476C179.32 29.9903 179.256 30.2305 179.043 30.5083C178.743 30.7985 178.423 30.8331 178.023 30.8297C177.971 30.8286 177.919 30.8275 177.865 30.8263C177.812 30.8257 177.758 30.8251 177.703 30.8245C177.572 30.823 177.441 30.8208 177.309 30.818C177.254 30.7079 177.259 30.6344 177.259 30.5112C177.259 30.465 177.259 30.4188 177.259 30.3712C177.259 30.3203 177.259 30.2694 177.259 30.2169C177.259 30.1635 177.259 30.11 177.259 30.0549C177.259 29.9079 177.259 29.7609 177.259 29.6139C177.259 29.4597 177.259 29.3055 177.259 29.1513C177.259 28.8918 177.259 28.6323 177.259 28.3728C177.259 28.0741 177.259 27.7753 177.259 27.4766C177.259 27.2195 177.259 26.9624 177.259 26.7053C177.259 26.5521 177.259 26.3988 177.259 26.2456C177.259 26.0739 177.259 25.9023 177.259 25.7307C177.259 25.6808 177.259 25.6309 177.259 25.5794C177.26 25.1181 177.273 24.6558 177.387 24.2066C177.395 24.1752 177.403 24.1438 177.411 24.1114C177.519 23.6857 177.655 23.2716 177.882 22.8929C177.933 22.8082 177.977 22.7219 178.021 22.6333C178.05 22.6333 178.079 22.6333 178.11 22.6333C178.121 22.5931 178.133 22.553 178.146 22.5116C178.194 22.3798 178.237 22.2933 178.332 22.1909C178.361 22.1909 178.39 22.1909 178.421 22.1909C178.432 22.1652 178.444 22.1394 178.456 22.1129C178.66 21.734 179.04 21.4031 179.399 21.1733C179.413 21.1441 179.428 21.1149 179.443 21.0848C179.487 21.0848 179.531 21.0848 179.577 21.0848C179.599 21.0191 179.599 21.0191 179.621 20.9521C179.694 20.9375 179.768 20.9229 179.843 20.9079C179.843 20.8787 179.843 20.8495 179.843 20.8194C179.881 20.8007 179.919 20.782 179.958 20.7627C180.058 20.7124 180.159 20.6617 180.26 20.6106C180.649 20.4141 181.019 20.2578 181.444 20.1558C181.473 20.1412 181.502 20.1266 181.533 20.1115C182.311 19.9669 183.057 19.9487 183.841 20.0369Z" fill="white" fill-opacity="0.8"/>
<path d="M79.4504 20.0738C79.4918 20.0789 79.5331 20.084 79.5758 20.0893C79.6866 20.1114 79.7668 20.1462 79.8652 20.2C79.9222 20.2165 79.9796 20.2313 80.0375 20.2442C80.1909 20.2808 80.3403 20.3198 80.4876 20.377C80.6014 20.6035 80.5229 20.9749 80.448 21.2081C80.4056 21.3024 80.3601 21.3926 80.3098 21.483C80.28 21.5419 80.2503 21.6009 80.2209 21.66C80.1915 21.66 80.1622 21.66 80.132 21.66C80.1173 21.7038 80.1026 21.7476 80.0875 21.7927C79.6171 22.0898 79.2362 22.0938 78.69 22.0112C77.9386 21.9055 77.0375 22.0762 76.3978 22.5006C76.3538 22.5006 76.3098 22.5006 76.2644 22.5006C76.2644 22.5298 76.2644 22.559 76.2644 22.5891C76.1944 22.6383 76.1944 22.6383 76.1005 22.6914C75.9008 22.8107 75.7495 22.9456 75.6115 23.1338C75.5922 23.1584 75.573 23.1831 75.5531 23.2085C75.5238 23.2085 75.4945 23.2085 75.4642 23.2085C75.4527 23.233 75.4411 23.2575 75.4292 23.2828C75.3685 23.3984 75.298 23.5037 75.2253 23.6122C75.0794 23.8387 74.9758 24.0614 74.8863 24.3145C74.8741 24.3446 74.8618 24.3747 74.8492 24.4057C74.6148 25.0155 74.6519 25.7103 74.6532 26.3517C74.6535 26.5048 74.6531 26.6579 74.6524 26.8111C74.6508 27.2458 74.65 27.6806 74.6505 28.1154C74.6507 28.3827 74.6499 28.65 74.6484 28.9173C74.6481 29.0186 74.6481 29.1199 74.6486 29.2212C74.6493 29.3627 74.6485 29.5042 74.6475 29.6457C74.6483 29.7077 74.6483 29.7077 74.6491 29.7709C74.6443 30.1121 74.5346 30.368 74.2945 30.6134C73.9302 30.8327 73.6147 30.8349 73.1971 30.8263C73.1414 30.8257 73.0858 30.8251 73.0284 30.8245C72.892 30.823 72.7556 30.8208 72.6191 30.818C72.6129 30.028 72.6082 29.238 72.6053 28.448C72.604 28.0811 72.6021 27.7142 72.599 27.3473C72.5963 27.0269 72.5946 26.7066 72.5941 26.3863C72.5937 26.2171 72.5929 26.048 72.5909 25.8789C72.5796 24.8609 72.677 23.9486 73.1526 23.0315C73.2002 22.9229 73.2465 22.8139 73.2922 22.7045C73.3304 22.6333 73.3304 22.6333 73.4193 22.5891C73.4631 22.5135 73.5068 22.4378 73.5492 22.3615C73.6142 22.2502 73.688 22.1533 73.775 22.0582C73.8043 22.0582 73.8336 22.0582 73.8639 22.0582C73.8639 22.0144 73.8639 21.9706 73.8639 21.9254C73.9877 21.7851 74.0982 21.6982 74.264 21.6157C74.2786 21.5719 74.2933 21.5281 74.3084 21.483C74.9332 20.9079 74.9332 20.9079 75.1531 20.9079C75.1531 20.8787 75.1531 20.8495 75.1531 20.8194C75.2411 20.8048 75.3291 20.7902 75.4198 20.7751C75.4198 20.746 75.4198 20.7168 75.4198 20.6867C75.5485 20.6295 75.6772 20.5723 75.806 20.5152C75.8423 20.4991 75.8786 20.4829 75.916 20.4663C76.4106 20.2471 76.4106 20.2471 76.6312 20.1972C76.7878 20.1734 76.7878 20.1734 76.8423 20.1115C77.7286 19.9465 78.5608 19.9635 79.4504 20.0738Z" fill="white" fill-opacity="0.8"/>
<path d="M166.478 19.9267C166.572 19.9263 166.666 19.9258 166.761 19.9251C167.462 19.9209 168.132 19.9569 168.819 20.1113C168.819 20.1405 168.819 20.1697 168.819 20.1998C168.857 20.204 168.895 20.2083 168.935 20.2126C169.101 20.2474 169.213 20.3059 169.358 20.3934C169.403 20.4202 169.448 20.447 169.494 20.4746C169.705 20.6087 169.705 20.6087 169.797 20.6865C169.797 20.7157 169.797 20.7449 169.797 20.775C169.855 20.7896 169.914 20.8042 169.974 20.8192C169.974 20.8484 169.974 20.8776 169.974 20.9077C170.018 20.9223 170.062 20.9369 170.108 20.9519C170.183 21.0128 170.183 21.0128 170.241 21.0846C170.241 21.1284 170.241 21.1722 170.241 21.2174C170.285 21.232 170.329 21.2466 170.375 21.2616C170.876 21.8353 171.038 22.6461 170.997 23.3852C170.962 23.7554 170.909 24.0995 170.775 24.447C170.745 24.447 170.716 24.447 170.686 24.447C170.677 24.4826 170.667 24.5182 170.658 24.5549C170.578 24.7619 170.459 24.9308 170.33 25.1107C170.296 25.1604 170.296 25.1604 170.26 25.2112C170.229 25.249 170.229 25.249 170.197 25.2876C170.167 25.2876 170.138 25.2876 170.108 25.2876C170.064 25.3752 170.064 25.3752 170.019 25.4646C169.99 25.4646 169.96 25.4646 169.93 25.4646C169.93 25.4938 169.93 25.523 169.93 25.5531C169.618 25.8241 169.236 26.0006 168.863 26.1725C168.831 26.1876 168.798 26.2027 168.765 26.2183C168.166 26.4691 167.462 26.4074 166.828 26.407C166.721 26.4071 166.615 26.4073 166.508 26.4075C166.286 26.4079 166.064 26.4079 165.842 26.4076C165.557 26.4074 165.272 26.4081 164.987 26.4092C164.768 26.4098 164.549 26.4098 164.329 26.4097C164.224 26.4097 164.119 26.41 164.014 26.4104C163.868 26.4109 163.721 26.4107 163.575 26.4101C163.532 26.4105 163.488 26.4108 163.443 26.4112C163.384 26.4107 163.384 26.4107 163.323 26.4102C163.288 26.4102 163.254 26.4102 163.218 26.4102C163.103 26.389 163.064 26.354 162.995 26.2609C162.983 26.1434 162.978 26.038 162.981 25.9208C162.982 25.8889 162.982 25.857 162.983 25.8241C162.993 25.4266 163.079 25.0627 163.351 24.7567C163.38 24.7567 163.409 24.7567 163.44 24.7567C163.462 24.691 163.462 24.691 163.484 24.624C163.555 24.5739 163.555 24.5739 163.645 24.53C163.689 24.5079 163.689 24.5079 163.733 24.4854C163.981 24.3962 164.244 24.3961 164.505 24.3951C164.539 24.3948 164.573 24.3945 164.608 24.3942C164.681 24.3936 164.754 24.3931 164.827 24.3926C164.944 24.3919 165.06 24.3909 165.176 24.3897C165.507 24.3866 165.837 24.384 166.168 24.3817C166.371 24.3803 166.573 24.3784 166.776 24.3764C166.853 24.3757 166.93 24.3751 167.006 24.3747C167.798 24.3959 167.798 24.3959 168.483 24.0596C168.552 24.0046 168.552 24.0046 168.641 24.0046C168.657 23.9622 168.657 23.9622 168.674 23.9189C168.73 23.7834 168.73 23.7834 168.775 23.6956C168.914 23.4201 168.977 23.1519 168.877 22.8507C168.845 22.7773 168.81 22.7051 168.774 22.6331C168.774 22.5893 168.774 22.5455 168.774 22.5004C168.745 22.5004 168.715 22.5004 168.685 22.5004C168.66 22.4675 168.634 22.4347 168.607 22.4008C168.366 22.1073 168.069 22.0355 167.707 21.9695C167.493 21.9514 167.28 21.9498 167.066 21.9503C167.005 21.9501 166.944 21.9499 166.883 21.9496C166.756 21.9492 166.63 21.9493 166.503 21.9497C166.375 21.9502 166.247 21.9499 166.119 21.9488C164.889 21.9338 164.889 21.9338 163.706 22.2349C163.662 22.2349 163.618 22.2349 163.573 22.2349C163.573 22.2641 163.573 22.2933 163.573 22.3234C163.485 22.338 163.397 22.3526 163.306 22.3677C163.306 22.3969 163.306 22.4261 163.306 22.4561C163.266 22.4744 163.226 22.4926 163.184 22.5114C163.039 22.5804 163.039 22.5804 162.942 22.6856C162.862 22.7658 162.862 22.7658 162.728 22.7658C162.706 22.8315 162.706 22.8315 162.684 22.8986C162.653 22.9223 162.622 22.946 162.589 22.9705C162.438 23.095 162.334 23.2354 162.219 23.3928C162.197 23.4195 162.174 23.4462 162.15 23.4737C162.121 23.4737 162.092 23.4737 162.062 23.4737C162.043 23.5208 162.043 23.5208 162.024 23.5689C161.973 23.6945 161.918 23.8177 161.862 23.941C161.843 23.9821 161.824 24.0232 161.805 24.0656C161.773 24.1335 161.74 24.2008 161.703 24.2664C161.404 24.9218 161.477 25.7612 161.661 26.4379C161.724 26.5936 161.8 26.7354 161.884 26.8803C161.916 26.9474 161.949 27.0147 161.981 27.0822C162.044 27.236 162.044 27.236 162.15 27.2785C162.165 27.3223 162.18 27.3661 162.195 27.4112C162.232 27.4477 162.268 27.4842 162.306 27.5218C162.417 27.6324 162.417 27.6324 162.462 27.7652C162.52 27.7969 162.579 27.826 162.639 27.8536C162.711 27.9036 162.781 27.9554 162.851 28.0085C162.886 28.0354 162.922 28.0623 162.958 28.0901C162.999 28.1263 162.999 28.1263 163.04 28.1633C163.04 28.1925 163.04 28.2217 163.04 28.2518C163.072 28.257 163.104 28.2621 163.137 28.2674C163.265 28.2969 163.363 28.3403 163.479 28.4011C163.756 28.5428 164.017 28.6577 164.324 28.7195C164.383 28.7315 164.442 28.7452 164.5 28.7614C164.6 28.7838 164.689 28.7884 164.791 28.7885C164.83 28.7887 164.869 28.7889 164.909 28.7891C164.952 28.789 164.994 28.789 165.038 28.789C165.105 28.7892 165.105 28.7892 165.174 28.7895C165.271 28.7898 165.369 28.79 165.466 28.7902C165.621 28.7905 165.776 28.7912 165.93 28.792C166.37 28.7943 166.809 28.7965 167.248 28.7971C167.517 28.7976 167.786 28.7989 168.055 28.8007C168.157 28.8013 168.26 28.8015 168.362 28.8014C168.505 28.8013 168.649 28.8023 168.792 28.8035C168.834 28.8032 168.876 28.8029 168.919 28.8026C169.203 28.8066 169.413 28.8705 169.663 29.0039C169.663 29.0331 169.663 29.0623 169.663 29.0924C169.703 29.1075 169.703 29.1075 169.744 29.1228C169.867 29.1967 169.907 29.2769 169.974 29.4021C170.004 29.4459 170.033 29.4897 170.063 29.5348C170.073 29.6636 170.073 29.6636 170.072 29.8188C170.072 29.902 170.072 29.902 170.071 29.9868C170.07 30.0738 170.07 30.0738 170.069 30.1625C170.068 30.2216 170.068 30.2807 170.068 30.3397C170.067 30.4844 170.065 30.629 170.063 30.7736C169.955 30.8273 169.886 30.8239 169.765 30.8247C169.721 30.825 169.677 30.8254 169.632 30.8258C169.583 30.826 169.534 30.8262 169.484 30.8264C169.407 30.8269 169.407 30.8269 169.329 30.8275C169.159 30.8286 168.989 30.8293 168.818 30.8299C168.76 30.8302 168.702 30.8304 168.642 30.8307C168.396 30.8316 168.149 30.8324 167.903 30.8329C167.553 30.8337 167.203 30.8351 166.853 30.8376C166.606 30.8394 166.358 30.8402 166.111 30.8405C165.964 30.8406 165.817 30.8412 165.67 30.8426C164.3 30.8544 163.082 30.6003 161.884 29.933C161.884 29.9038 161.884 29.8746 161.884 29.8445C161.852 29.8409 161.82 29.8372 161.786 29.8335C161.635 29.7933 161.552 29.7295 161.439 29.6233C161.439 29.5941 161.439 29.5649 161.439 29.5348C161.395 29.5348 161.351 29.5348 161.306 29.5348C161.209 29.4519 161.209 29.4519 161.128 29.3579C161.128 29.3287 161.128 29.2995 161.128 29.2694C161.087 29.253 161.087 29.253 161.045 29.2362C160.933 29.1708 160.916 29.1172 160.861 29.0039C160.817 28.9893 160.773 28.9747 160.728 28.9597C160.653 28.8989 160.653 28.8989 160.595 28.827C160.595 28.7832 160.595 28.7394 160.595 28.6942C160.551 28.6796 160.507 28.665 160.461 28.65C160.461 28.6062 160.461 28.5624 160.461 28.5173C160.432 28.5173 160.403 28.5173 160.372 28.5173C159.794 27.5434 159.794 27.5434 159.661 27.0131C159.646 26.9985 159.632 26.9839 159.617 26.9688C159.4 26.1373 159.266 25.006 159.572 24.1816C159.587 24.1181 159.601 24.0545 159.614 23.9908C159.69 23.6419 159.816 23.3267 159.968 23.004C160.02 22.8957 160.02 22.8957 160.061 22.7658C160.09 22.7658 160.12 22.7658 160.15 22.7658C160.156 22.7299 160.156 22.7299 160.163 22.6933C160.204 22.558 160.271 22.4536 160.347 22.3345C160.375 22.2909 160.402 22.2473 160.43 22.2024C160.455 22.1694 160.48 22.1363 160.506 22.1022C160.535 22.1022 160.564 22.1022 160.595 22.1022C160.599 22.0757 160.604 22.0493 160.608 22.022C160.643 21.9114 160.682 21.8644 160.772 21.7925C160.802 21.7925 160.831 21.7925 160.861 21.7925C160.873 21.7661 160.885 21.7396 160.897 21.7123C160.95 21.6156 160.999 21.553 161.084 21.4828C161.113 21.4828 161.142 21.4828 161.172 21.4828C161.187 21.439 161.202 21.3952 161.217 21.3501C161.246 21.3501 161.276 21.3501 161.306 21.3501C161.306 21.3209 161.306 21.2917 161.306 21.2616C161.371 21.2046 161.371 21.2046 161.456 21.1455C161.484 21.1257 161.512 21.106 161.54 21.0857C161.617 21.0404 161.617 21.0404 161.706 21.0404C161.706 21.0112 161.706 20.982 161.706 20.9519C162 20.775 162 20.775 162.15 20.775C162.15 20.7458 162.15 20.7166 162.15 20.6865C162.263 20.6376 162.375 20.5888 162.487 20.5399C162.518 20.5263 162.549 20.5126 162.582 20.4985C162.644 20.4712 162.707 20.4438 162.77 20.4166C162.829 20.3908 162.889 20.3649 162.948 20.3387C163.086 20.2781 163.22 20.2263 163.367 20.1943C163.519 20.1726 163.519 20.1726 163.573 20.1113C164.528 19.9088 165.506 19.9305 166.478 19.9267Z" fill="white" fill-opacity="0.8"/>
<path d="M154.139 19.9302C154.17 19.9303 154.201 19.9303 154.233 19.9304C154.331 19.9307 154.429 19.9312 154.526 19.9318C154.593 19.932 154.66 19.9322 154.727 19.9324C154.89 19.9329 155.053 19.9336 155.215 19.9345C155.257 20.0677 155.262 20.1056 155.215 20.2442C155.186 20.2442 155.157 20.2442 155.126 20.2442C155.114 20.2831 155.102 20.3219 155.09 20.3619C155.041 20.4997 154.985 20.622 154.917 20.7511C154.893 20.7963 154.869 20.8416 154.845 20.8882C154.819 20.9357 154.794 20.9833 154.768 21.0323C154.742 21.0813 154.716 21.1303 154.69 21.1808C154.613 21.3259 154.537 21.4708 154.46 21.6157C154.439 21.6556 154.417 21.6954 154.396 21.7365C154.325 21.8688 154.255 22.0011 154.184 22.1332C154.096 22.2987 154.01 22.4652 153.926 22.6333C153.897 22.6333 153.868 22.6333 153.837 22.6333C153.83 22.6785 153.83 22.6785 153.823 22.7245C153.786 22.8842 153.731 23.0163 153.659 23.1642C153.615 23.1861 153.615 23.1861 153.571 23.2084C153.54 23.2817 153.51 23.3556 153.482 23.4296C153.422 23.549 153.359 23.6662 153.296 23.7836C153.278 23.817 153.26 23.8504 153.241 23.8848C153.112 24.1261 152.982 24.3669 152.851 24.6076C152.739 24.8143 152.629 25.0217 152.519 25.2293C152.389 25.475 152.256 25.7194 152.122 25.9632C152.064 26.0754 152.015 26.1874 151.97 26.3054C151.941 26.3054 151.912 26.3054 151.881 26.3054C151.869 26.3441 151.857 26.3827 151.845 26.4226C151.795 26.5627 151.737 26.6872 151.668 26.8185C151.644 26.8646 151.62 26.9107 151.595 26.9583C151.569 27.0065 151.544 27.0548 151.517 27.1045C151.491 27.1541 151.465 27.2037 151.438 27.2548C151.283 27.5488 151.126 27.8417 150.967 28.1334C150.868 28.3184 150.774 28.5061 150.681 28.6944C150.652 28.6944 150.622 28.6944 150.592 28.6944C150.57 28.8258 150.57 28.8258 150.548 28.9599C150.518 28.9599 150.489 28.9599 150.459 28.9599C150.454 28.9918 150.45 29.0237 150.445 29.0567C150.411 29.1949 150.356 29.2809 150.281 29.4023C150.224 29.5081 150.168 29.614 150.111 29.7203C149.775 30.352 149.775 30.352 149.659 30.5083C149.629 30.5083 149.6 30.5083 149.57 30.5083C149.555 30.5521 149.54 30.5959 149.525 30.6411C149.149 30.9223 148.583 30.8371 148.142 30.8291C148.056 30.8282 147.97 30.8274 147.884 30.8267C147.675 30.8247 147.467 30.8217 147.258 30.818C147.21 30.6714 147.21 30.6483 147.277 30.4973C147.3 30.4571 147.323 30.417 147.347 30.3756C147.376 30.3756 147.406 30.3756 147.436 30.3756C147.44 30.3444 147.445 30.3131 147.45 30.2809C147.485 30.1367 147.541 30.0295 147.614 29.9C147.642 29.8496 147.67 29.7992 147.698 29.7472C147.721 29.7066 147.721 29.7066 147.744 29.6652C147.828 29.5122 147.91 29.3576 147.992 29.2032C148.138 28.927 148.286 28.6518 148.436 28.3773C148.482 28.2915 148.526 28.205 148.569 28.1179C148.634 27.9917 148.704 27.8723 148.778 27.7515C148.978 27.4141 149.14 27.0597 149.303 26.7035C149.332 26.7035 149.362 26.7035 149.392 26.7035C149.404 26.6647 149.416 26.6259 149.429 26.5859C149.477 26.4481 149.534 26.3258 149.602 26.1967C149.626 26.1514 149.649 26.1062 149.674 26.0596C149.699 26.012 149.724 25.9645 149.75 25.9155C149.776 25.8665 149.802 25.8175 149.828 25.767C149.905 25.6219 149.982 25.4769 150.059 25.332C150.08 25.2922 150.101 25.2523 150.123 25.2113C150.193 25.079 150.263 24.9467 150.334 24.8146C150.423 24.6491 150.509 24.4825 150.592 24.3145C150.621 24.3145 150.651 24.3145 150.681 24.3145C150.686 24.2824 150.691 24.2504 150.696 24.2174C150.727 24.0865 150.773 23.994 150.839 23.8776C150.949 23.6833 151.057 23.4882 151.162 23.2914C151.184 23.2501 151.184 23.2501 151.206 23.208C151.254 23.1197 151.301 23.0313 151.348 22.943C151.365 22.9104 151.383 22.8778 151.401 22.8442C151.454 22.7435 151.508 22.6428 151.562 22.542C151.587 22.4955 151.587 22.4955 151.612 22.4479C151.704 22.2749 151.794 22.101 151.881 21.9254C151.911 21.9254 151.94 21.9254 151.97 21.9254C151.974 21.8707 151.974 21.8707 151.979 21.8148C152.017 21.6489 152.076 21.555 152.169 21.4156C152.284 21.2299 152.375 21.032 152.47 20.8356C152.61 20.5672 152.75 20.3782 152.993 20.2C153.022 20.2 153.051 20.2 153.082 20.2C153.082 20.1708 153.082 20.1416 153.082 20.1115C153.436 19.9666 153.756 19.9287 154.139 19.9302Z" fill="white" fill-opacity="0.8"/>
<path d="M141.835 19.9344C142.029 19.9322 142.224 19.9306 142.418 19.9296C142.484 19.9291 142.55 19.9285 142.616 19.9278C143.533 19.9173 143.533 19.9173 143.949 20.1308C143.986 20.149 144.023 20.1671 144.06 20.1859C144.146 20.2441 144.146 20.2441 144.191 20.3769C144.235 20.3915 144.279 20.4061 144.324 20.4211C144.502 20.6537 144.502 20.6537 144.502 20.8193C144.531 20.8193 144.561 20.8193 144.591 20.8193C144.627 20.8969 144.627 20.8969 144.664 20.976C144.696 21.0445 144.728 21.113 144.76 21.1815C144.776 21.2155 144.792 21.2495 144.808 21.2846C144.891 21.46 144.976 21.6288 145.08 21.7926C145.262 22.0822 145.422 22.3783 145.573 22.6846C145.67 22.8796 145.771 23.0708 145.879 23.2602C146.058 23.5763 146.058 23.5763 146.058 23.7392C146.087 23.7392 146.117 23.7392 146.147 23.7392C146.212 23.8599 146.277 23.9807 146.341 24.1015C146.36 24.1355 146.378 24.1695 146.397 24.2046C146.471 24.343 146.541 24.4773 146.599 24.6236C146.628 24.7206 146.628 24.7206 146.725 24.7568C146.772 24.8436 146.772 24.8436 146.819 24.9504C146.835 24.9854 146.851 25.0204 146.867 25.0565C146.903 25.155 146.903 25.155 146.903 25.2877C146.932 25.2877 146.961 25.2877 146.991 25.2877C147.029 25.3585 147.066 25.4295 147.103 25.5006C147.123 25.5401 147.144 25.5797 147.165 25.6204C147.214 25.7301 147.214 25.7301 147.214 25.8628C147.243 25.8628 147.272 25.8628 147.303 25.8628C147.325 25.9084 147.325 25.9084 147.348 25.955C147.368 25.9948 147.388 26.0347 147.408 26.0758C147.428 26.1153 147.447 26.1548 147.468 26.1955C147.526 26.3117 147.526 26.3117 147.614 26.438C147.646 26.5921 147.657 26.7487 147.672 26.9053C147.68 26.9685 147.68 26.9685 147.687 27.0329C147.728 27.4532 147.623 27.7753 147.428 28.1468C147.404 28.1921 147.381 28.2374 147.356 28.284C147.339 28.3172 147.321 28.3504 147.303 28.3846C147.273 28.3846 147.244 28.3846 147.214 28.3846C147.207 28.4111 147.201 28.4376 147.194 28.4648C147.174 28.5422 147.15 28.6185 147.125 28.6943C147.095 28.6943 147.066 28.6943 147.036 28.6943C147.014 28.8257 147.014 28.8257 146.991 28.9598C146.962 28.9598 146.933 28.9598 146.903 28.9598C146.896 28.9871 146.89 29.0145 146.883 29.0427C146.858 29.1367 146.858 29.1367 146.814 29.2252C146.784 29.2252 146.755 29.2252 146.725 29.2252C146.492 28.9599 146.349 28.6185 146.195 28.305C146.106 28.1259 146.014 27.9494 145.919 27.7735C145.904 27.7462 145.89 27.7189 145.875 27.6908C145.806 27.5644 145.737 27.4387 145.667 27.3137C145.643 27.2711 145.619 27.2285 145.594 27.1846C145.573 27.148 145.552 27.1113 145.53 27.0736C145.478 26.9646 145.454 26.8666 145.436 26.7477C145.406 26.7477 145.377 26.7477 145.347 26.7477C145.294 26.6474 145.243 26.5469 145.191 26.4463C145.176 26.4179 145.161 26.3894 145.146 26.3601C145.08 26.2303 145.035 26.1433 145.035 25.9956C145.006 25.9956 144.977 25.9956 144.947 25.9956C144.928 25.9591 144.91 25.9227 144.892 25.8851C144.805 25.7134 144.715 25.5433 144.624 25.3734C144.598 25.324 144.598 25.324 144.571 25.2736C144.253 24.6744 144.253 24.6744 143.917 24.0845C143.88 24.0047 143.88 24.0047 143.88 23.872C143.85 23.872 143.821 23.872 143.791 23.872C143.776 23.7844 143.761 23.6968 143.746 23.6065C143.717 23.6065 143.688 23.6065 143.657 23.6065C143.642 23.5749 143.626 23.5432 143.61 23.5106C143.409 23.1069 143.203 22.7052 142.971 22.318C142.902 22.1908 142.902 22.1908 142.902 22.058C142.872 22.058 142.843 22.058 142.813 22.058C142.798 21.9704 142.783 21.8828 142.768 21.7926C142.739 21.7926 142.71 21.7926 142.679 21.7926C142.661 21.7552 142.642 21.7178 142.623 21.6792C142.544 21.5239 142.462 21.3706 142.379 21.2175C142.228 20.9374 142.084 20.6546 141.943 20.3693C141.88 20.2399 141.88 20.2399 141.79 20.1114C141.807 20.0146 141.807 20.0146 141.835 19.9344Z" fill="white" fill-opacity="0.8"/>
<path d="M134.855 20.6867C134.892 20.7065 134.929 20.7263 134.966 20.7467C135.195 20.8767 135.407 21.0262 135.617 21.1844C135.643 21.2037 135.668 21.2231 135.695 21.243C135.758 21.2913 135.818 21.3427 135.878 21.3946C135.878 21.4238 135.878 21.453 135.878 21.4831C135.922 21.4977 135.966 21.5123 136.011 21.5273C136.011 21.5565 136.011 21.5857 136.011 21.6158C136.055 21.6304 136.099 21.645 136.145 21.66C136.205 21.7329 136.264 21.8066 136.322 21.8812C136.352 21.8958 136.381 21.9104 136.411 21.9255C136.411 21.9693 136.411 22.0131 136.411 22.0582C136.455 22.0728 136.499 22.0874 136.545 22.1024C137.284 23.0188 137.675 24.1966 137.67 25.3625C137.67 25.4169 137.67 25.4712 137.67 25.5272C137.662 26.1577 137.551 26.6978 137.3 27.2787C137.288 27.3197 137.275 27.3606 137.262 27.4028C137.207 27.5578 137.136 27.6935 137.056 27.8373C136.93 28.0648 136.93 28.0648 136.811 28.2963C136.782 28.2963 136.753 28.2963 136.723 28.2963C136.711 28.3291 136.699 28.362 136.686 28.3958C136.636 28.5127 136.585 28.5996 136.5 28.6945C136.471 28.6945 136.442 28.6945 136.411 28.6945C136.411 28.7383 136.411 28.7821 136.411 28.8272C136.328 28.924 136.328 28.924 136.234 29.0042C136.204 29.0042 136.175 29.0042 136.145 29.0042C136.13 29.048 136.115 29.0918 136.1 29.1369C136.071 29.1369 136.041 29.1369 136.011 29.1369C135.997 29.1807 135.982 29.2245 135.967 29.2696C135.937 29.2696 135.908 29.2696 135.878 29.2696C135.863 29.3134 135.849 29.3572 135.833 29.4023C135.68 29.5351 135.68 29.5351 135.567 29.5351C135.552 29.5789 135.537 29.6227 135.522 29.6678C135.393 29.758 135.277 29.8161 135.122 29.8448C135.122 29.874 135.122 29.9032 135.122 29.9332C135.049 29.9478 134.975 29.9624 134.9 29.9775C134.9 30.0067 134.9 30.0359 134.9 30.066C134.803 30.1149 134.705 30.1638 134.608 30.2125C134.581 30.2262 134.554 30.2398 134.526 30.2539C134.007 30.5134 133.479 30.6807 132.899 30.7296C132.87 30.7442 132.841 30.7588 132.811 30.7738C132.543 30.8185 132.273 30.8256 132.002 30.8271C131.946 30.8274 131.946 30.8274 131.888 30.8278C131.808 30.8282 131.728 30.8285 131.648 30.8287C131.529 30.8291 131.41 30.8305 131.29 30.8319C130.378 30.8374 129.397 30.7312 128.587 30.2872C128.465 30.2255 128.341 30.1652 128.218 30.1047C127.672 29.8366 127.672 29.8366 127.609 29.712C127.565 29.6974 127.521 29.6828 127.476 29.6678C127.476 29.6386 127.476 29.6094 127.476 29.5793C127.437 29.5607 127.437 29.5607 127.397 29.5418C126.87 29.2706 126.503 28.7376 126.187 28.252C126.187 28.2228 126.187 28.1937 126.187 28.1636C126.157 28.1636 126.128 28.1636 126.098 28.1636C125.646 27.282 125.646 27.282 125.52 26.8363C125.508 26.7989 125.496 26.7615 125.484 26.7229C125.206 25.7271 125.235 24.4148 125.699 23.4758C125.745 23.3802 125.779 23.2835 125.815 23.1836C125.902 22.963 126.02 22.7654 126.145 22.5642C126.165 22.5326 126.184 22.5009 126.204 22.4683C126.232 22.424 126.232 22.424 126.261 22.3788C126.277 22.3522 126.294 22.3256 126.312 22.2981C126.365 22.2352 126.365 22.2352 126.498 22.1909C126.531 22.1018 126.531 22.1018 126.542 22.014C126.572 22.014 126.601 22.014 126.631 22.014C126.646 21.977 126.646 21.977 126.662 21.9393C126.737 21.8073 126.832 21.7208 126.943 21.6158C126.969 21.5884 126.996 21.561 127.023 21.5328C127.051 21.5045 127.078 21.4762 127.106 21.4471C127.132 21.4204 127.158 21.3936 127.185 21.3661C127.254 21.3061 127.254 21.3061 127.343 21.3061C127.343 21.2769 127.343 21.2477 127.343 21.2176C128.043 20.6425 128.043 20.6425 128.365 20.6425C128.365 20.6133 128.365 20.5841 128.365 20.554C128.659 20.4394 128.953 20.3254 129.254 20.2299C129.346 20.2006 129.346 20.2006 129.442 20.1565C129.604 20.0975 129.768 20.0696 129.938 20.0424C129.973 20.0367 130.009 20.031 130.045 20.0251C131.675 19.7733 133.395 19.8819 134.855 20.6867ZM129.476 22.2352C129.476 22.2644 129.476 22.2936 129.476 22.3236C129.388 22.3382 129.3 22.3528 129.21 22.3679C129.21 22.3971 129.21 22.4263 129.21 22.4564C129.186 22.46 129.162 22.4637 129.137 22.4674C128.993 22.5128 128.886 22.5876 128.765 22.6776C128.765 22.7068 128.765 22.736 128.765 22.7661C128.721 22.7661 128.677 22.7661 128.632 22.7661C128.518 22.8655 128.428 22.9513 128.36 23.0868C128.321 23.1642 128.321 23.1642 128.187 23.2085C128.117 23.2929 128.055 23.3754 127.993 23.4656C127.975 23.4913 127.957 23.5169 127.939 23.5433C127.505 24.1928 127.272 25.0462 127.403 25.8233C127.472 26.1551 127.568 26.4791 127.698 26.7921C127.716 26.8359 127.733 26.8797 127.751 26.9248C127.769 26.9686 127.769 26.9686 127.787 27.0133C127.817 27.0133 127.846 27.0133 127.876 27.0133C127.905 27.1009 127.935 27.1885 127.965 27.2787C127.994 27.2787 128.024 27.2787 128.054 27.2787C128.067 27.3052 128.08 27.3317 128.093 27.3589C128.145 27.4642 128.145 27.4642 128.232 27.5884C128.261 27.5884 128.29 27.5884 128.321 27.5884C128.332 27.6141 128.343 27.6397 128.354 27.6662C128.662 28.2154 129.467 28.5614 130.049 28.7321C130.139 28.752 130.23 28.7679 130.321 28.783C130.35 28.7907 130.378 28.7984 130.408 28.8064C130.507 28.8292 130.596 28.8331 130.698 28.8336C130.738 28.8339 130.777 28.8342 130.817 28.8345C130.859 28.8345 130.901 28.8346 130.944 28.8346C130.988 28.8348 131.032 28.8349 131.076 28.8351C131.168 28.8353 131.26 28.8354 131.352 28.8354C131.493 28.8355 131.633 28.8363 131.773 28.8371C131.863 28.8373 131.952 28.8373 132.042 28.8374C132.105 28.8379 132.105 28.8379 132.169 28.8384C132.387 28.8376 132.561 28.8218 132.766 28.7387C132.829 28.7248 132.892 28.7118 132.955 28.7C133.185 28.6512 133.395 28.5644 133.611 28.4733C133.685 28.4436 133.759 28.4141 133.833 28.3848C133.833 28.3556 133.833 28.3264 133.833 28.2963C133.864 28.2857 133.895 28.2752 133.927 28.2643C134.078 28.1976 134.196 28.1114 134.328 28.0115C134.373 27.9769 134.419 27.9422 134.467 27.9066C134.604 27.8007 134.604 27.8007 134.722 27.6769C134.722 27.6331 134.722 27.5893 134.722 27.5442C134.766 27.5296 134.81 27.515 134.855 27.4999C135.003 27.3473 135.003 27.3473 135.033 27.146C135.063 27.146 135.092 27.146 135.122 27.146C135.372 26.6782 135.372 26.6782 135.522 26.1727C135.537 26.1435 135.552 26.1143 135.567 26.0842C135.63 25.4301 135.659 24.7948 135.389 24.1818C135.373 24.1447 135.357 24.1077 135.341 24.0695C135.272 23.9128 135.2 23.7591 135.122 23.6067C135.093 23.6067 135.063 23.6067 135.033 23.6067C135.03 23.582 135.026 23.5574 135.022 23.532C134.978 23.3971 134.907 23.3124 134.811 23.2085C134.782 23.2085 134.752 23.2085 134.722 23.2085C134.704 23.1688 134.704 23.1688 134.686 23.1283C134.633 23.0316 134.584 22.969 134.5 22.8988C134.47 22.8988 134.441 22.8988 134.411 22.8988C134.411 22.8696 134.411 22.8404 134.411 22.8103C133.731 22.1321 132.666 21.9077 131.739 21.9048C131.671 21.9051 131.603 21.9056 131.535 21.9061C131.5 21.9062 131.465 21.9063 131.429 21.9064C130.744 21.9093 130.118 21.9853 129.476 22.2352Z" fill="white" fill-opacity="0.8"/>
<path d="M95.5131 20.2886C95.5676 20.3092 95.6222 20.3298 95.6784 20.3511C95.9841 20.4671 96.263 20.5927 96.5355 20.7752C96.5795 20.7898 96.6235 20.8044 96.6689 20.8195C96.6689 20.8487 96.6689 20.8779 96.6689 20.9079C96.7129 20.9216 96.7129 20.9216 96.7578 20.9356C96.9388 21.0182 97.0996 21.1281 97.2468 21.2619C97.2468 21.2911 97.2468 21.3203 97.2468 21.3504C97.2825 21.3654 97.2825 21.3654 97.319 21.3808C97.5742 21.5211 97.7896 21.7337 97.9581 21.9697C97.9581 21.9989 97.9581 22.0281 97.9581 22.0582C97.9874 22.0582 98.0167 22.0582 98.047 22.0582C98.0616 22.1166 98.0763 22.175 98.0914 22.2352C98.1208 22.2352 98.1501 22.2352 98.1803 22.2352C98.3581 22.4694 98.3581 22.4694 98.3581 22.6334C98.3875 22.6334 98.4168 22.6334 98.4471 22.6334C98.5038 22.7439 98.5602 22.8545 98.6165 22.9652C98.6324 22.996 98.6482 23.0268 98.6646 23.0585C98.8404 23.4053 98.9659 23.7634 99.0694 24.1376C99.082 24.178 99.0945 24.2183 99.1074 24.2599C99.3268 25.0758 99.2608 25.9883 99.025 26.7921C99.0106 26.8523 99.0106 26.8523 98.996 26.9138C98.9035 27.2794 98.7097 27.6099 98.536 27.9424C98.5062 28.0013 98.4764 28.0602 98.4471 28.1194C98.4177 28.1194 98.3884 28.1194 98.3581 28.1194C98.3535 28.1442 98.3489 28.1691 98.3441 28.1947C98.3081 28.3151 98.2531 28.4022 98.1831 28.5065C98.1598 28.5418 98.1365 28.5772 98.1124 28.6136C98.0908 28.6403 98.0692 28.667 98.047 28.6945C98.0176 28.6945 97.9883 28.6945 97.9581 28.6945C97.9429 28.7301 97.9429 28.7301 97.9275 28.7664C97.7865 29.0204 97.5728 29.2347 97.3357 29.4024C97.3064 29.4024 97.277 29.4024 97.2468 29.4024C97.2321 29.4462 97.2174 29.49 97.2023 29.5351C97.0864 29.6825 96.9213 29.759 96.7578 29.8448C96.7284 29.8448 96.6991 29.8448 96.6689 29.8448C96.6689 29.874 96.6689 29.9032 96.6689 29.9333C96.6308 29.9519 96.5927 29.9705 96.5534 29.9896C96.3558 30.0894 96.1641 30.199 95.9717 30.3083C95.8158 30.3796 95.6831 30.4041 95.5131 30.4199C95.5131 30.4491 95.5131 30.4783 95.5131 30.5084C94.6877 30.7316 93.8906 30.8432 93.0347 30.8375C92.9941 30.8374 92.9535 30.8373 92.9117 30.8372C92.2823 30.8349 91.6796 30.7989 91.0676 30.6411C91.0257 30.6306 90.9838 30.62 90.9406 30.6092C90.6926 30.5447 90.4779 30.466 90.2513 30.3465C90.0403 30.2398 89.82 30.1541 89.6006 30.066C89.6006 30.0368 89.6006 30.0076 89.6006 29.9775C89.5419 29.9629 89.4833 29.9483 89.4228 29.9333C89.4228 29.9041 89.4228 29.8749 89.4228 29.8448C89.3733 29.8379 89.3733 29.8379 89.3228 29.831C89.1918 29.7984 89.1212 29.7586 89.0227 29.6678C89.0227 29.6386 89.0227 29.6094 89.0227 29.5793C88.9969 29.5671 88.971 29.5549 88.9444 29.5424C88.6297 29.3795 88.3997 29.1423 88.1781 28.8715C88.1423 28.8295 88.1066 28.7875 88.0697 28.7443C88.0003 28.6503 88.0003 28.6503 88.0003 28.5618C87.9709 28.5618 87.9416 28.5618 87.9114 28.5618C87.8893 28.4742 87.8893 28.4742 87.8669 28.3848C87.8376 28.3848 87.8082 28.3848 87.778 28.3848C87.7519 28.3314 87.7519 28.3314 87.7252 28.277C87.6654 28.1599 87.6037 28.0457 87.539 27.9313C87.5 27.8614 87.4611 27.7913 87.4224 27.7212C87.4034 27.687 87.3844 27.6527 87.3649 27.6175C87.2089 27.3233 87.1084 27.0245 87.0223 26.7036C87.0089 26.6582 86.9954 26.6128 86.9816 26.5661C86.8803 26.1646 86.8759 25.7657 86.875 25.3542C86.8748 25.2962 86.8745 25.2381 86.8743 25.1782C86.8763 24.9021 86.8849 24.6635 86.9778 24.403C87.0002 24.2874 87.0189 24.1715 87.0374 24.0552C87.1128 23.6985 87.2318 23.3822 87.4057 23.062C87.425 23.026 87.4443 22.99 87.4642 22.9529C87.6342 22.6415 87.8162 22.3312 88.0447 22.0582C88.0741 22.0582 88.1034 22.0582 88.1336 22.0582C88.1437 22.0345 88.1538 22.0108 88.1642 21.9863C88.4221 21.5218 88.9137 21.2122 89.3339 20.9079C89.3663 20.8837 89.3986 20.8595 89.432 20.8345C90.9836 19.7273 93.7779 19.5658 95.5131 20.2886ZM90.1341 22.8103C90.1341 22.8395 90.1341 22.8687 90.1341 22.8988C90.1066 22.9098 90.0791 22.9207 90.0507 22.932C89.939 22.9974 89.9224 23.051 89.8673 23.1643C89.8233 23.1789 89.7793 23.1935 89.734 23.2085C89.5307 23.3771 89.4274 23.6358 89.3117 23.8666C89.2855 23.9185 89.2594 23.9704 89.2325 24.0239C88.8933 24.7252 88.8382 25.5023 89.0227 26.2612C89.0876 26.4428 89.1643 26.617 89.245 26.7921C89.275 26.8657 89.3048 26.9394 89.3339 27.0133C89.3632 27.0133 89.3926 27.0133 89.4228 27.0133C89.4251 27.0442 89.4274 27.075 89.4297 27.1068C89.4805 27.2797 89.588 27.3828 89.7118 27.5083C89.9524 27.7577 89.9524 27.7577 90.0007 27.8539C90.0447 27.8539 90.0887 27.8539 90.1341 27.8539C90.1487 27.8977 90.1634 27.9415 90.1785 27.9866C90.2819 28.0778 90.2819 28.0778 90.4008 28.1636C90.432 28.1891 90.4631 28.2147 90.4953 28.241C90.5804 28.3086 90.5804 28.3086 90.712 28.2963C90.712 28.3255 90.712 28.3547 90.712 28.3848C90.8 28.3994 90.888 28.414 90.9787 28.429C90.9787 28.4582 90.9787 28.4874 90.9787 28.5175C91.2726 28.6301 91.5592 28.7216 91.8678 28.783C91.8949 28.7905 91.922 28.798 91.95 28.8058C92.0501 28.8282 92.1386 28.8331 92.2411 28.8337C92.2794 28.8339 92.3177 28.8342 92.3571 28.8345C92.3982 28.8346 92.4392 28.8346 92.4815 28.8347C92.524 28.8348 92.5665 28.835 92.6104 28.8351C92.7003 28.8353 92.7902 28.8354 92.8801 28.8354C93.0172 28.8355 93.1544 28.8363 93.2916 28.8372C93.379 28.8373 93.4665 28.8374 93.5539 28.8374C93.6152 28.8379 93.6152 28.8379 93.6777 28.8384C93.8935 28.8376 94.0653 28.8201 94.2683 28.7387C94.3348 28.7265 94.4015 28.7154 94.4684 28.7056C95.0316 28.5948 95.5232 28.3077 95.9576 27.9424C95.9576 27.9132 95.9576 27.884 95.9576 27.8539C95.9841 27.8424 96.0107 27.831 96.038 27.8192C96.1427 27.7614 96.1969 27.7055 96.2716 27.6133C96.3352 27.5356 96.3968 27.4609 96.4692 27.3911C96.7045 27.1496 96.8321 26.8256 96.9495 26.5156C96.9608 26.4858 96.9721 26.456 96.9838 26.4253C97.109 26.0822 97.1215 25.7678 97.1218 25.4068C97.1223 25.3628 97.1228 25.3188 97.1234 25.2735C97.1239 25.0003 97.0973 24.7548 97.0245 24.4915C97.0081 24.429 97.0081 24.429 96.9913 24.3652C96.9302 24.1599 96.8624 23.9721 96.7578 23.7837C96.7284 23.7837 96.6991 23.7837 96.6689 23.7837C96.6641 23.7586 96.6594 23.7335 96.6545 23.7076C96.5799 23.4572 96.3812 23.1961 96.1799 23.0315C96.1505 23.0315 96.1212 23.0315 96.091 23.0315C96.0763 22.9877 96.0616 22.9439 96.0465 22.8988C96.0172 22.8988 95.9878 22.8988 95.9576 22.8988C95.9576 22.8696 95.9576 22.8404 95.9576 22.8103C95.8989 22.7957 95.8402 22.7811 95.7798 22.7661C95.7798 22.7369 95.7798 22.7077 95.7798 22.6776C95.7064 22.6484 95.6331 22.6192 95.5575 22.5891C95.5575 22.5599 95.5575 22.5307 95.5575 22.5006C94.7433 22.0799 93.9757 21.8984 93.057 21.9061C93.0231 21.9063 92.9893 21.9064 92.9544 21.9066C91.8944 21.9128 90.9633 22.113 90.1341 22.8103Z" fill="white" fill-opacity="0.8"/>
<path d="M64.8343 19.9289C64.8635 19.9288 64.8926 19.9288 64.9226 19.9288C64.984 19.9287 65.0453 19.9288 65.1067 19.929C65.2007 19.9292 65.2948 19.929 65.3888 19.9287C65.4485 19.9287 65.5082 19.9288 65.5678 19.9289C65.6221 19.9289 65.6764 19.929 65.7323 19.929C65.862 19.9348 65.862 19.9348 65.9509 19.979C65.9551 20.7655 65.9582 21.5521 65.9601 22.3386C65.961 22.7039 65.9623 23.0692 65.9643 23.4345C65.9661 23.7533 65.9673 24.0721 65.9676 24.3909C65.9679 24.5593 65.9684 24.7278 65.9697 24.8962C65.9774 25.9267 65.909 26.8656 65.4619 27.8098C65.4455 27.8454 65.429 27.881 65.4121 27.9176C65.2799 28.1938 65.1275 28.4602 64.9285 28.6946C64.8991 28.6946 64.8698 28.6946 64.8396 28.6946C64.8249 28.753 64.8102 28.8114 64.7951 28.8716C64.7658 28.8716 64.7364 28.8716 64.7062 28.8716C64.6961 28.8962 64.686 28.9209 64.6756 28.9463C64.5314 29.1991 64.2683 29.3848 64.0529 29.5757C63.9532 29.6631 63.9532 29.6631 63.8777 29.7445C63.7921 29.8239 63.7084 29.8297 63.5948 29.8449C63.5948 29.8741 63.5948 29.9033 63.5948 29.9334C63.4823 30.0092 63.3705 30.0786 63.2531 30.1463C63.2014 30.1763 63.2014 30.1763 63.1487 30.2068C62.8624 30.3692 62.573 30.4912 62.2612 30.597C62.2079 30.6171 62.1546 30.6371 62.0997 30.6577C61.8258 30.7599 61.576 30.845 61.2832 30.8625C61.1837 30.6644 61.2305 30.3915 61.2304 30.174C61.2299 30.1186 61.2293 30.0633 61.2288 30.0063C61.2281 29.5754 61.2279 29.1509 61.5499 28.8274C61.7849 28.6376 62.0404 28.488 62.3067 28.3466C62.4196 28.2822 62.5163 28.2014 62.6168 28.1195C62.6462 28.1195 62.6755 28.1195 62.7057 28.1195C62.7204 28.0757 62.7351 28.0319 62.7502 27.9868C62.7795 27.9868 62.8089 27.9868 62.8391 27.9868C62.8538 27.943 62.8684 27.8992 62.8836 27.854C62.9576 27.7951 63.0317 27.7361 63.1058 27.6771C63.1205 27.6333 63.1352 27.5895 63.1503 27.5444C63.1796 27.5444 63.209 27.5444 63.2392 27.5444C63.2572 27.5084 63.2572 27.5084 63.2755 27.4718C63.3134 27.3965 63.3518 27.3214 63.3904 27.2464C63.6756 26.689 63.8306 26.2138 63.8292 25.5864C63.8294 25.533 63.8296 25.4795 63.8299 25.4245C63.8304 25.2789 63.8306 25.1333 63.8307 24.9877C63.8309 24.8347 63.8317 24.6818 63.8325 24.5289C63.8346 24.0745 63.836 23.6201 63.837 23.1657C63.8377 22.8121 63.8387 22.4586 63.8407 22.1051C63.8415 21.9531 63.842 21.8012 63.8419 21.6492C63.8419 21.4796 63.8428 21.3101 63.8437 21.1406C63.8435 21.0907 63.8433 21.0408 63.8431 20.9894C63.846 20.6818 63.859 20.3909 64.0795 20.1534C64.1243 20.1232 64.1243 20.1232 64.17 20.0924C64.2146 20.061 64.2146 20.061 64.2601 20.0289C64.4469 19.9258 64.6232 19.9291 64.8343 19.9289Z" fill="white" fill-opacity="0.8"/>
<path d="M54.6595 19.9346C54.7871 19.9175 54.7871 19.9175 54.949 19.917C55.0367 19.9168 55.0367 19.9168 55.1262 19.9165C55.1721 19.9169 55.1721 19.9169 55.219 19.9173C55.3114 19.9181 55.4037 19.9174 55.4961 19.9165C55.5555 19.9166 55.6148 19.9168 55.6742 19.917C55.7279 19.9172 55.7815 19.9173 55.8368 19.9175C56.1324 19.9499 56.3292 20.064 56.5266 20.2886C56.6232 20.4327 56.6268 20.4734 56.6276 20.6401C56.6283 20.7078 56.6283 20.7078 56.6289 20.7769C56.629 20.8264 56.629 20.8759 56.629 20.9269C56.6294 20.9791 56.6298 21.0313 56.6301 21.085C56.6311 21.2282 56.6317 21.3713 56.6321 21.5145C56.6326 21.6644 56.6337 21.8144 56.6347 21.9643C56.6365 22.2487 56.638 22.533 56.6392 22.8173C56.6415 23.3259 56.6443 23.8344 56.6475 24.343C56.6484 24.4922 56.6492 24.6413 56.6498 24.7905C56.6504 24.9571 56.6513 25.1237 56.6523 25.2903C56.6524 25.3394 56.6525 25.3886 56.6526 25.4392C56.6278 25.8284 56.6278 25.8284 56.7489 26.1727C56.7622 26.2389 56.774 26.3053 56.785 26.3718C56.8298 26.6047 56.9106 26.8017 57.0156 27.0133C57.0367 27.059 57.0578 27.1046 57.0795 27.1516C57.1372 27.2573 57.1974 27.3481 57.2685 27.4447C57.3713 27.5885 57.3713 27.5885 57.3713 27.677C57.4153 27.6916 57.4593 27.7062 57.5046 27.7212C57.5046 27.7504 57.5046 27.7796 57.5046 27.8097C57.5486 27.8243 57.5927 27.8389 57.638 27.8539C57.713 27.9175 57.713 27.9175 57.7714 27.9867C57.7714 28.0159 57.7714 28.0451 57.7714 28.0751C57.8447 28.1043 57.9181 28.1335 57.9936 28.1636C57.9936 28.1928 57.9936 28.222 57.9936 28.2521C58.0523 28.2667 58.111 28.2813 58.1714 28.2964C58.1714 28.3256 58.1714 28.3548 58.1714 28.3848C58.1951 28.389 58.2187 28.3932 58.243 28.3975C58.3841 28.4395 58.4998 28.5076 58.6271 28.5812C58.675 28.6085 58.7229 28.6358 58.7723 28.6639C58.8087 28.6886 58.8452 28.7133 58.8827 28.7388C58.8827 28.768 58.8827 28.7972 58.8827 28.8273C58.9267 28.8419 58.9707 28.8565 59.0161 28.8715C59.0627 28.9474 59.1092 29.0235 59.151 29.102C59.1982 29.1921 59.1982 29.1921 59.2828 29.3139C59.2904 29.4296 59.2931 29.5404 59.2915 29.6559C59.2914 29.6891 59.2912 29.7223 59.2911 29.7565C59.2906 29.8625 59.2895 29.9684 59.2884 30.0743C59.2879 30.1462 59.2875 30.2181 59.2872 30.2899C59.2862 30.466 59.2846 30.6421 59.2828 30.8181C58.9975 30.9128 58.688 30.757 58.4227 30.6455C58.3278 30.6064 58.2331 30.571 58.1365 30.5363C57.9429 30.4645 57.7606 30.3754 57.5769 30.2817C57.5453 30.2658 57.5137 30.2499 57.4812 30.2335C57.4 30.1926 57.319 30.1514 57.2379 30.1103C57.2086 30.0957 57.1792 30.0811 57.149 30.066C57.149 30.0368 57.149 30.0076 57.149 29.9775C57.0756 29.9629 57.0023 29.9483 56.9267 29.9333C56.9267 29.9041 56.9267 29.8749 56.9267 29.8448C56.868 29.8302 56.8094 29.8156 56.7489 29.8006C56.7489 29.7714 56.7489 29.7422 56.7489 29.7121C56.7159 29.7002 56.6829 29.6884 56.6489 29.6761C56.5315 29.6257 56.4441 29.5752 56.3488 29.4909C56.3488 29.4617 56.3488 29.4325 56.3488 29.4024C56.3048 29.3878 56.2608 29.3732 56.2155 29.3582C56.2155 29.329 56.2155 29.2998 56.2155 29.2697C56.1889 29.2578 56.1623 29.2459 56.1349 29.2337C56.0377 29.1812 55.9748 29.1327 55.9043 29.0485C55.9043 29.0193 55.9043 28.9901 55.9043 28.96C55.8603 28.9454 55.8163 28.9308 55.7709 28.9157C55.694 28.8213 55.6235 28.7279 55.5542 28.6282C55.5244 28.5858 55.5244 28.5858 55.494 28.5427C54.7742 27.5084 54.5637 26.4235 54.5642 25.1825C54.564 25.1269 54.5639 25.0714 54.5637 25.0141C54.5634 24.864 54.5632 24.7138 54.5632 24.5637C54.5632 24.4697 54.5631 24.3757 54.563 24.2817C54.5625 23.9534 54.5624 23.6251 54.5624 23.2968C54.5624 22.9912 54.562 22.6856 54.5613 22.3799C54.5607 22.1167 54.5604 21.8534 54.5605 21.5901C54.5605 21.4332 54.5603 21.2763 54.5599 21.1194C54.5594 20.9451 54.5596 20.7708 54.5598 20.5965C54.5596 20.5446 54.5593 20.4927 54.5591 20.4392C54.5593 20.3919 54.5595 20.3446 54.5596 20.2958C54.5596 20.2547 54.5596 20.2135 54.5596 20.1711C54.5706 20.0674 54.5706 20.0674 54.6595 19.9346Z" fill="white" fill-opacity="0.8"/>
<path d="M44.8737 19.9264C45.0142 19.9263 45.1547 19.9255 45.2952 19.9247C46.889 19.9203 46.889 19.9203 47.5469 20.2885C47.6339 20.3356 47.721 20.3826 47.808 20.4295C47.884 20.471 47.96 20.5124 48.0359 20.554C48.0359 20.5832 48.0359 20.6124 48.0359 20.6425C48.067 20.6525 48.0982 20.6625 48.1303 20.6729C48.399 20.7949 48.5788 21.001 48.7527 21.2314C48.772 21.2568 48.7913 21.2821 48.8112 21.3082C48.9495 21.4929 49.0559 21.6702 49.1472 21.8812C49.1702 21.9269 49.1931 21.9725 49.2167 22.0195C49.5043 22.7163 49.5179 23.6144 49.2254 24.3138C49.1889 24.3865 49.151 24.4584 49.1109 24.5292C49.0544 24.626 49.0544 24.626 49.0127 24.7442C48.9694 24.8454 48.9694 24.8454 48.8805 24.8897C48.8658 24.9335 48.8512 24.9773 48.8361 25.0224C48.763 25.0971 48.6887 25.1707 48.6138 25.2436C48.5711 25.2997 48.5711 25.2997 48.5277 25.357C48.4217 25.4816 48.307 25.5543 48.1692 25.6418C48.1484 25.6628 48.1275 25.6839 48.106 25.7056C47.8705 25.937 47.5483 26.0663 47.244 26.1837C47.2167 26.1946 47.1894 26.2055 47.1613 26.2167C46.532 26.4491 45.8549 26.4055 45.1955 26.4025C45.0887 26.4024 44.9818 26.4022 44.875 26.4022C44.5956 26.4018 44.3163 26.401 44.0369 26.4C43.7511 26.3991 43.4653 26.3987 43.1795 26.3982C42.62 26.3973 42.0605 26.3958 41.5011 26.3939C41.302 26.0295 41.3926 25.4988 41.5011 25.1109C41.5678 24.9699 41.5678 24.9699 41.6344 24.8897C41.6638 24.8897 41.6931 24.8897 41.7233 24.8897C41.7674 24.8021 41.7674 24.8021 41.8123 24.7127C41.8416 24.7127 41.8709 24.7127 41.9012 24.7127C41.9012 24.6835 41.9012 24.6543 41.9012 24.6242C41.9536 24.5951 42.0065 24.5666 42.0595 24.5385C42.1036 24.5146 42.1036 24.5146 42.1486 24.4903C42.3944 24.3925 42.6613 24.3963 42.9227 24.3953C42.9567 24.395 42.9908 24.3947 43.0258 24.3944C43.0992 24.3938 43.1725 24.3933 43.2459 24.3928C43.3624 24.3921 43.4789 24.3911 43.5954 24.39C43.9264 24.3869 44.2574 24.3842 44.5885 24.3819C44.7914 24.3805 44.9944 24.3787 45.1974 24.3766C45.2744 24.3759 45.3513 24.3753 45.4282 24.375C46.1619 24.388 46.1619 24.388 46.8356 24.1376C46.9347 24.0254 46.9347 24.0254 47.0134 23.9164C47.0428 23.9018 47.0721 23.8872 47.1023 23.8721C47.3037 23.59 47.3605 23.2054 47.3052 22.8656C47.2332 22.6123 47.0578 22.3541 46.8255 22.2239C46.7995 22.213 46.7735 22.2021 46.7467 22.1909C46.7467 22.1617 46.7467 22.1325 46.7467 22.1024C46.6847 22.0886 46.6226 22.0748 46.5605 22.061C46.526 22.0533 46.4914 22.0456 46.4558 22.0376C46.4198 22.0298 46.3837 22.022 46.3466 22.014C46.3133 22.0063 46.28 21.9987 46.2456 21.9908C46.1126 21.9677 45.9877 21.9631 45.8527 21.9619C45.7988 21.9613 45.7449 21.9607 45.6893 21.9602C45.6312 21.9598 45.573 21.9595 45.5131 21.9592C45.4681 21.9589 45.4681 21.9589 45.4221 21.9586C45.2625 21.9577 45.1029 21.9571 44.9433 21.9567C44.8132 21.9563 44.6831 21.9554 44.553 21.9539C43.3206 21.9408 42.1195 21.978 41.1427 22.8297C41.0121 22.943 41.0121 22.943 40.9232 22.943C40.9012 23.0087 40.9012 23.0087 40.8787 23.0758C40.8494 23.0758 40.82 23.0758 40.7898 23.0758C40.7788 23.1004 40.7678 23.125 40.7565 23.1504C40.7009 23.2527 40.7009 23.2527 40.6092 23.3661C40.5158 23.4704 40.5158 23.4704 40.4786 23.6067C40.4346 23.6286 40.4346 23.6286 40.3897 23.6509C40.3343 23.7636 40.2832 23.8756 40.2341 23.991C40.2204 24.0223 40.2067 24.0537 40.1926 24.086C39.8972 24.7692 39.8019 25.684 40.0785 26.3939C40.0904 26.4266 40.1023 26.4593 40.1145 26.4929C40.234 26.8102 40.3883 27.1063 40.5979 27.3745C40.6564 27.4557 40.6564 27.4557 40.6564 27.5442C40.7004 27.5588 40.7445 27.5734 40.7898 27.5884C40.7898 27.6176 40.7898 27.6468 40.7898 27.6769C40.8338 27.6915 40.8778 27.7061 40.9232 27.7211C40.9982 27.7847 40.9982 27.7847 41.0565 27.8539C41.0565 27.8831 41.0565 27.9123 41.0565 27.9424C41.0895 27.9539 41.1224 27.9655 41.1564 27.9774C41.2799 28.0313 41.3582 28.0898 41.4594 28.1774C41.6895 28.3615 41.9377 28.4598 42.2123 28.5617C42.2501 28.5774 42.2879 28.593 42.3268 28.6091C42.4304 28.6486 42.5289 28.6749 42.6374 28.6972C42.8303 28.7375 42.8303 28.7375 42.9175 28.7618C43.0175 28.7841 43.1056 28.7885 43.2081 28.7885C43.247 28.7886 43.2859 28.7887 43.3259 28.7888C43.3682 28.7887 43.4105 28.7886 43.4541 28.7885C43.499 28.7886 43.5438 28.7887 43.59 28.7888C43.6874 28.789 43.7848 28.789 43.8822 28.7891C44.0895 28.7892 44.2969 28.7902 44.5042 28.7911C44.8902 28.7927 45.2762 28.7941 45.6622 28.794C45.9308 28.794 46.1993 28.795 46.4679 28.7968C46.57 28.7972 46.6721 28.7973 46.7742 28.797C46.9176 28.7965 47.0608 28.7975 47.2041 28.7987C47.2459 28.7983 47.2877 28.7978 47.3307 28.7974C47.6806 28.8028 47.9851 28.9059 48.2331 29.159C48.2561 29.1955 48.279 29.232 48.3026 29.2696C48.3274 29.3043 48.3521 29.339 48.3776 29.3747C48.5161 29.6503 48.4872 29.9778 48.486 30.2789C48.4861 30.3211 48.4863 30.3632 48.4865 30.4067C48.4864 30.467 48.4864 30.467 48.4863 30.5286C48.4863 30.5651 48.4862 30.6016 48.4862 30.6392C48.4804 30.7296 48.4804 30.7296 48.436 30.8181C47.7357 30.8233 47.0354 30.8272 46.3351 30.8295C46.0098 30.8307 45.6845 30.8322 45.3592 30.8348C45.0752 30.837 44.7911 30.8384 44.507 30.8389C44.3571 30.8392 44.2072 30.8399 44.0573 30.8415C43.1878 30.8499 42.3726 30.7803 41.5466 30.495C41.4515 30.4624 41.3556 30.4327 41.2594 30.4033C41.0658 30.3397 40.8886 30.2523 40.7082 30.1583C40.6081 30.1054 40.6081 30.1054 40.4786 30.066C40.4786 30.0368 40.4786 30.0076 40.4786 29.9775C40.4522 29.9721 40.4258 29.9667 40.3986 29.9611C40.2445 29.9172 40.1256 29.8191 39.998 29.7259C39.97 29.7056 39.9421 29.6854 39.9134 29.6645C39.8347 29.607 39.7565 29.5491 39.6784 29.4908C39.6468 29.4673 39.6152 29.4438 39.5826 29.4196C39.3408 29.2267 39.1579 28.9798 38.9672 28.7387C38.925 28.6878 38.925 28.6878 38.8819 28.6359C38.1237 27.7081 37.7057 26.3009 37.8114 25.1109C37.8891 24.4535 38.0343 23.832 38.2559 23.2085C38.2852 23.2085 38.3146 23.2085 38.3448 23.2085C38.3493 23.17 38.3539 23.1316 38.3585 23.092C38.3913 22.9333 38.4447 22.8232 38.5254 22.6831C38.5498 22.6403 38.5741 22.5976 38.5992 22.5535C38.6179 22.5214 38.6367 22.4894 38.656 22.4564C38.6853 22.4564 38.7147 22.4564 38.7449 22.4564C38.7541 22.4272 38.7632 22.398 38.7727 22.3679C38.8556 22.1877 38.9661 22.0278 39.1005 21.8812C39.1299 21.8812 39.1592 21.8812 39.1894 21.8812C39.2 21.8564 39.2105 21.8315 39.2214 21.8059C39.2912 21.6813 39.3768 21.5946 39.4784 21.4941C39.5137 21.4588 39.549 21.4234 39.5854 21.387C39.6784 21.3061 39.6784 21.3061 39.7673 21.3061C39.7673 21.2769 39.7673 21.2477 39.7673 21.2176C40.4674 20.6425 40.4674 20.6425 40.7898 20.6425C40.7898 20.6133 40.7898 20.5841 40.7898 20.554C41.6317 20.2208 42.4144 19.9867 43.3261 19.9534C43.3722 19.9516 43.4182 19.9499 43.4657 19.948C43.9349 19.9313 44.4041 19.9264 44.8737 19.9264Z" fill="white" fill-opacity="0.8"/>
<path d="M106.998 14.873C107.059 14.8721 107.12 14.8706 107.182 14.8685C107.586 14.8548 107.916 14.8735 108.227 15.1564C108.249 15.2221 108.249 15.2221 108.271 15.2891C108.315 15.3037 108.359 15.3183 108.405 15.3334C108.531 15.5301 108.555 15.6835 108.555 15.9142C108.555 15.9603 108.555 15.9603 108.555 16.0073C108.556 16.1098 108.555 16.2122 108.555 16.3147C108.555 16.3884 108.555 16.4622 108.555 16.5359C108.555 16.6946 108.555 16.8532 108.555 17.0119C108.555 17.2638 108.555 17.5158 108.556 17.7677C108.557 18.3942 108.558 19.0207 108.558 19.6472C108.558 20.1329 108.558 20.6187 108.559 21.1044C108.56 21.3133 108.56 21.5222 108.56 21.731C108.556 23.1101 108.63 24.3558 109.278 25.6021C109.339 25.7311 109.385 25.8596 109.427 25.9957C109.457 25.9957 109.486 25.9957 109.516 25.9957C109.694 26.2943 109.694 26.2943 109.694 26.3938C109.738 26.4084 109.782 26.423 109.827 26.4381C109.827 26.4819 109.827 26.5257 109.827 26.5708C109.871 26.5854 109.915 26.6 109.961 26.615C110.021 26.6884 110.08 26.7622 110.139 26.8362C110.179 26.8673 110.219 26.8983 110.261 26.9303C110.294 26.9576 110.327 26.985 110.361 27.0132C110.361 27.057 110.361 27.1008 110.361 27.1459C110.401 27.1651 110.401 27.1651 110.441 27.1847C110.539 27.2344 110.539 27.2344 110.672 27.3229C110.672 27.3521 110.672 27.3813 110.672 27.4114C110.697 27.423 110.722 27.4347 110.748 27.4466C110.858 27.5041 110.953 27.5709 111.053 27.6437C111.287 27.8083 111.529 27.944 111.783 28.075C111.847 28.1093 111.847 28.1093 111.913 28.1443C112.231 28.3108 112.549 28.4202 112.895 28.5174C112.951 28.5358 112.951 28.5358 113.008 28.5546C113.275 28.642 113.541 28.6842 113.819 28.7196C113.962 28.7386 113.962 28.7386 114.056 28.7616C114.235 28.7914 114.41 28.7893 114.591 28.7892C114.632 28.7893 114.672 28.7895 114.714 28.7896C114.802 28.79 114.891 28.7902 114.979 28.7903C115.118 28.7907 115.258 28.7914 115.397 28.7922C115.794 28.7945 116.191 28.7966 116.588 28.7973C116.831 28.7978 117.074 28.7991 117.317 28.8009C117.409 28.8014 117.502 28.8017 117.594 28.8016C117.724 28.8015 117.853 28.8025 117.983 28.8037C118.02 28.8034 118.058 28.8031 118.097 28.8028C118.363 28.8069 118.533 28.8717 118.763 29.0041C118.763 29.0333 118.763 29.0625 118.763 29.0926C118.807 29.1072 118.851 29.1218 118.896 29.1368C118.896 29.166 118.896 29.1952 118.896 29.2253C118.925 29.2253 118.955 29.2253 118.985 29.2253C119.189 29.546 119.186 29.823 119.177 30.1959C119.176 30.2509 119.176 30.3059 119.175 30.3625C119.17 30.7663 119.17 30.7663 119.118 30.818C119.057 30.8225 118.996 30.824 118.934 30.8242C118.895 30.8245 118.855 30.8247 118.814 30.825C118.77 30.825 118.726 30.8251 118.681 30.8251C118.612 30.8255 118.612 30.8255 118.541 30.8258C118.387 30.8265 118.234 30.8268 118.08 30.827C117.973 30.8273 117.866 30.8275 117.759 30.8278C117.533 30.8282 117.308 30.8285 117.082 30.8286C116.796 30.8289 116.509 30.8299 116.223 30.8312C116.001 30.832 115.779 30.8323 115.557 30.8323C115.451 30.8325 115.346 30.8328 115.241 30.8334C114.048 30.8396 112.847 30.7311 111.735 30.2771C111.65 30.243 111.565 30.2109 111.479 30.1793C110.937 29.9765 110.459 29.6928 109.974 29.3777C109.876 29.3133 109.876 29.3133 109.78 29.272C109.672 29.2133 109.602 29.1365 109.516 29.0483C109.444 28.9884 109.371 28.9294 109.297 28.8714C109.26 28.8422 109.223 28.813 109.184 28.7829C109.107 28.7222 109.03 28.6618 108.952 28.6016C108.84 28.5097 108.761 28.41 108.672 28.2962C108.638 28.2626 108.603 28.229 108.568 28.1944C108.365 27.9908 108.187 27.7662 108.005 27.5441C107.975 27.5081 107.945 27.4721 107.915 27.4351C107.739 27.2176 107.601 26.9944 107.471 26.7478C107.435 26.6832 107.399 26.6186 107.363 26.5542C107.345 26.5216 107.327 26.489 107.308 26.4554C107.265 26.3791 107.222 26.303 107.179 26.2272C107.053 26.0038 106.957 25.8029 106.893 25.5532C106.866 25.4885 106.838 25.424 106.81 25.3597C106.678 25.0375 106.611 24.698 106.538 24.3587C106.528 24.3158 106.518 24.2728 106.508 24.2286C106.377 23.5944 106.398 22.9285 106.399 22.2839C106.399 22.2032 106.398 22.1226 106.398 22.0419C106.398 21.8254 106.398 21.6089 106.398 21.3924C106.399 21.1652 106.398 20.9379 106.398 20.7107C106.398 20.33 106.398 19.9494 106.399 19.5687C106.399 19.1283 106.399 18.6879 106.399 18.2474C106.398 17.8685 106.398 17.4896 106.398 17.1107C106.398 16.8847 106.398 16.6587 106.398 16.4327C106.398 16.2209 106.398 16.0091 106.399 15.7973C106.399 15.7194 106.399 15.6415 106.398 15.5636C106.398 15.4578 106.399 15.352 106.399 15.2462C106.399 15.215 106.399 15.1838 106.398 15.1516C106.4 14.7711 106.672 14.8768 106.998 14.873Z" fill="white" fill-opacity="0.8"/>
<path d="M15.2677 14.8836C15.3371 14.8829 15.3371 14.8829 15.408 14.8823C15.4585 14.8821 15.5089 14.8819 15.5609 14.8817C15.6125 14.8814 15.6641 14.8812 15.7173 14.8809C15.8268 14.8805 15.9364 14.8802 16.0459 14.8801C16.2132 14.8796 16.3805 14.8783 16.5479 14.8769C16.6542 14.8766 16.7605 14.8763 16.8668 14.8762C16.9418 14.8753 16.9418 14.8753 17.0184 14.8745C17.3088 14.8753 17.5271 14.8862 17.7486 15.0939C17.7772 15.131 17.7772 15.131 17.8064 15.1688C17.8276 15.1959 17.8488 15.223 17.8707 15.2509C17.8917 15.279 17.9128 15.307 17.9346 15.3359C17.9567 15.3641 17.9788 15.3923 18.0016 15.4213C18.1624 15.6299 18.1624 15.6299 18.1624 15.7313C18.1917 15.7313 18.2211 15.7313 18.2513 15.7313C18.2733 15.8189 18.2733 15.8189 18.2957 15.9082C18.3251 15.9082 18.3544 15.9082 18.3847 15.9082C18.4388 15.9841 18.4388 15.9841 18.4958 16.0824C18.5707 16.2203 18.5707 16.2203 18.6958 16.3064C18.6958 16.3502 18.6958 16.394 18.6958 16.4391C18.7619 16.461 18.7619 16.461 18.8292 16.4834C18.882 16.5968 18.882 16.5968 18.9181 16.7046C18.9474 16.7046 18.9768 16.7046 19.007 16.7046C19.007 16.7484 19.007 16.7922 19.007 16.8373C19.073 16.8592 19.073 16.8592 19.1404 16.8816C19.2234 16.9815 19.2234 16.9815 19.3126 17.1083C19.3439 17.1522 19.3751 17.1961 19.4073 17.2414C19.4366 17.2832 19.4658 17.3251 19.496 17.3682C19.6284 17.5635 19.6284 17.5635 19.7822 17.7413C19.8606 17.8195 19.9264 17.9024 19.9934 17.9904C20.0169 18.021 20.0405 18.0516 20.0647 18.0832C20.1184 18.1646 20.1184 18.1646 20.1184 18.2531C20.1844 18.275 20.1844 18.275 20.2517 18.2973C20.4296 18.5349 20.4296 18.5349 20.4296 18.6512C20.4589 18.6512 20.4882 18.6512 20.5185 18.6512C20.5231 18.6795 20.5276 18.7078 20.5324 18.737C20.5424 18.7671 20.5525 18.7972 20.5629 18.8282C20.6289 18.8501 20.6289 18.8501 20.6963 18.8724C20.7809 18.977 20.7809 18.977 20.8713 19.1075C20.9813 19.2655 21.0915 19.4021 21.2297 19.5361C21.2754 19.6091 21.3197 19.6829 21.3631 19.7573C21.4004 19.813 21.4384 19.8683 21.477 19.9232C21.4954 19.9494 21.5138 19.9757 21.5328 20.0027C21.5834 20.0736 21.5834 20.0736 21.6743 20.1112C21.6743 20.155 21.6743 20.1988 21.6743 20.2439C21.7036 20.2439 21.733 20.2439 21.7632 20.2439C21.8205 20.3086 21.8205 20.3086 21.8799 20.3933C21.8997 20.421 21.9195 20.4487 21.94 20.4773C21.9855 20.5536 21.9855 20.5536 21.9855 20.6421C22.0148 20.6421 22.0441 20.6421 22.0744 20.6421C22.089 20.7005 22.1037 20.7589 22.1188 20.8191C22.1482 20.8191 22.1775 20.8191 22.2077 20.8191C22.2734 20.8933 22.2734 20.8933 22.3498 20.9971C22.3778 21.0348 22.4058 21.0725 22.4347 21.1113C22.4643 21.1518 22.4939 21.1922 22.5245 21.2339C22.5848 21.3152 22.6452 21.3966 22.7056 21.4779C22.7347 21.517 22.7637 21.5562 22.7937 21.5965C22.9162 21.7592 23.0446 21.9162 23.1758 22.072C23.2302 22.1463 23.2302 22.1463 23.2302 22.2348C23.2595 22.2348 23.2889 22.2348 23.3191 22.2348C23.3764 22.2995 23.3764 22.2995 23.4358 22.3841C23.4556 22.4119 23.4754 22.4396 23.4959 22.4681C23.5414 22.5445 23.5414 22.5445 23.5414 22.633C23.5707 22.633 23.6001 22.633 23.6303 22.633C23.6876 22.6976 23.6876 22.6976 23.747 22.7823C23.7668 22.81 23.7866 22.8378 23.8071 22.8663C23.8526 22.9427 23.8526 22.9427 23.8526 23.0312C23.8819 23.0312 23.9112 23.0312 23.9415 23.0312C23.9415 23.075 23.9415 23.1188 23.9415 23.1639C23.9855 23.1785 24.0295 23.1931 24.0748 23.2081C24.1312 23.2683 24.1312 23.2683 24.1874 23.3455C24.2085 23.3742 24.2297 23.4028 24.2515 23.4324C24.2851 23.4788 24.2851 23.4788 24.3193 23.5261C24.3667 23.5905 24.4142 23.6549 24.4617 23.7192C24.4859 23.7519 24.51 23.7846 24.5349 23.8183C24.6689 23.9968 24.8093 24.1703 24.9505 24.3433C25.0973 24.5259 25.0973 24.5259 25.0973 24.6239C25.1266 24.6239 25.156 24.6239 25.1862 24.6239C25.2404 24.6998 25.2404 24.6998 25.2973 24.7981C25.3722 24.936 25.3722 24.936 25.4974 25.0221C25.4974 25.0659 25.4974 25.1097 25.4974 25.1548C25.5414 25.1694 25.5854 25.184 25.6307 25.199C25.7118 25.2858 25.7118 25.2858 25.7947 25.3926C25.8223 25.4276 25.85 25.4626 25.8785 25.4987C25.9419 25.5972 25.9419 25.5972 25.9419 25.7299C25.9859 25.7445 26.0299 25.7591 26.0753 25.7742C26.1598 25.8787 26.1598 25.8787 26.2503 26.0092C26.3377 26.1347 26.4192 26.2493 26.5283 26.3567C26.6087 26.4378 26.6087 26.4378 26.6532 26.5705C26.6966 26.6157 26.7412 26.6599 26.7865 26.7032C26.9199 26.8655 26.9199 26.8655 26.9199 26.9687C26.9639 26.9833 27.0079 26.9979 27.0533 27.0129C27.0533 27.0567 27.0533 27.1005 27.0533 27.1457C27.0973 27.1603 27.1413 27.1749 27.1866 27.1899C27.3645 27.4276 27.3645 27.4276 27.3645 27.5438C27.3938 27.5438 27.4231 27.5438 27.4534 27.5438C27.5244 27.631 27.5908 27.7181 27.6562 27.8093C27.7209 27.8987 27.7864 27.987 27.8535 28.0747C27.8681 28.0747 27.8828 28.0747 27.8979 28.0747C27.8979 28.0487 27.898 28.0226 27.898 27.9957C27.8996 26.45 27.9021 24.9042 27.9058 23.3585C27.9063 23.1728 27.9067 22.9872 27.9071 22.8016C27.9073 22.7462 27.9073 22.7462 27.9074 22.6896C27.9088 22.0913 27.9095 21.4931 27.9101 20.8948C27.9106 20.2809 27.9118 19.667 27.9137 19.053C27.9148 18.6742 27.9154 18.2955 27.9153 17.9167C27.9153 17.6569 27.916 17.3971 27.9171 17.1373C27.9178 16.9874 27.918 16.8376 27.9177 16.6877C27.9174 16.5251 27.9182 16.3625 27.9193 16.1999C27.9188 16.1291 27.9188 16.1291 27.9182 16.0569C27.9223 15.7038 27.9963 15.4681 28.2369 15.2059C28.2717 15.1749 28.3066 15.1439 28.3425 15.1119C28.3718 15.0827 28.4011 15.0535 28.4314 15.0234C28.7124 14.8564 28.9937 14.8732 29.3144 14.8782C29.4045 14.8796 29.4946 14.8801 29.5847 14.8803C30.0249 14.8839 30.0249 14.8839 30.0762 14.9349C30.0806 15.0191 30.0818 15.1034 30.0818 15.1876C30.0819 15.2705 30.0819 15.2705 30.0821 15.355C30.082 15.4171 30.0819 15.4792 30.0818 15.5412C30.0819 15.6066 30.0819 15.6719 30.082 15.7373C30.0822 15.9177 30.0821 16.0981 30.082 16.2785C30.0819 16.4727 30.082 16.6669 30.0822 16.8611C30.0824 17.2419 30.0823 17.6227 30.0822 18.0036C30.0821 18.3129 30.0821 18.6223 30.0821 18.9316C30.0821 18.9755 30.0821 19.0195 30.0821 19.0648C30.0822 19.154 30.0822 19.2432 30.0822 19.3325C30.0823 20.1704 30.0822 21.0083 30.0819 21.8462C30.0817 22.566 30.0818 23.2858 30.082 24.0056C30.0822 24.8404 30.0823 25.6752 30.0822 26.51C30.0822 26.599 30.0821 26.6879 30.0821 26.7768C30.0821 26.8206 30.0821 26.8643 30.0821 26.9094C30.0821 27.2186 30.0821 27.5278 30.0822 27.8369C30.0824 28.2134 30.0823 28.5899 30.0821 28.9664C30.082 29.1587 30.0819 29.351 30.0821 29.5433C30.0822 29.719 30.0821 29.8948 30.0819 30.0705C30.0818 30.1344 30.0819 30.1982 30.082 30.2621C30.0821 30.3483 30.082 30.4346 30.0818 30.5208C30.0818 30.5689 30.0818 30.617 30.0817 30.6665C30.0762 30.7735 30.0762 30.7735 30.0317 30.8177C29.9624 30.8228 29.8929 30.8248 29.8235 30.8256C29.7791 30.8261 29.7347 30.8267 29.689 30.8273C29.6406 30.8276 29.5922 30.8279 29.5424 30.8283C29.4929 30.8286 29.4433 30.829 29.3923 30.8294C29.2871 30.83 29.182 30.8304 29.0768 30.8308C28.9164 30.8316 28.756 30.8335 28.5956 30.8355C28.4935 30.8359 28.3914 30.8363 28.2893 30.8366C28.2415 30.8373 28.1936 30.8381 28.1443 30.8389C27.8572 30.8381 27.6884 30.8072 27.4534 30.6408C27.4094 30.6116 27.3653 30.5824 27.32 30.5523C27.32 30.5085 27.32 30.4647 27.32 30.4196C27.276 30.405 27.232 30.3904 27.1866 30.3753C27.1178 30.293 27.0524 30.2077 26.9894 30.1209C26.8413 29.9184 26.8413 29.9184 26.685 29.7221C26.6087 29.6232 26.6087 29.6232 26.6087 29.5347C26.5794 29.5347 26.55 29.5347 26.5198 29.5347C26.5051 29.4763 26.4905 29.4179 26.4754 29.3578C26.446 29.3578 26.4167 29.3578 26.3865 29.3578C26.3571 29.2848 26.3278 29.2118 26.2975 29.1365C26.2682 29.1365 26.2389 29.1365 26.2086 29.1365C26.194 29.0781 26.1793 29.0198 26.1642 28.9596C26.1348 28.9596 26.1055 28.9596 26.0753 28.9596C25.9985 28.8659 25.9985 28.8659 25.9141 28.7439C25.886 28.7039 25.858 28.6638 25.829 28.6226C25.7641 28.5172 25.7641 28.5172 25.7641 28.4287C25.7201 28.4141 25.6761 28.3995 25.6307 28.3844C25.5496 28.2977 25.5496 28.2977 25.4668 28.1909C25.4391 28.1559 25.4114 28.1208 25.3829 28.0848C25.3195 27.9863 25.3195 27.9863 25.3195 27.8535C25.2755 27.8389 25.2315 27.8243 25.1862 27.8093C25.14 27.7366 25.0957 27.6627 25.0528 27.5881C25.0317 27.5671 25.0106 27.5461 24.9889 27.5245C24.9195 27.4554 24.9195 27.4554 24.8278 27.3171C24.7554 27.1877 24.7554 27.1877 24.6527 27.1457C24.6381 27.1019 24.6234 27.0581 24.6083 27.0129C24.5716 26.9774 24.5349 26.9418 24.4971 26.9051C24.3931 26.7989 24.3575 26.7576 24.3416 26.6148C24.3122 26.6148 24.2829 26.6148 24.2526 26.6148C24.2481 26.5865 24.2435 26.5582 24.2388 26.529C24.2236 26.4839 24.2236 26.4839 24.2082 26.4378C24.1642 26.4232 24.1202 26.4086 24.0748 26.3936C24.0164 26.3313 24.0164 26.3313 23.9576 26.2515C23.9358 26.2222 23.9139 26.1928 23.8914 26.1626C23.8685 26.1311 23.8456 26.0997 23.822 26.0673C23.7984 26.0354 23.7748 26.0036 23.7505 25.9708C23.6428 25.8253 23.5363 25.6789 23.4304 25.5321C23.3836 25.4671 23.3836 25.4671 23.3358 25.4009C23.295 25.3435 23.295 25.3435 23.2535 25.2849C23.1919 25.1942 23.1919 25.1942 23.0968 25.1548C23.0968 25.111 23.0968 25.0672 23.0968 25.0221C23.0528 25.0075 23.0088 24.9929 22.9635 24.9778C22.7856 24.7402 22.7856 24.7402 22.7856 24.6239C22.7416 24.6093 22.6976 24.5947 22.6523 24.5796C22.5833 24.4969 22.5833 24.4969 22.505 24.3833C22.3334 24.1414 22.1543 23.9064 21.9716 23.6727C21.9444 23.6378 21.9173 23.6028 21.8893 23.5668C21.8634 23.5338 21.8376 23.5007 21.8109 23.4667C21.7878 23.4371 21.7647 23.4075 21.7409 23.3771C21.6763 23.2953 21.6763 23.2953 21.5991 23.2279C21.5409 23.1639 21.5409 23.1639 21.5409 23.0312C21.5116 23.0312 21.4822 23.0312 21.452 23.0312C21.3947 22.9665 21.3947 22.9665 21.3353 22.8819C21.3155 22.8541 21.2957 22.8264 21.2752 22.7979C21.2297 22.7215 21.2297 22.7215 21.2297 22.633C21.2004 22.633 21.1711 22.633 21.1408 22.633C21.1262 22.5746 21.1115 22.5162 21.0964 22.456C21.067 22.456 21.0377 22.456 21.0075 22.456C20.9005 22.3426 20.8099 22.2151 20.7157 22.091C20.6889 22.0567 20.6622 22.0223 20.6346 21.9868C20.609 21.9535 20.5835 21.9201 20.5572 21.8857C20.5338 21.8551 20.5104 21.8246 20.4862 21.7931C20.4296 21.7039 20.4296 21.7039 20.4077 21.6068C20.4002 21.5805 20.3928 21.5541 20.3851 21.527C20.3411 21.5124 20.2971 21.4978 20.2517 21.4827C20.1706 21.3893 20.0954 21.2965 20.0211 21.1979C20.0005 21.1714 19.9799 21.1449 19.9587 21.1176C19.8072 20.9193 19.8072 20.9193 19.8072 20.8191C19.7779 20.8191 19.7485 20.8191 19.7183 20.8191C19.7036 20.7607 19.6889 20.7023 19.6738 20.6421C19.6445 20.6421 19.6152 20.6421 19.5849 20.6421C19.4884 20.5111 19.4144 20.3985 19.3627 20.2439C19.3333 20.2439 19.304 20.2439 19.2737 20.2439C19.202 20.1606 19.1361 20.0777 19.0709 19.9896C19.0526 19.9657 19.0343 19.9419 19.0154 19.9173C18.9203 19.7903 18.8667 19.6882 18.8292 19.5361C18.7632 19.5142 18.7632 19.5142 18.6958 19.4918C18.6147 19.3984 18.5395 19.3056 18.4652 19.207C18.4446 19.1805 18.424 19.154 18.4028 19.1268C18.2513 18.9284 18.2513 18.9284 18.2513 18.8282C18.222 18.8282 18.1926 18.8282 18.1624 18.8282C18.1477 18.7844 18.133 18.7406 18.1179 18.6955C18.0568 18.6273 18.0568 18.6273 17.9846 18.5628C17.8824 18.4689 17.8524 18.4337 17.8067 18.2973C17.7728 18.2635 17.7389 18.2298 17.7039 18.195C17.4067 17.8991 17.4067 17.8991 17.4067 17.7222C17.348 17.7076 17.2893 17.693 17.2288 17.6779C17.2287 17.7043 17.2285 17.7306 17.2283 17.7578C17.2237 18.3999 17.2188 19.0421 17.2138 19.6843C17.2113 19.9948 17.2089 20.3054 17.2067 20.616C17.2046 20.9157 17.2023 21.2155 17.1998 21.5153C17.1989 21.6296 17.1981 21.7439 17.1973 21.8582C17.1962 22.0184 17.1949 22.1786 17.1935 22.3389C17.1933 22.386 17.193 22.4331 17.1927 22.4817C17.1903 22.7277 17.1763 22.9647 17.1399 23.2081C17.1106 23.2081 17.0813 23.2081 17.051 23.2081C17.0217 23.2957 16.9923 23.3833 16.9621 23.4736C16.9328 23.4736 16.9034 23.4736 16.8732 23.4736C16.8585 23.5174 16.8439 23.5612 16.8287 23.6063C16.5507 23.7873 16.3366 23.8331 16.0029 23.8334C15.92 23.8335 15.92 23.8335 15.8355 23.8336C15.7782 23.8334 15.7209 23.8332 15.6618 23.8331C15.5748 23.8333 15.5748 23.8333 15.4861 23.8336C15.4311 23.8335 15.3761 23.8335 15.3194 23.8334C15.2689 23.8334 15.2184 23.8333 15.1664 23.8333C15.0506 23.8275 15.0506 23.8275 15.0061 23.7833C15.0017 23.6693 15.0001 23.5564 15.0005 23.4423C15.0004 23.4062 15.0003 23.3701 15.0003 23.3328C15.0001 23.2108 15.0002 23.0888 15.0004 22.9667C15.0003 22.8796 15.0002 22.7925 15.0001 22.7054C14.9999 22.4681 15 22.2308 15.0001 21.9935C15.0003 21.7458 15.0002 21.498 15.0001 21.2503C15 20.8342 15.0001 20.4181 15.0003 20.002C15.0006 19.5201 15.0005 19.0383 15.0002 18.5564C15 18.1436 15 17.7307 15.0001 17.3178C15.0002 17.0708 15.0002 16.8239 15.0001 16.5769C14.9999 16.3448 15 16.1127 15.0003 15.8806C15.0003 15.7951 15.0003 15.7097 15.0002 15.6242C15.0001 15.5081 15.0002 15.392 15.0005 15.2759C15.0004 15.2416 15.0003 15.2073 15.0002 15.172C15.0012 14.9091 15.0056 14.8855 15.2677 14.8836Z" fill="white" fill-opacity="0.8"/>
</svg>
