<svg width="20" height="20" viewBox="0 0 20 20" fill="none" xmlns="http://www.w3.org/2000/svg">
<path d="M10 2.1748C12.5 2.1748 12.8 2.18418 13.7881 2.22918C14.3828 2.2362 14.9718 2.3455 15.5294 2.5523C15.9364 2.70257 16.3046 2.9422 16.6069 3.25355C16.9182 3.55579 17.1579 3.92399 17.3081 4.33105C17.5149 4.88864 17.6242 5.47765 17.6313 6.0723C17.6763 7.0623 17.6875 7.3623 17.6875 9.8623C17.6875 12.3623 17.6781 12.6623 17.6331 13.6504C17.6261 14.2451 17.5168 14.8341 17.31 15.3917C17.1539 15.7958 16.9151 16.1628 16.6087 16.4692C16.3024 16.7755 15.9354 17.0144 15.5313 17.1704C14.9737 17.3772 14.3847 17.4865 13.79 17.4936C12.8019 17.5386 12.505 17.5479 10.0019 17.5479C7.49875 17.5479 7.20188 17.5386 6.21375 17.4936C5.6191 17.4865 5.03008 17.3772 4.4725 17.1704C4.06543 17.0202 3.69723 16.7805 3.395 16.4692C3.08365 16.1669 2.84402 15.7987 2.69375 15.3917C2.48695 14.8341 2.37764 14.2451 2.37063 13.6504C2.32375 12.6623 2.3125 12.3654 2.3125 9.8623C2.3125 7.35918 2.32188 7.0623 2.36688 6.07418C2.37389 5.47952 2.4832 4.89051 2.69 4.33293C2.84082 3.92568 3.08109 3.55747 3.39313 3.25543C3.69536 2.94408 4.06356 2.70445 4.47063 2.55418C5.02821 2.34738 5.61722 2.23807 6.21188 2.23105C7.2 2.18605 7.5 2.1748 10 2.1748ZM10 0.487305C7.45375 0.487305 7.13438 0.49793 6.135 0.543555C5.35701 0.560038 4.58741 0.707956 3.85875 0.981055C3.2336 1.21633 2.66716 1.58486 2.19875 2.06105C1.72188 2.52928 1.3527 3.09574 1.11688 3.72105C0.843776 4.44972 0.695858 5.21932 0.679375 5.9973C0.635625 6.99668 0.625 7.31605 0.625 9.8623C0.625 12.4086 0.635625 12.7279 0.68125 13.7273C0.697733 14.5053 0.845651 15.2749 1.11875 16.0036C1.35458 16.6289 1.72376 17.1953 2.20063 17.6636C2.66885 18.1404 3.23531 18.5096 3.86063 18.7454C4.58929 19.0185 5.35889 19.1664 6.13688 19.1829C7.13688 19.2286 7.45563 19.2392 10.0019 19.2392C12.5481 19.2392 12.8675 19.2286 13.8669 19.1829C14.6449 19.1664 15.4145 19.0185 16.1431 18.7454C16.7657 18.5041 17.331 18.1357 17.8031 17.6636C18.2752 17.1915 18.6437 16.6261 18.885 16.0036C19.1581 15.2749 19.306 14.5053 19.3225 13.7273C19.3681 12.7273 19.3788 12.4086 19.3788 9.8623C19.3788 7.31605 19.3681 6.99668 19.3225 5.9973C19.306 5.21932 19.1581 4.44972 18.885 3.72105C18.6492 3.09574 18.28 2.52928 17.8031 2.06105C17.3349 1.58419 16.7684 1.21501 16.1431 0.97918C15.4145 0.706081 14.6449 0.558163 13.8669 0.54168C12.8656 0.49793 12.5463 0.487305 10 0.487305Z" fill="white" fill-opacity="0.8"/>
<path d="M10 5.0498C9.04818 5.0498 8.11773 5.33205 7.32632 5.86086C6.53491 6.38966 5.91808 7.14127 5.55383 8.02064C5.18958 8.90001 5.09428 9.86764 5.27997 10.8012C5.46566 11.7347 5.92401 12.5922 6.59705 13.2653C7.27009 13.9383 8.12759 14.3966 9.06113 14.5823C9.99466 14.768 10.9623 14.6727 11.8417 14.3085C12.721 13.9442 13.4726 13.3274 14.0014 12.536C14.5303 11.7446 14.8125 10.8141 14.8125 9.8623C14.8125 8.58595 14.3055 7.36187 13.403 6.45935C12.5004 5.55683 11.2764 5.0498 10 5.0498ZM10 12.9873C9.38193 12.9873 8.77775 12.804 8.26384 12.4606C7.74994 12.1173 7.3494 11.6292 7.11288 11.0582C6.87635 10.4872 6.81447 9.85884 6.93505 9.25265C7.05562 8.64646 7.35325 8.08963 7.79029 7.6526C8.22733 7.21556 8.78415 6.91793 9.39034 6.79735C9.99653 6.67677 10.6249 6.73866 11.1959 6.97518C11.7669 7.2117 12.255 7.61224 12.5983 8.12615C12.9417 8.64005 13.125 9.24424 13.125 9.8623C13.125 10.6911 12.7958 11.486 12.2097 12.072C11.6237 12.6581 10.8288 12.9873 10 12.9873Z" fill="white" fill-opacity="0.8"/>
<path d="M15.0044 5.98293C15.6257 5.98293 16.1294 5.47925 16.1294 4.85793C16.1294 4.23661 15.6257 3.73293 15.0044 3.73293C14.3831 3.73293 13.8794 4.23661 13.8794 4.85793C13.8794 5.47925 14.3831 5.98293 15.0044 5.98293Z" fill="white" fill-opacity="0.8"/>
</svg>
