<svg width="200" height="44" viewBox="0 0 200 44" fill="none" xmlns="http://www.w3.org/2000/svg">
<path d="M183.841 19.1746C183.888 19.1797 183.935 19.1849 183.983 19.1903C184.262 19.2248 184.516 19.281 184.778 19.3819C184.84 19.4052 184.84 19.4052 184.903 19.4289C184.935 19.4426 184.967 19.4563 185 19.4704C185.033 19.4841 185.066 19.4978 185.1 19.5119C185.178 19.5589 185.178 19.5589 185.222 19.6916C185.193 19.9777 185.132 20.2585 185.044 20.5322C185.015 20.5322 184.986 20.5322 184.956 20.5322C184.949 20.5815 184.949 20.5815 184.942 20.6318C184.909 20.763 184.872 20.8333 184.778 20.9304C184.734 20.9304 184.69 20.9304 184.644 20.9304C184.63 20.9742 184.615 21.018 184.6 21.0631C184.245 21.243 183.896 21.2207 183.508 21.171C182.475 21.0403 181.599 21.2529 180.735 21.8429C180.596 21.9457 180.596 21.9457 180.474 22.0724C180.377 22.1692 180.377 22.1692 180.288 22.1692C180.275 22.1956 180.262 22.2221 180.249 22.2494C180.199 22.3461 180.199 22.3461 180.11 22.4789C180.081 22.4789 180.051 22.4789 180.021 22.4789C180.011 22.5071 180.001 22.5354 179.991 22.5646C179.924 22.7197 179.843 22.8635 179.76 23.0103C179.727 23.0683 179.695 23.1271 179.665 23.1867C179.636 23.1867 179.607 23.1867 179.577 23.1867C179.568 23.2552 179.568 23.2552 179.56 23.325C179.532 23.4964 179.532 23.4964 179.489 23.6251C179.312 24.155 179.341 24.7232 179.339 25.2746C179.339 25.4318 179.338 25.5889 179.337 25.7461C179.335 26.1359 179.333 26.5257 179.331 26.9155C179.33 27.2461 179.328 27.5768 179.326 27.9074C179.325 28.062 179.325 28.2167 179.324 28.3713C179.324 28.466 179.323 28.5608 179.323 28.6555C179.323 28.6983 179.323 28.7412 179.323 28.7853C179.32 29.128 179.256 29.3682 179.043 29.646C178.743 29.9362 178.423 29.9707 178.023 29.9674C177.971 29.9663 177.919 29.9652 177.865 29.964C177.812 29.9634 177.758 29.9628 177.703 29.9622C177.572 29.9607 177.441 29.9585 177.309 29.9557C177.254 29.8456 177.259 29.7721 177.259 29.6488C177.259 29.6027 177.259 29.5565 177.259 29.5089C177.259 29.458 177.259 29.4071 177.259 29.3546C177.259 29.3011 177.259 29.2477 177.259 29.1926C177.259 29.0456 177.259 28.8986 177.259 28.7516C177.259 28.5974 177.259 28.4432 177.259 28.289C177.259 28.0295 177.259 27.77 177.259 27.5105C177.259 27.2117 177.259 26.913 177.259 26.6143C177.259 26.3572 177.259 26.1001 177.259 25.843C177.259 25.6898 177.259 25.5365 177.259 25.3833C177.259 25.2116 177.259 25.04 177.259 24.8684C177.259 24.8185 177.259 24.7685 177.259 24.7171C177.26 24.2557 177.273 23.7935 177.387 23.3443C177.395 23.3129 177.403 23.2815 177.411 23.2491C177.519 22.8234 177.655 22.4093 177.882 22.0306C177.933 21.9459 177.977 21.8596 178.021 21.771C178.05 21.771 178.079 21.771 178.11 21.771C178.121 21.7308 178.133 21.6907 178.146 21.6493C178.194 21.5175 178.237 21.431 178.332 21.3286C178.361 21.3286 178.39 21.3286 178.421 21.3286C178.432 21.3029 178.444 21.2771 178.456 21.2506C178.66 20.8717 179.04 20.5408 179.399 20.311C179.413 20.2818 179.428 20.2526 179.443 20.2225C179.487 20.2225 179.531 20.2225 179.577 20.2225C179.599 20.1568 179.599 20.1568 179.621 20.0898C179.694 20.0752 179.768 20.0606 179.843 20.0456C179.843 20.0164 179.843 19.9872 179.843 19.9571C179.881 19.9384 179.919 19.9197 179.958 19.9004C180.058 19.8501 180.159 19.7994 180.26 19.7483C180.649 19.5518 181.019 19.3955 181.444 19.2935C181.473 19.2789 181.502 19.2643 181.533 19.2492C182.311 19.1046 183.057 19.0864 183.841 19.1746Z" fill="white"/>
<path d="M79.4501 19.2115C79.4915 19.2166 79.5329 19.2217 79.5755 19.227C79.6864 19.2491 79.7665 19.2839 79.865 19.3377C79.9219 19.3542 79.9794 19.369 80.0372 19.3819C80.1907 19.4185 80.3401 19.4575 80.4873 19.5147C80.6011 19.7412 80.5227 20.1126 80.4478 20.3458C80.4053 20.4401 80.3599 20.5303 80.3095 20.6207C80.2797 20.6796 80.25 20.7386 80.2206 20.7977C80.1913 20.7977 80.1619 20.7977 80.1317 20.7977C80.117 20.8415 80.1024 20.8853 80.0873 20.9304C79.6168 21.2275 79.236 21.2315 78.6897 21.1489C77.9384 21.0432 77.0372 21.2139 76.3975 21.6383C76.3535 21.6383 76.3095 21.6383 76.2642 21.6383C76.2642 21.6675 76.2642 21.6967 76.2642 21.7268C76.1942 21.776 76.1942 21.776 76.1002 21.8291C75.9006 21.9484 75.7492 22.0833 75.6112 22.2715C75.592 22.2961 75.5727 22.3208 75.5529 22.3461C75.5236 22.3461 75.4942 22.3461 75.464 22.3461C75.4524 22.3707 75.4408 22.3952 75.4289 22.4205C75.3683 22.5361 75.2978 22.6414 75.225 22.7499C75.0792 22.9764 74.9756 23.1991 74.8861 23.4522C74.8738 23.4823 74.8616 23.5124 74.8489 23.5434C74.6145 24.1532 74.6516 24.848 74.653 25.4894C74.6532 25.6425 74.6528 25.7956 74.6522 25.9488C74.6506 26.3835 74.6497 26.8183 74.6502 27.2531C74.6505 27.5204 74.6497 27.7877 74.6482 28.055C74.6478 28.1563 74.6479 28.2576 74.6484 28.3589C74.649 28.5004 74.6483 28.6419 74.6473 28.7834C74.648 28.8454 74.648 28.8454 74.6488 28.9086C74.644 29.2498 74.5344 29.5057 74.2943 29.7511C73.9299 29.9704 73.6145 29.9726 73.1968 29.964C73.1412 29.9634 73.0855 29.9628 73.0282 29.9622C72.8917 29.9607 72.7553 29.9585 72.6189 29.9557C72.6126 29.1657 72.608 28.3757 72.6051 27.5857C72.6037 27.2188 72.6019 26.8519 72.5988 26.4849C72.5961 26.1646 72.5944 25.8443 72.5938 25.524C72.5935 25.3548 72.5927 25.1857 72.5907 25.0165C72.5793 23.9986 72.6768 23.0863 73.1524 22.1692C73.1999 22.0606 73.2462 21.9516 73.292 21.8422C73.3302 21.771 73.3302 21.771 73.4191 21.7268C73.4629 21.6512 73.5066 21.5755 73.549 21.4992C73.614 21.3879 73.6878 21.291 73.7747 21.1959C73.8041 21.1959 73.8334 21.1959 73.8636 21.1959C73.8636 21.1521 73.8636 21.1083 73.8636 21.0631C73.9875 20.9228 74.098 20.8359 74.2637 20.7534C74.2784 20.7096 74.2931 20.6658 74.3082 20.6207C74.9329 20.0456 74.9329 20.0456 75.1528 20.0456C75.1528 20.0164 75.1528 19.9872 75.1528 19.9571C75.2408 19.9425 75.3288 19.9279 75.4195 19.9128C75.4195 19.8836 75.4195 19.8544 75.4195 19.8244C75.5482 19.7671 75.677 19.71 75.8057 19.6529C75.842 19.6368 75.8783 19.6206 75.9157 19.604C76.4104 19.3848 76.4104 19.3848 76.6309 19.3349C76.7875 19.3111 76.7875 19.3111 76.8421 19.2492C77.7284 19.0842 78.5606 19.1012 79.4501 19.2115Z" fill="white"/>
<path d="M166.478 19.0646C166.572 19.0642 166.666 19.0637 166.76 19.063C167.462 19.0589 168.132 19.0948 168.818 19.2492C168.818 19.2784 168.818 19.3076 168.818 19.3377C168.857 19.3419 168.895 19.3462 168.935 19.3505C169.101 19.3853 169.212 19.4438 169.357 19.5313C169.402 19.5581 169.447 19.5849 169.494 19.6125C169.705 19.7466 169.705 19.7466 169.796 19.8244C169.796 19.8536 169.796 19.8828 169.796 19.9129C169.855 19.9275 169.914 19.9421 169.974 19.9571C169.974 19.9863 169.974 20.0155 169.974 20.0456C170.018 20.0602 170.062 20.0748 170.108 20.0898C170.183 20.1507 170.183 20.1507 170.241 20.2226C170.241 20.2664 170.241 20.3102 170.241 20.3553C170.285 20.3699 170.329 20.3845 170.374 20.3995C170.875 20.9732 171.038 21.784 170.997 22.5231C170.962 22.8933 170.909 23.2374 170.774 23.5849C170.745 23.5849 170.716 23.5849 170.685 23.5849C170.676 23.6205 170.667 23.6561 170.658 23.6928C170.577 23.8998 170.459 24.0687 170.33 24.2486C170.295 24.2983 170.295 24.2983 170.26 24.3491C170.229 24.387 170.229 24.387 170.196 24.4255C170.167 24.4255 170.138 24.4255 170.108 24.4255C170.064 24.5131 170.064 24.5131 170.019 24.6025C169.989 24.6025 169.96 24.6025 169.93 24.6025C169.93 24.6317 169.93 24.6609 169.93 24.691C169.618 24.9621 169.236 25.1385 168.863 25.3104C168.83 25.3255 168.798 25.3406 168.764 25.3562C168.165 25.607 167.462 25.5453 166.827 25.5449C166.721 25.5451 166.614 25.5452 166.508 25.5455C166.286 25.5458 166.064 25.5458 165.842 25.5455C165.557 25.5453 165.272 25.546 164.987 25.5471C164.768 25.5477 164.548 25.5478 164.329 25.5476C164.224 25.5476 164.119 25.5479 164.014 25.5483C163.867 25.5489 163.721 25.5486 163.575 25.548C163.531 25.5484 163.488 25.5487 163.443 25.5491C163.383 25.5486 163.383 25.5486 163.323 25.5481C163.288 25.5481 163.254 25.5481 163.218 25.5482C163.103 25.5269 163.064 25.4919 162.995 25.3988C162.983 25.2813 162.978 25.1759 162.981 25.0587C162.981 25.0268 162.982 24.9949 162.982 24.962C162.992 24.5646 163.078 24.2007 163.35 23.8946C163.38 23.8946 163.409 23.8946 163.439 23.8946C163.461 23.8289 163.461 23.8289 163.484 23.7619C163.555 23.7118 163.555 23.7118 163.645 23.6679C163.688 23.6458 163.688 23.6458 163.733 23.6233C163.981 23.5341 164.244 23.534 164.505 23.533C164.539 23.5327 164.573 23.5324 164.608 23.5321C164.681 23.5315 164.754 23.531 164.827 23.5305C164.944 23.5298 165.06 23.5288 165.176 23.5277C165.507 23.5245 165.837 23.5219 166.168 23.5196C166.37 23.5182 166.573 23.5164 166.776 23.5143C166.853 23.5136 166.929 23.513 167.006 23.5126C167.797 23.5338 167.797 23.5338 168.482 23.1975C168.552 23.1425 168.552 23.1425 168.641 23.1425C168.657 23.1001 168.657 23.1001 168.674 23.0568C168.729 22.9213 168.729 22.9213 168.775 22.8335C168.913 22.558 168.976 22.2898 168.877 21.9886C168.844 21.9152 168.809 21.843 168.774 21.771C168.774 21.7272 168.774 21.6834 168.774 21.6383C168.745 21.6383 168.715 21.6383 168.685 21.6383C168.659 21.6054 168.634 21.5726 168.607 21.5387C168.366 21.2453 168.069 21.1734 167.707 21.1074C167.493 21.0893 167.28 21.0877 167.065 21.0882C167.005 21.088 166.944 21.0878 166.883 21.0875C166.756 21.0871 166.629 21.0872 166.503 21.0877C166.375 21.0881 166.247 21.0878 166.119 21.0868C164.889 21.0717 164.889 21.0717 163.706 21.3728C163.662 21.3728 163.618 21.3728 163.573 21.3728C163.573 21.402 163.573 21.4312 163.573 21.4613C163.485 21.4759 163.397 21.4905 163.306 21.5056C163.306 21.5348 163.306 21.564 163.306 21.5941C163.266 21.6123 163.225 21.6306 163.184 21.6494C163.038 21.7183 163.038 21.7183 162.942 21.8236C162.861 21.9037 162.861 21.9037 162.728 21.9037C162.706 21.9694 162.706 21.9694 162.684 22.0365C162.652 22.0602 162.621 22.0839 162.589 22.1084C162.438 22.2329 162.334 22.3733 162.219 22.5307C162.196 22.5574 162.174 22.5841 162.15 22.6116C162.121 22.6116 162.092 22.6116 162.061 22.6116C162.043 22.6587 162.043 22.6587 162.024 22.7068C161.973 22.8324 161.918 22.9556 161.861 23.0789C161.842 23.12 161.824 23.1612 161.804 23.2035C161.773 23.2714 161.739 23.3387 161.703 23.4043C161.404 24.0597 161.477 24.8991 161.661 25.5758C161.723 25.7316 161.799 25.8733 161.883 26.0182C161.916 26.0854 161.949 26.1526 161.981 26.2201C162.043 26.3739 162.043 26.3739 162.15 26.4164C162.165 26.4602 162.18 26.504 162.195 26.5491C162.231 26.5856 162.268 26.6221 162.306 26.6597C162.417 26.7703 162.417 26.7703 162.461 26.9031C162.519 26.9348 162.579 26.9639 162.639 26.9916C162.711 27.0415 162.781 27.0933 162.85 27.1464C162.886 27.1733 162.921 27.2002 162.958 27.228C162.998 27.2642 162.998 27.2642 163.039 27.3012C163.039 27.3304 163.039 27.3596 163.039 27.3897C163.072 27.3949 163.104 27.4 163.137 27.4053C163.265 27.4348 163.362 27.4782 163.478 27.539C163.756 27.6807 164.017 27.7956 164.323 27.8574C164.383 27.8694 164.442 27.8831 164.5 27.8993C164.6 27.9217 164.688 27.9263 164.791 27.9264C164.83 27.9266 164.869 27.9268 164.909 27.927C164.951 27.927 164.994 27.9269 165.038 27.9269C165.105 27.9271 165.105 27.9271 165.174 27.9274C165.271 27.9277 165.369 27.9279 165.466 27.9281C165.621 27.9284 165.775 27.9291 165.93 27.9299C166.369 27.9322 166.809 27.9344 167.248 27.9351C167.517 27.9355 167.786 27.9368 168.055 27.9387C168.157 27.9392 168.259 27.9394 168.362 27.9393C168.505 27.9392 168.648 27.9402 168.792 27.9414C168.834 27.9411 168.876 27.9408 168.919 27.9405C169.203 27.9445 169.413 28.0084 169.663 28.1418C169.663 28.171 169.663 28.2002 169.663 28.2303C169.703 28.2454 169.703 28.2454 169.744 28.2607C169.867 28.3346 169.907 28.4148 169.974 28.54C170.004 28.5838 170.033 28.6276 170.063 28.6727C170.073 28.8015 170.073 28.8015 170.072 28.9567C170.071 29.0399 170.071 29.0399 170.071 29.1248C170.07 29.2117 170.07 29.2117 170.069 29.3004C170.068 29.3595 170.068 29.4186 170.067 29.4777C170.066 29.6223 170.065 29.7669 170.063 29.9115C169.955 29.9652 169.886 29.9618 169.765 29.9626C169.721 29.9629 169.677 29.9633 169.631 29.9637C169.583 29.9639 169.534 29.9641 169.484 29.9643C169.407 29.9648 169.407 29.9648 169.329 29.9654C169.159 29.9665 168.988 29.9672 168.818 29.9679C168.76 29.9681 168.701 29.9683 168.641 29.9686C168.395 29.9695 168.149 29.9704 167.903 29.9709C167.553 29.9716 167.203 29.973 166.853 29.9756C166.605 29.9773 166.358 29.9781 166.111 29.9784C165.964 29.9785 165.817 29.9791 165.67 29.9805C164.3 29.9923 163.081 29.7382 161.883 29.0709C161.883 29.0417 161.883 29.0125 161.883 28.9824C161.851 28.9788 161.819 28.9751 161.786 28.9714C161.635 28.9312 161.552 28.8674 161.439 28.7612C161.439 28.732 161.439 28.7028 161.439 28.6727C161.395 28.6727 161.351 28.6727 161.306 28.6727C161.208 28.5898 161.208 28.5898 161.128 28.4958C161.128 28.4666 161.128 28.4374 161.128 28.4073C161.087 28.3909 161.087 28.3909 161.044 28.3741C160.933 28.3087 160.916 28.2551 160.861 28.1418C160.817 28.1272 160.773 28.1126 160.728 28.0976C160.653 28.0368 160.653 28.0368 160.594 27.9649C160.594 27.9211 160.594 27.8773 160.594 27.8321C160.55 27.8175 160.506 27.8029 160.461 27.7879C160.461 27.7441 160.461 27.7003 160.461 27.6552C160.432 27.6552 160.402 27.6552 160.372 27.6552C159.794 26.6813 159.794 26.6813 159.661 26.151C159.646 26.1364 159.631 26.1218 159.616 26.1067C159.4 25.2752 159.266 24.1439 159.572 23.3195C159.586 23.256 159.6 23.1924 159.614 23.1287C159.69 22.7798 159.816 22.4646 159.968 22.1419C160.02 22.0336 160.02 22.0336 160.061 21.9037C160.09 21.9037 160.12 21.9037 160.15 21.9037C160.156 21.8678 160.156 21.8678 160.162 21.8312C160.204 21.6959 160.271 21.5915 160.347 21.4724C160.374 21.4288 160.402 21.3852 160.43 21.3404C160.455 21.3073 160.48 21.2742 160.505 21.2401C160.535 21.2401 160.564 21.2401 160.594 21.2401C160.599 21.2137 160.603 21.1872 160.608 21.1599C160.643 21.0493 160.682 21.0023 160.772 20.9304C160.801 20.9304 160.831 20.9304 160.861 20.9304C160.873 20.904 160.885 20.8775 160.897 20.8502C160.95 20.7535 160.999 20.6909 161.083 20.6207C161.113 20.6207 161.142 20.6207 161.172 20.6207C161.187 20.5769 161.202 20.5331 161.217 20.488C161.246 20.488 161.275 20.488 161.306 20.488C161.306 20.4588 161.306 20.4296 161.306 20.3995C161.371 20.3425 161.371 20.3425 161.456 20.2834C161.483 20.2637 161.511 20.2439 161.54 20.2236C161.617 20.1783 161.617 20.1783 161.706 20.1783C161.706 20.1491 161.706 20.1199 161.706 20.0898C162 19.9129 162 19.9129 162.15 19.9129C162.15 19.8837 162.15 19.8545 162.15 19.8244C162.262 19.7755 162.374 19.7267 162.486 19.6778C162.518 19.6642 162.549 19.6505 162.581 19.6364C162.644 19.6091 162.707 19.5817 162.77 19.5545C162.829 19.5287 162.888 19.5028 162.948 19.4766C163.086 19.416 163.219 19.3642 163.367 19.3322C163.519 19.3105 163.519 19.3105 163.573 19.2492C164.528 19.0468 165.506 19.0684 166.478 19.0646Z" fill="white"/>
<path d="M154.139 19.0679C154.17 19.0679 154.201 19.068 154.233 19.0681C154.331 19.0683 154.429 19.0689 154.526 19.0694C154.593 19.0696 154.66 19.0698 154.727 19.07C154.89 19.0705 155.053 19.0713 155.215 19.0722C155.257 19.2054 155.262 19.2432 155.215 19.3819C155.186 19.3819 155.157 19.3819 155.126 19.3819C155.114 19.4207 155.102 19.4595 155.09 19.4995C155.041 19.6374 154.985 19.7596 154.917 19.8888C154.893 19.934 154.869 19.9792 154.845 20.0258C154.819 20.0734 154.794 20.1209 154.768 20.1699C154.742 20.2189 154.716 20.2679 154.69 20.3184C154.613 20.4635 154.537 20.6085 154.46 20.7534C154.439 20.7932 154.417 20.8331 154.396 20.8741C154.325 21.0064 154.255 21.1388 154.184 21.2708C154.096 21.4363 154.01 21.6029 153.926 21.7709C153.897 21.7709 153.868 21.7709 153.837 21.7709C153.83 21.8161 153.83 21.8161 153.823 21.8622C153.786 22.0218 153.731 22.1539 153.659 22.3018C153.615 22.3237 153.615 22.3237 153.571 22.3461C153.54 22.4193 153.51 22.4932 153.482 22.5673C153.422 22.6867 153.359 22.8038 153.296 22.9212C153.278 22.9546 153.26 22.988 153.241 23.0224C153.112 23.2638 152.982 23.5045 152.851 23.7452C152.739 23.9519 152.629 24.1594 152.519 24.3669C152.389 24.6127 152.256 24.8571 152.122 25.1008C152.064 25.213 152.015 25.325 151.97 25.443C151.941 25.443 151.912 25.443 151.881 25.443C151.869 25.4817 151.857 25.5204 151.845 25.5603C151.795 25.7003 151.737 25.8248 151.668 25.9561C151.644 26.0022 151.62 26.0484 151.595 26.0959C151.569 26.1442 151.544 26.1924 151.517 26.2421C151.491 26.2917 151.465 26.3413 151.438 26.3924C151.283 26.6864 151.126 26.9793 150.967 27.2711C150.868 27.4561 150.774 27.6437 150.681 27.8321C150.652 27.8321 150.622 27.8321 150.592 27.8321C150.57 27.9635 150.57 27.9635 150.548 28.0975C150.518 28.0975 150.489 28.0975 150.459 28.0975C150.454 28.1295 150.45 28.1614 150.445 28.1943C150.411 28.3325 150.356 28.4185 150.281 28.5399C150.224 28.6457 150.168 28.7517 150.111 28.8579C149.775 29.4897 149.775 29.4897 149.659 29.646C149.629 29.646 149.6 29.646 149.57 29.646C149.555 29.6898 149.54 29.7336 149.525 29.7787C149.149 30.0599 148.583 29.9747 148.142 29.9667C148.056 29.9658 147.97 29.965 147.884 29.9643C147.675 29.9624 147.467 29.9593 147.258 29.9557C147.21 29.8091 147.21 29.786 147.277 29.6349C147.3 29.5948 147.323 29.5546 147.347 29.5133C147.376 29.5133 147.406 29.5133 147.436 29.5133C147.44 29.482 147.445 29.4507 147.45 29.4185C147.485 29.2743 147.541 29.1671 147.614 29.0377C147.642 28.9872 147.67 28.9368 147.698 28.8849C147.721 28.8443 147.721 28.8443 147.744 28.8029C147.828 28.6499 147.91 28.4953 147.992 28.3408C148.138 28.0647 148.286 27.7894 148.436 27.5149C148.482 27.4292 148.526 27.3427 148.569 27.2555C148.634 27.1293 148.704 27.01 148.778 26.8892C148.978 26.5517 149.14 26.1973 149.303 25.8412C149.332 25.8412 149.362 25.8412 149.392 25.8412C149.404 25.8024 149.416 25.7635 149.429 25.7235C149.477 25.5857 149.534 25.4634 149.602 25.3343C149.626 25.2891 149.649 25.2438 149.674 25.1972C149.699 25.1497 149.724 25.1021 149.75 25.0531C149.776 25.0041 149.802 24.9551 149.828 24.9046C149.905 24.7595 149.982 24.6146 150.059 24.4697C150.08 24.4298 150.101 24.39 150.123 24.3489C150.193 24.2166 150.263 24.0843 150.334 23.9522C150.423 23.7867 150.509 23.6202 150.592 23.4521C150.621 23.4521 150.651 23.4521 150.681 23.4521C150.686 23.4201 150.691 23.388 150.696 23.355C150.727 23.2242 150.773 23.1317 150.839 23.0152C150.949 22.8209 151.057 22.6258 151.162 22.429C151.184 22.3878 151.184 22.3878 151.206 22.3457C151.254 22.2573 151.301 22.169 151.348 22.0806C151.365 22.048 151.383 22.0154 151.401 21.9818C151.454 21.8811 151.508 21.7804 151.562 21.6797C151.587 21.6331 151.587 21.6331 151.612 21.5856C151.704 21.4125 151.794 21.2386 151.881 21.0631C151.911 21.0631 151.94 21.0631 151.97 21.0631C151.974 21.0083 151.974 21.0083 151.979 20.9525C152.017 20.7866 152.076 20.6927 152.169 20.5532C152.284 20.3675 152.375 20.1696 152.47 19.9733C152.61 19.7048 152.75 19.5158 152.993 19.3376C153.022 19.3376 153.051 19.3376 153.082 19.3376C153.082 19.3084 153.082 19.2792 153.082 19.2491C153.436 19.1043 153.756 19.0663 154.139 19.0679Z" fill="white"/>
<path d="M141.834 19.0722C142.029 19.07 142.223 19.0684 142.418 19.0673C142.484 19.0669 142.55 19.0663 142.616 19.0655C143.533 19.0551 143.533 19.0551 143.949 19.2685C143.986 19.2867 144.022 19.3049 144.06 19.3236C144.146 19.3819 144.146 19.3819 144.191 19.5146C144.235 19.5292 144.279 19.5438 144.324 19.5588C144.502 19.7914 144.502 19.7914 144.502 19.957C144.531 19.957 144.56 19.957 144.591 19.957C144.627 20.0346 144.627 20.0346 144.664 20.1138C144.696 20.1823 144.728 20.2508 144.76 20.3193C144.776 20.3533 144.792 20.3873 144.808 20.4223C144.891 20.5977 144.975 20.7665 145.08 20.9303C145.262 21.22 145.421 21.5161 145.573 21.8224C145.67 22.0174 145.771 22.2086 145.878 22.3979C146.058 22.7141 146.058 22.7141 146.058 22.877C146.087 22.877 146.116 22.877 146.147 22.877C146.212 22.9976 146.276 23.1184 146.341 23.2392C146.359 23.2732 146.378 23.3073 146.397 23.3423C146.471 23.4807 146.541 23.615 146.598 23.7613C146.627 23.8583 146.627 23.8583 146.724 23.8945C146.772 23.9813 146.772 23.9813 146.819 24.0881C146.835 24.1231 146.85 24.1581 146.867 24.1942C146.902 24.2927 146.902 24.2927 146.902 24.4254C146.932 24.4254 146.961 24.4254 146.991 24.4254C147.029 24.4962 147.066 24.5673 147.102 24.6384C147.123 24.6779 147.144 24.7174 147.165 24.7581C147.213 24.8679 147.213 24.8679 147.213 25.0006C147.243 25.0006 147.272 25.0006 147.302 25.0006C147.325 25.0462 147.325 25.0462 147.348 25.0927C147.368 25.1326 147.388 25.1724 147.408 25.2135C147.428 25.253 147.447 25.2926 147.467 25.3333C147.525 25.4495 147.525 25.4495 147.614 25.5757C147.646 25.7298 147.657 25.8864 147.672 26.043C147.679 26.1062 147.679 26.1062 147.687 26.1707C147.727 26.5909 147.623 26.9131 147.427 27.2846C147.404 27.3299 147.38 27.3751 147.356 27.4218C147.338 27.455 147.321 27.4882 147.302 27.5224C147.273 27.5224 147.244 27.5224 147.213 27.5224C147.207 27.5488 147.201 27.5753 147.194 27.6026C147.174 27.6799 147.15 27.7563 147.125 27.8321C147.095 27.8321 147.066 27.8321 147.036 27.8321C147.014 27.9635 147.014 27.9635 146.991 28.0975C146.962 28.0975 146.933 28.0975 146.902 28.0975C146.896 28.1249 146.889 28.1523 146.883 28.1805C146.858 28.2745 146.858 28.2745 146.813 28.363C146.784 28.363 146.755 28.363 146.724 28.363C146.492 28.0977 146.349 27.7563 146.195 27.4427C146.106 27.2636 146.013 27.0871 145.919 26.9113C145.904 26.884 145.889 26.8567 145.874 26.8285C145.806 26.7021 145.737 26.5765 145.666 26.4514C145.642 26.4088 145.618 26.3662 145.594 26.3223C145.573 26.2857 145.552 26.2491 145.53 26.2114C145.478 26.1024 145.454 26.0044 145.435 25.8854C145.406 25.8854 145.377 25.8854 145.346 25.8854C145.294 25.7851 145.242 25.6846 145.191 25.584C145.176 25.5556 145.161 25.5272 145.146 25.4979C145.08 25.368 145.035 25.281 145.035 25.1333C145.006 25.1333 144.977 25.1333 144.946 25.1333C144.928 25.0969 144.91 25.0604 144.891 25.0229C144.804 24.8511 144.715 24.681 144.624 24.5112C144.598 24.4618 144.598 24.4618 144.571 24.4114C144.252 23.8122 144.252 23.8122 143.917 23.2223C143.879 23.1424 143.879 23.1424 143.879 23.0097C143.85 23.0097 143.821 23.0097 143.79 23.0097C143.776 22.9221 143.761 22.8345 143.746 22.7443C143.717 22.7443 143.687 22.7443 143.657 22.7443C143.641 22.7126 143.626 22.681 143.61 22.6483C143.409 22.2446 143.203 21.8429 142.971 21.4557C142.901 21.3285 142.901 21.3285 142.901 21.1958C142.872 21.1958 142.843 21.1958 142.812 21.1958C142.798 21.1082 142.783 21.0206 142.768 20.9303C142.739 20.9303 142.709 20.9303 142.679 20.9303C142.661 20.8929 142.642 20.8555 142.623 20.817C142.544 20.6616 142.462 20.5083 142.379 20.3552C142.228 20.0752 142.084 19.7923 141.943 19.507C141.88 19.3777 141.88 19.3777 141.79 19.2492C141.807 19.1524 141.807 19.1524 141.834 19.0722Z" fill="white"/>
<path d="M134.855 19.8243C134.892 19.8441 134.929 19.8639 134.966 19.8843C135.195 20.0143 135.407 20.1638 135.617 20.322C135.643 20.3414 135.668 20.3607 135.695 20.3806C135.758 20.4289 135.818 20.4803 135.878 20.5322C135.878 20.5614 135.878 20.5906 135.878 20.6207C135.922 20.6353 135.966 20.6499 136.011 20.6649C136.011 20.6941 136.011 20.7233 136.011 20.7534C136.055 20.768 136.099 20.7826 136.145 20.7976C136.205 20.8705 136.264 20.9442 136.322 21.0188C136.352 21.0334 136.381 21.048 136.411 21.0631C136.411 21.1069 136.411 21.1507 136.411 21.1958C136.455 21.2104 136.499 21.225 136.545 21.2401C137.284 22.1564 137.675 23.3342 137.67 24.5001C137.67 24.5545 137.67 24.6088 137.67 24.6648C137.662 25.2953 137.551 25.8354 137.3 26.4163C137.288 26.4573 137.275 26.4982 137.262 26.5404C137.207 26.6955 137.136 26.8311 137.056 26.9749C136.93 27.2024 136.93 27.2024 136.811 27.4339C136.782 27.4339 136.753 27.4339 136.723 27.4339C136.711 27.4668 136.699 27.4996 136.686 27.5335C136.636 27.6503 136.585 27.7372 136.5 27.8321C136.471 27.8321 136.442 27.8321 136.411 27.8321C136.411 27.8759 136.411 27.9197 136.411 27.9648C136.328 28.0616 136.328 28.0616 136.234 28.1418C136.204 28.1418 136.175 28.1418 136.145 28.1418C136.13 28.1856 136.115 28.2294 136.1 28.2745C136.071 28.2745 136.041 28.2745 136.011 28.2745C135.997 28.3183 135.982 28.3621 135.967 28.4072C135.937 28.4072 135.908 28.4072 135.878 28.4072C135.863 28.451 135.849 28.4948 135.833 28.54C135.68 28.6727 135.68 28.6727 135.567 28.6727C135.552 28.7165 135.537 28.7603 135.522 28.8054C135.393 28.8956 135.277 28.9538 135.122 28.9824C135.122 29.0116 135.122 29.0408 135.122 29.0709C135.049 29.0855 134.975 29.1001 134.9 29.1151C134.9 29.1443 134.9 29.1735 134.9 29.2036C134.803 29.2525 134.705 29.3014 134.608 29.3501C134.581 29.3638 134.554 29.3775 134.526 29.3915C134.007 29.651 133.479 29.8183 132.899 29.8672C132.87 29.8818 132.841 29.8964 132.811 29.9115C132.543 29.9562 132.273 29.9632 132.002 29.9647C131.946 29.9651 131.946 29.9651 131.888 29.9654C131.808 29.9659 131.728 29.9662 131.648 29.9663C131.529 29.9667 131.41 29.9681 131.29 29.9695C130.378 29.9751 129.397 29.8688 128.587 29.4248C128.465 29.3631 128.341 29.3028 128.218 29.2423C127.672 28.9743 127.672 28.9743 127.609 28.8496C127.565 28.835 127.521 28.8204 127.476 28.8054C127.476 28.7762 127.476 28.747 127.476 28.7169C127.437 28.6984 127.437 28.6984 127.397 28.6794C126.87 28.4083 126.503 27.8752 126.187 27.3897C126.187 27.3605 126.187 27.3313 126.187 27.3012C126.157 27.3012 126.128 27.3012 126.098 27.3012C125.646 26.4197 125.646 26.4197 125.52 25.9739C125.508 25.9365 125.496 25.8991 125.484 25.8606C125.206 24.8647 125.235 23.5524 125.699 22.6135C125.745 22.5178 125.779 22.4212 125.815 22.3212C125.902 22.1006 126.02 21.903 126.145 21.7018C126.165 21.6702 126.184 21.6385 126.204 21.6059C126.232 21.5616 126.232 21.5616 126.261 21.5164C126.277 21.4898 126.294 21.4632 126.312 21.4358C126.365 21.3728 126.365 21.3728 126.498 21.3285C126.531 21.2394 126.531 21.2394 126.542 21.1516C126.572 21.1516 126.601 21.1516 126.631 21.1516C126.646 21.1146 126.646 21.1146 126.662 21.0769C126.737 20.9449 126.832 20.8584 126.943 20.7534C126.969 20.726 126.996 20.6986 127.023 20.6704C127.051 20.6422 127.078 20.6139 127.106 20.5847C127.132 20.558 127.158 20.5312 127.185 20.5037C127.254 20.4437 127.254 20.4437 127.343 20.4437C127.343 20.4145 127.343 20.3853 127.343 20.3552C128.043 19.7801 128.043 19.7801 128.365 19.7801C128.365 19.7509 128.365 19.7217 128.365 19.6916C128.659 19.5771 128.953 19.463 129.254 19.3676C129.346 19.3382 129.346 19.3382 129.442 19.2941C129.604 19.2351 129.768 19.2072 129.938 19.18C129.973 19.1743 130.009 19.1686 130.045 19.1627C131.675 18.9109 133.395 19.0195 134.855 19.8243ZM129.476 21.3728C129.476 21.402 129.476 21.4312 129.476 21.4613C129.388 21.4759 129.3 21.4905 129.21 21.5055C129.21 21.5347 129.21 21.5639 129.21 21.594C129.186 21.5976 129.162 21.6013 129.137 21.6051C128.993 21.6504 128.886 21.7252 128.765 21.8152C128.765 21.8444 128.765 21.8736 128.765 21.9037C128.721 21.9037 128.677 21.9037 128.632 21.9037C128.518 22.0031 128.428 22.0889 128.36 22.2244C128.321 22.3019 128.321 22.3019 128.187 22.3461C128.117 22.4305 128.055 22.513 127.993 22.6033C127.975 22.6289 127.957 22.6545 127.939 22.6809C127.505 23.3304 127.272 24.1839 127.403 24.9609C127.472 25.2927 127.568 25.6167 127.698 25.9297C127.716 25.9735 127.733 26.0173 127.751 26.0624C127.769 26.1062 127.769 26.1062 127.787 26.1509C127.817 26.1509 127.846 26.1509 127.876 26.1509C127.905 26.2385 127.935 26.3261 127.965 26.4163C127.994 26.4163 128.024 26.4163 128.054 26.4163C128.067 26.4428 128.08 26.4693 128.093 26.4965C128.145 26.6019 128.145 26.6019 128.232 26.726C128.261 26.726 128.29 26.726 128.321 26.726C128.332 26.7517 128.343 26.7774 128.354 26.8038C128.662 27.353 129.467 27.699 130.049 27.8698C130.139 27.8896 130.23 27.9055 130.321 27.9206C130.35 27.9283 130.378 27.936 130.408 27.944C130.507 27.9668 130.596 27.9707 130.698 27.9712C130.738 27.9715 130.777 27.9718 130.817 27.9721C130.859 27.9721 130.901 27.9722 130.944 27.9722C130.988 27.9724 131.032 27.9725 131.076 27.9727C131.168 27.9729 131.26 27.973 131.352 27.973C131.493 27.9731 131.633 27.9739 131.773 27.9747C131.863 27.9749 131.952 27.975 132.042 27.975C132.105 27.9755 132.105 27.9755 132.169 27.976C132.387 27.9752 132.561 27.9594 132.766 27.8763C132.829 27.8624 132.892 27.8494 132.955 27.8376C133.185 27.7889 133.395 27.702 133.611 27.6109C133.685 27.5812 133.759 27.5517 133.833 27.5224C133.833 27.4932 133.833 27.464 133.833 27.4339C133.864 27.4234 133.895 27.4128 133.927 27.4019C134.078 27.3352 134.196 27.249 134.328 27.1491C134.373 27.1145 134.419 27.0799 134.467 27.0442C134.604 26.9383 134.604 26.9383 134.722 26.8145C134.722 26.7707 134.722 26.7269 134.722 26.6818C134.766 26.6672 134.81 26.6526 134.855 26.6376C135.003 26.4849 135.003 26.4849 135.033 26.2836C135.063 26.2836 135.092 26.2836 135.122 26.2836C135.372 25.8158 135.372 25.8158 135.522 25.3103C135.537 25.2811 135.552 25.2519 135.567 25.2218C135.63 24.5677 135.659 23.9324 135.389 23.3194C135.373 23.2824 135.357 23.2453 135.341 23.2071C135.272 23.0504 135.2 22.8967 135.122 22.7443C135.093 22.7443 135.063 22.7443 135.033 22.7443C135.03 22.7196 135.026 22.695 135.022 22.6696C134.978 22.5347 134.907 22.45 134.811 22.3461C134.782 22.3461 134.752 22.3461 134.722 22.3461C134.704 22.3064 134.704 22.3064 134.686 22.2659C134.633 22.1692 134.584 22.1066 134.5 22.0364C134.47 22.0364 134.441 22.0364 134.411 22.0364C134.411 22.0072 134.411 21.978 134.411 21.9479C133.731 21.2697 132.666 21.0454 131.739 21.0424C131.671 21.0428 131.603 21.0432 131.535 21.0437C131.5 21.0438 131.465 21.0439 131.429 21.044C130.744 21.0469 130.118 21.1229 129.476 21.3728Z" fill="white"/>
<path d="M95.5133 19.4261C95.5679 19.4468 95.6224 19.4674 95.6786 19.4887C95.9843 19.6047 96.2632 19.7302 96.5358 19.9128C96.5798 19.9274 96.6238 19.942 96.6691 19.957C96.6691 19.9862 96.6691 20.0154 96.6691 20.0455C96.7131 20.0592 96.7131 20.0592 96.758 20.0732C96.939 20.1557 97.0998 20.2657 97.247 20.3995C97.247 20.4287 97.247 20.4579 97.247 20.4879C97.2828 20.503 97.2828 20.503 97.3193 20.5184C97.5745 20.6587 97.7899 20.8713 97.9583 21.1073C97.9583 21.1365 97.9583 21.1657 97.9583 21.1958C97.9876 21.1958 98.017 21.1958 98.0472 21.1958C98.0619 21.2542 98.0766 21.3126 98.0917 21.3728C98.121 21.3728 98.1503 21.3728 98.1806 21.3728C98.3584 21.607 98.3584 21.607 98.3584 21.771C98.3877 21.771 98.4171 21.771 98.4473 21.771C98.504 21.8815 98.5605 21.9921 98.6168 22.1028C98.6326 22.1336 98.6485 22.1644 98.6648 22.1961C98.8407 22.5429 98.9661 22.901 99.0697 23.2752C99.0822 23.3156 99.0948 23.3559 99.1077 23.3975C99.3271 24.2134 99.2611 25.1259 99.0252 25.9297C99.0109 25.9899 99.0109 25.9899 98.9962 26.0514C98.9038 26.417 98.7099 26.7475 98.5362 27.08C98.5064 27.1389 98.4767 27.1978 98.4473 27.2569C98.418 27.2569 98.3886 27.2569 98.3584 27.2569C98.3538 27.2818 98.3491 27.3067 98.3443 27.3323C98.3083 27.4527 98.2534 27.5398 98.1834 27.6441C98.16 27.6794 98.1367 27.7148 98.1127 27.7512C98.0911 27.7779 98.0695 27.8046 98.0472 27.8321C98.0179 27.8321 97.9885 27.8321 97.9583 27.8321C97.9432 27.8677 97.9432 27.8677 97.9277 27.904C97.7867 28.1579 97.5731 28.3723 97.3359 28.54C97.3066 28.54 97.2773 28.54 97.247 28.54C97.2324 28.5838 97.2177 28.6276 97.2026 28.6727C97.0866 28.8201 96.9216 28.8966 96.758 28.9824C96.7287 28.9824 96.6994 28.9824 96.6691 28.9824C96.6691 29.0116 96.6691 29.0408 96.6691 29.0709C96.631 29.0895 96.5929 29.108 96.5536 29.1272C96.356 29.227 96.1644 29.3366 95.9719 29.4459C95.816 29.5171 95.6833 29.5417 95.5133 29.5575C95.5133 29.5867 95.5133 29.6159 95.5133 29.646C94.688 29.8692 93.8909 29.9808 93.035 29.9751C92.9944 29.975 92.9537 29.9749 92.9119 29.9748C92.2826 29.9725 91.6798 29.9365 91.0679 29.7787C91.0259 29.7682 90.984 29.7576 90.9408 29.7468C90.6929 29.6823 90.4782 29.6036 90.2515 29.4841C90.0405 29.3774 89.8202 29.2917 89.6009 29.2036C89.6009 29.1744 89.6009 29.1452 89.6009 29.1151C89.5422 29.1005 89.4835 29.0859 89.423 29.0709C89.423 29.0417 89.423 29.0125 89.423 28.9824C89.3735 28.9755 89.3735 28.9755 89.323 28.9686C89.192 28.936 89.1215 28.8962 89.023 28.8054C89.023 28.7762 89.023 28.747 89.023 28.7169C88.9971 28.7047 88.9713 28.6925 88.9446 28.6799C88.63 28.5171 88.4 28.2799 88.1783 28.0091C88.1426 27.9671 88.1068 27.9251 88.07 27.8819C88.0005 27.7878 88.0005 27.7878 88.0005 27.6994C87.9712 27.6994 87.9418 27.6994 87.9116 27.6994C87.8896 27.6118 87.8896 27.6118 87.8671 27.5224C87.8378 27.5224 87.8085 27.5224 87.7782 27.5224C87.7521 27.469 87.7521 27.469 87.7254 27.4146C87.6656 27.2975 87.604 27.1833 87.5393 27.0689C87.5003 26.9989 87.4614 26.9289 87.4226 26.8588C87.4036 26.8246 87.3847 26.7903 87.3651 26.7551C87.2092 26.4609 87.1086 26.1621 87.0225 25.8412C87.0091 25.7958 86.9957 25.7504 86.9819 25.7036C86.8806 25.3022 86.8762 24.9033 86.8752 24.4918C86.875 24.4338 86.8748 24.3757 86.8745 24.3158C86.8766 24.0397 86.8851 23.8011 86.9781 23.5406C87.0004 23.4249 87.0192 23.3091 87.0376 23.1927C87.113 22.8361 87.2321 22.5198 87.4059 22.1996C87.4252 22.1635 87.4445 22.1275 87.4644 22.0904C87.6345 21.7791 87.8165 21.4688 88.045 21.1958C88.0743 21.1958 88.1036 21.1958 88.1339 21.1958C88.144 21.1721 88.154 21.1484 88.1644 21.1239C88.4224 20.6594 88.9139 20.3498 89.3341 20.0455C89.3665 20.0213 89.3989 19.9971 89.4322 19.9721C90.9838 18.8649 93.7782 18.7034 95.5133 19.4261ZM90.1343 21.9479C90.1343 21.9771 90.1343 22.0063 90.1343 22.0364C90.1068 22.0474 90.0793 22.0583 90.051 22.0696C89.9393 22.135 89.9227 22.1886 89.8676 22.3019C89.8236 22.3165 89.7796 22.3311 89.7342 22.3461C89.531 22.5147 89.4276 22.7734 89.3119 23.0042C89.2858 23.0561 89.2596 23.108 89.2327 23.1615C88.8935 23.8628 88.8384 24.6399 89.023 25.3988C89.0879 25.5804 89.1645 25.7546 89.2452 25.9297C89.2753 26.0033 89.3051 26.0769 89.3341 26.1509C89.3635 26.1509 89.3928 26.1509 89.423 26.1509C89.4253 26.1818 89.4276 26.2126 89.43 26.2444C89.4808 26.4173 89.5883 26.5204 89.712 26.6459C89.9526 26.8953 89.9526 26.8953 90.001 26.9915C90.045 26.9915 90.089 26.9915 90.1343 26.9915C90.149 27.0353 90.1637 27.0791 90.1788 27.1242C90.2822 27.2154 90.2822 27.2154 90.401 27.3012C90.4322 27.3267 90.4634 27.3523 90.4955 27.3786C90.5807 27.4462 90.5807 27.4462 90.7122 27.4339C90.7122 27.4631 90.7122 27.4923 90.7122 27.5224C90.8002 27.537 90.8883 27.5516 90.979 27.5666C90.979 27.5958 90.979 27.625 90.979 27.6551C91.2728 27.7677 91.5594 27.8591 91.868 27.9206C91.8952 27.9281 91.9223 27.9356 91.9502 27.9434C92.0503 27.9658 92.1389 27.9707 92.2414 27.9712C92.2797 27.9715 92.3179 27.9718 92.3574 27.9721C92.3984 27.9721 92.4394 27.9722 92.4817 27.9722C92.5243 27.9724 92.5668 27.9725 92.6106 27.9727C92.7005 27.9729 92.7904 27.973 92.8803 27.973C93.0175 27.9731 93.1546 27.9739 93.2918 27.9748C93.3793 27.9749 93.4667 27.975 93.5542 27.975C93.6155 27.9755 93.6155 27.9755 93.678 27.976C93.8938 27.9752 94.0655 27.9577 94.2686 27.8763C94.3351 27.8641 94.4018 27.853 94.4686 27.8431C95.0319 27.7324 95.5235 27.4452 95.9579 27.08C95.9579 27.0508 95.9579 27.0216 95.9579 26.9915C95.9844 26.98 96.0109 26.9686 96.0383 26.9568C96.1429 26.899 96.1971 26.8431 96.2718 26.7509C96.3354 26.6732 96.397 26.5985 96.4694 26.5287C96.7047 26.2872 96.8324 25.9632 96.9497 25.6532C96.961 25.6234 96.9724 25.5936 96.984 25.5629C97.1092 25.2198 97.1218 24.9054 97.122 24.5444C97.1225 24.5004 97.1231 24.4564 97.1237 24.411C97.1242 24.1379 97.0976 23.8924 97.0248 23.6291C97.0083 23.5666 97.0083 23.5666 96.9916 23.5028C96.9304 23.2975 96.8627 23.1097 96.758 22.9212C96.7287 22.9212 96.6994 22.9212 96.6691 22.9212C96.6644 22.8962 96.6596 22.8711 96.6547 22.8452C96.5802 22.5948 96.3814 22.3337 96.1801 22.1691C96.1508 22.1691 96.1214 22.1691 96.0912 22.1691C96.0765 22.1253 96.0619 22.0815 96.0468 22.0364C96.0174 22.0364 95.9881 22.0364 95.9579 22.0364C95.9579 22.0072 95.9579 21.978 95.9579 21.9479C95.8992 21.9333 95.8405 21.9187 95.78 21.9037C95.78 21.8745 95.78 21.8453 95.78 21.8152C95.7067 21.786 95.6333 21.7568 95.5578 21.7267C95.5578 21.6975 95.5578 21.6683 95.5578 21.6382C94.7435 21.2175 93.9759 21.0359 93.0572 21.0437C93.0234 21.0439 92.9895 21.044 92.9547 21.0441C91.8946 21.0504 90.9635 21.2506 90.1343 21.9479Z" fill="white"/>
<path d="M64.8346 19.0664C64.8637 19.0663 64.8929 19.0663 64.9229 19.0663C64.9842 19.0662 65.0456 19.0663 65.1069 19.0665C65.201 19.0667 65.295 19.0665 65.3891 19.0662C65.4487 19.0662 65.5084 19.0663 65.5681 19.0664C65.6224 19.0664 65.6766 19.0665 65.7326 19.0665C65.8622 19.0723 65.8622 19.0723 65.9512 19.1165C65.9553 19.903 65.9585 20.6895 65.9604 21.4761C65.9613 21.8414 65.9625 22.2067 65.9646 22.572C65.9664 22.8908 65.9675 23.2096 65.9679 23.5284C65.9681 23.6968 65.9686 23.8653 65.97 24.0337C65.9777 25.0642 65.9093 26.0031 65.4622 26.9473C65.4457 26.9829 65.4293 27.0185 65.4123 27.0551C65.2801 27.3313 65.1277 27.5977 64.9287 27.8321C64.8994 27.8321 64.87 27.8321 64.8398 27.8321C64.8251 27.8905 64.8105 27.9489 64.7953 28.0091C64.766 28.0091 64.7367 28.0091 64.7064 28.0091C64.6963 28.0337 64.6863 28.0584 64.6759 28.0838C64.5317 28.3366 64.2686 28.5222 64.0532 28.7132C63.9534 28.8006 63.9534 28.8006 63.8779 28.882C63.7923 28.9614 63.7086 28.9672 63.5951 28.9824C63.5951 29.0116 63.5951 29.0408 63.5951 29.0709C63.4825 29.1467 63.3707 29.2161 63.2533 29.2838C63.2016 29.3138 63.2016 29.3138 63.1489 29.3443C62.8627 29.5067 62.5733 29.6287 62.2614 29.7345C62.2081 29.7546 62.1549 29.7746 62.0999 29.7952C61.826 29.8974 61.5762 29.9825 61.2834 30C61.1839 29.8019 61.2308 29.529 61.2307 29.3115C61.2301 29.2561 61.2296 29.2008 61.229 29.1438C61.2283 28.7129 61.2281 28.2884 61.5502 27.9649C61.7852 27.7751 62.0406 27.6255 62.3069 27.4841C62.4199 27.4197 62.5165 27.3389 62.6171 27.257C62.6464 27.257 62.6758 27.257 62.706 27.257C62.7207 27.2132 62.7353 27.1694 62.7504 27.1243C62.7798 27.1243 62.8091 27.1243 62.8393 27.1243C62.854 27.0805 62.8687 27.0367 62.8838 26.9915C62.9579 26.9326 63.032 26.8736 63.1061 26.8146C63.1207 26.7708 63.1354 26.727 63.1505 26.6818C63.1799 26.6818 63.2092 26.6818 63.2394 26.6818C63.2574 26.6459 63.2574 26.6459 63.2757 26.6093C63.3137 26.534 63.3521 26.4589 63.3907 26.3839C63.6758 25.8265 63.8308 25.3513 63.8294 24.7239C63.8296 24.6705 63.8299 24.617 63.8301 24.562C63.8307 24.4164 63.8309 24.2708 63.8309 24.1252C63.8311 23.9722 63.8319 23.8193 63.8327 23.6663C63.8349 23.212 63.8363 22.7576 63.8372 22.3032C63.838 21.9496 63.839 21.5961 63.8409 21.2426C63.8417 21.0906 63.8423 20.9386 63.8422 20.7867C63.8422 20.6171 63.843 20.4476 63.844 20.2781C63.8438 20.2282 63.8436 20.1783 63.8434 20.1269C63.8462 19.8193 63.8592 19.5284 64.0797 19.2909C64.1245 19.2607 64.1245 19.2607 64.1702 19.2299C64.2148 19.1985 64.2148 19.1985 64.2603 19.1664C64.4471 19.0633 64.6234 19.0666 64.8346 19.0664Z" fill="white"/>
<path d="M54.6595 19.0722C54.7871 19.0551 54.7871 19.0551 54.949 19.0546C55.0367 19.0544 55.0367 19.0544 55.1262 19.0541C55.1721 19.0545 55.1721 19.0545 55.219 19.0549C55.3114 19.0556 55.4037 19.055 55.4961 19.0541C55.5555 19.0542 55.6148 19.0544 55.6742 19.0546C55.7279 19.0548 55.7815 19.0549 55.8368 19.0551C56.1324 19.0875 56.3292 19.2016 56.5266 19.4262C56.6232 19.5703 56.6268 19.611 56.6276 19.7777C56.6283 19.8454 56.6283 19.8454 56.6289 19.9145C56.629 19.964 56.629 20.0135 56.629 20.0645C56.6294 20.1167 56.6298 20.1689 56.6301 20.2226C56.6311 20.3658 56.6317 20.5089 56.6321 20.6521C56.6326 20.802 56.6337 20.952 56.6347 21.1019C56.6365 21.3863 56.638 21.6706 56.6392 21.9549C56.6415 22.4635 56.6443 22.972 56.6475 23.4806C56.6484 23.6297 56.6492 23.7789 56.6498 23.9281C56.6504 24.0947 56.6513 24.2613 56.6523 24.4279C56.6524 24.477 56.6525 24.5262 56.6526 24.5768C56.6278 24.966 56.6278 24.966 56.7489 25.3103C56.7622 25.3765 56.774 25.4429 56.785 25.5094C56.8298 25.7422 56.9106 25.9393 57.0156 26.1509C57.0367 26.1966 57.0578 26.2422 57.0795 26.2892C57.1372 26.3949 57.1974 26.4857 57.2685 26.5823C57.3713 26.7261 57.3713 26.7261 57.3713 26.8146C57.4153 26.8292 57.4593 26.8438 57.5046 26.8588C57.5046 26.888 57.5046 26.9172 57.5046 26.9473C57.5486 26.9619 57.5927 26.9765 57.638 26.9915C57.713 27.0551 57.713 27.0551 57.7714 27.1243C57.7714 27.1535 57.7714 27.1827 57.7714 27.2127C57.8447 27.2419 57.9181 27.2711 57.9936 27.3012C57.9936 27.3304 57.9936 27.3596 57.9936 27.3897C58.0523 27.4043 58.111 27.4189 58.1714 27.434C58.1714 27.4632 58.1714 27.4923 58.1714 27.5224C58.1951 27.5266 58.2187 27.5308 58.243 27.5351C58.3841 27.577 58.4998 27.6452 58.6271 27.7188C58.675 27.7461 58.7229 27.7734 58.7723 27.8015C58.8087 27.8262 58.8452 27.8509 58.8827 27.8764C58.8827 27.9056 58.8827 27.9348 58.8827 27.9649C58.9267 27.9795 58.9707 27.9941 59.0161 28.0091C59.0627 28.085 59.1092 28.1611 59.151 28.2396C59.1982 28.3297 59.1982 28.3297 59.2828 28.4515C59.2904 28.5672 59.2931 28.678 59.2915 28.7935C59.2914 28.8267 59.2912 28.8599 59.2911 28.8941C59.2906 29.0001 59.2895 29.106 59.2884 29.2119C59.2879 29.2838 59.2875 29.3556 59.2872 29.4275C59.2862 29.6036 59.2846 29.7797 59.2828 29.9557C58.9975 30.0504 58.688 29.8946 58.4227 29.7831C58.3278 29.744 58.2331 29.7086 58.1365 29.6739C57.9429 29.6021 57.7606 29.513 57.5769 29.4193C57.5453 29.4034 57.5137 29.3875 57.4812 29.3711C57.4 29.3302 57.319 29.289 57.2379 29.2479C57.2086 29.2333 57.1792 29.2187 57.149 29.2036C57.149 29.1744 57.149 29.1452 57.149 29.1151C57.0756 29.1005 57.0023 29.0859 56.9267 29.0709C56.9267 29.0417 56.9267 29.0125 56.9267 28.9824C56.868 28.9678 56.8094 28.9532 56.7489 28.9382C56.7489 28.909 56.7489 28.8798 56.7489 28.8497C56.7159 28.8378 56.6829 28.826 56.6489 28.8137C56.5315 28.7633 56.4441 28.7128 56.3488 28.6285C56.3488 28.5993 56.3488 28.5701 56.3488 28.54C56.3048 28.5254 56.2608 28.5108 56.2155 28.4958C56.2155 28.4666 56.2155 28.4374 56.2155 28.4073C56.1889 28.3954 56.1623 28.3835 56.1349 28.3713C56.0377 28.3188 55.9748 28.2703 55.9043 28.1861C55.9043 28.1569 55.9043 28.1277 55.9043 28.0976C55.8603 28.083 55.8163 28.0684 55.7709 28.0533C55.694 27.9589 55.6235 27.8655 55.5542 27.7658C55.5244 27.7234 55.5244 27.7234 55.494 27.6803C54.7742 26.646 54.5637 25.5611 54.5642 24.3201C54.564 24.2645 54.5639 24.209 54.5637 24.1517C54.5634 24.0016 54.5632 23.8514 54.5632 23.7013C54.5632 23.6073 54.5631 23.5133 54.563 23.4193C54.5625 23.091 54.5624 22.7627 54.5624 22.4344C54.5624 22.1287 54.562 21.8231 54.5613 21.5175C54.5607 21.2543 54.5604 20.991 54.5605 20.7277C54.5605 20.5708 54.5603 20.4139 54.5599 20.257C54.5594 20.0827 54.5596 19.9084 54.5598 19.7341C54.5596 19.6822 54.5593 19.6303 54.5591 19.5768C54.5593 19.5295 54.5595 19.4822 54.5596 19.4334C54.5596 19.3923 54.5596 19.3511 54.5596 19.3087C54.5706 19.205 54.5706 19.205 54.6595 19.0722Z" fill="white"/>
<path d="M44.8734 19.064C45.0139 19.0639 45.1544 19.0631 45.2949 19.0623C46.8888 19.0579 46.8888 19.0579 47.5466 19.4261C47.6337 19.4732 47.7207 19.5202 47.8078 19.5672C47.8838 19.6086 47.9597 19.65 48.0356 19.6916C48.0356 19.7208 48.0356 19.75 48.0356 19.7801C48.0668 19.7901 48.098 19.8001 48.1301 19.8105C48.3987 19.9325 48.5786 20.1387 48.7525 20.369C48.7718 20.3944 48.7911 20.4197 48.811 20.4458C48.9493 20.6305 49.0556 20.8078 49.147 21.0188C49.1699 21.0645 49.1928 21.1101 49.2165 21.1571C49.5041 21.8539 49.5177 22.752 49.2251 23.4514C49.1886 23.5241 49.1507 23.596 49.1107 23.6668C49.0542 23.7636 49.0542 23.7636 49.0124 23.8818C48.9692 23.983 48.9692 23.983 48.8803 24.0273C48.8656 24.0711 48.8509 24.1149 48.8358 24.16C48.7627 24.2347 48.6885 24.3084 48.6135 24.3812C48.5709 24.4373 48.5709 24.4373 48.5274 24.4946C48.4214 24.6192 48.3068 24.6919 48.169 24.7794C48.1481 24.8004 48.1273 24.8215 48.1058 24.8432C47.8703 25.0746 47.5481 25.2039 47.2438 25.3214C47.2165 25.3322 47.1892 25.3431 47.161 25.3543C46.5318 25.5867 45.8547 25.5432 45.1952 25.5401C45.0884 25.54 44.9816 25.5399 44.8748 25.5398C44.5954 25.5394 44.316 25.5386 44.0366 25.5376C43.7508 25.5367 43.465 25.5363 43.1792 25.5358C42.6198 25.5349 42.0603 25.5334 41.5008 25.5315C41.3017 25.1671 41.3924 24.6364 41.5008 24.2485C41.5675 24.1075 41.5675 24.1075 41.6342 24.0273C41.6635 24.0273 41.6929 24.0273 41.7231 24.0273C41.7671 23.9397 41.7671 23.9397 41.812 23.8503C41.8413 23.8503 41.8707 23.8503 41.9009 23.8503C41.9009 23.8211 41.9009 23.7919 41.9009 23.7618C41.9534 23.7327 42.0063 23.7043 42.0593 23.6761C42.1034 23.6522 42.1034 23.6522 42.1484 23.6279C42.3942 23.5301 42.661 23.5339 42.9225 23.5329C42.9565 23.5326 42.9905 23.5324 43.0256 23.532C43.0989 23.5314 43.1723 23.5309 43.2457 23.5305C43.3622 23.5297 43.4786 23.5287 43.5951 23.5276C43.9261 23.5245 44.2572 23.5218 44.5882 23.5195C44.7912 23.5181 44.9942 23.5163 45.1972 23.5142C45.2741 23.5135 45.351 23.513 45.428 23.5126C46.1616 23.5256 46.1616 23.5256 46.8354 23.2752C46.9344 23.163 46.9344 23.163 47.0132 23.054C47.0425 23.0394 47.0719 23.0248 47.1021 23.0097C47.3035 22.7276 47.3602 22.343 47.3049 22.0032C47.2329 21.7499 47.0575 21.4917 46.8253 21.3615C46.7993 21.3506 46.7733 21.3398 46.7465 21.3285C46.7465 21.2993 46.7465 21.2701 46.7465 21.24C46.6844 21.2262 46.6224 21.2124 46.5603 21.1986C46.5257 21.1909 46.4912 21.1832 46.4556 21.1752C46.4195 21.1674 46.3835 21.1596 46.3464 21.1516C46.313 21.1439 46.2797 21.1363 46.2454 21.1285C46.1124 21.1053 45.9875 21.1007 45.8525 21.0995C45.7986 21.0989 45.7446 21.0984 45.6891 21.0978C45.6309 21.0974 45.5728 21.0971 45.5128 21.0968C45.4678 21.0965 45.4678 21.0965 45.4219 21.0962C45.2623 21.0953 45.1027 21.0947 44.9431 21.0943C44.8129 21.0939 44.6829 21.093 44.5528 21.0915C43.3204 21.0784 42.1193 21.1156 41.1424 21.9673C41.0118 22.0806 41.0118 22.0806 40.9229 22.0806C40.9009 22.1463 40.9009 22.1463 40.8785 22.2134C40.8491 22.2134 40.8198 22.2134 40.7896 22.2134C40.7786 22.238 40.7676 22.2626 40.7562 22.288C40.7006 22.3903 40.7006 22.3903 40.609 22.5037C40.5155 22.608 40.5155 22.608 40.4784 22.7443C40.4344 22.7662 40.4344 22.7662 40.3895 22.7885C40.3341 22.9012 40.283 23.0132 40.2339 23.1286C40.2202 23.16 40.2065 23.1913 40.1924 23.2236C39.897 23.9068 39.8017 24.8216 40.0783 25.5315C40.0901 25.5642 40.102 25.5969 40.1142 25.6305C40.2337 25.9478 40.3881 26.2439 40.5977 26.5121C40.6562 26.5933 40.6562 26.5933 40.6562 26.6818C40.7002 26.6964 40.7442 26.711 40.7896 26.726C40.7896 26.7552 40.7896 26.7844 40.7896 26.8145C40.8336 26.8291 40.8776 26.8437 40.9229 26.8588C40.9979 26.9224 40.9979 26.9224 41.0563 26.9915C41.0563 27.0207 41.0563 27.0499 41.0563 27.08C41.0892 27.0915 41.1222 27.1031 41.1561 27.1151C41.2797 27.1689 41.3579 27.2275 41.4592 27.315C41.6893 27.4991 41.9375 27.5974 42.2121 27.6994C42.2499 27.715 42.2876 27.7306 42.3265 27.7467C42.4301 27.7862 42.5287 27.8125 42.6372 27.8348C42.8301 27.8751 42.8301 27.8751 42.9172 27.8994C43.0173 27.9217 43.1054 27.9261 43.2079 27.9261C43.2468 27.9262 43.2856 27.9263 43.3257 27.9264C43.368 27.9263 43.4103 27.9262 43.4539 27.9261C43.4987 27.9262 43.5436 27.9263 43.5898 27.9264C43.6872 27.9266 43.7845 27.9267 43.8819 27.9267C44.0893 27.9268 44.2966 27.9278 44.504 27.9287C44.89 27.9304 45.276 27.9317 45.662 27.9316C45.9305 27.9316 46.1991 27.9326 46.4676 27.9344C46.5697 27.9348 46.6719 27.9349 46.774 27.9346C46.9173 27.9341 47.0606 27.9351 47.2039 27.9363C47.2456 27.9359 47.2874 27.9354 47.3304 27.935C47.6803 27.9404 47.9849 28.0435 48.2329 28.2966C48.2558 28.3331 48.2787 28.3696 48.3024 28.4072C48.3271 28.4419 48.3519 28.4766 48.3774 28.5123C48.5158 28.7879 48.487 29.1154 48.4857 29.4165C48.4859 29.4587 48.4861 29.5008 48.4863 29.5443C48.4862 29.6046 48.4862 29.6046 48.4861 29.6662C48.486 29.7027 48.486 29.7392 48.4859 29.7768C48.4802 29.8672 48.4802 29.8672 48.4357 29.9557C47.7354 29.9609 47.0351 29.9648 46.3348 29.9671C46.0095 29.9683 45.6843 29.9698 45.359 29.9724C45.0749 29.9746 44.7908 29.976 44.5068 29.9765C44.3568 29.9768 44.207 29.9776 44.057 29.9791C43.1875 29.9875 42.3724 29.9179 41.5464 29.6326C41.4512 29.6 41.3553 29.5703 41.2591 29.5409C41.0655 29.4773 40.8883 29.3899 40.7079 29.2959C40.6078 29.243 40.6078 29.243 40.4784 29.2036C40.4784 29.1744 40.4784 29.1452 40.4784 29.1151C40.452 29.1097 40.4256 29.1043 40.3984 29.0987C40.2442 29.0548 40.1254 28.9567 39.9977 28.8635C39.9698 28.8432 39.9419 28.823 39.9131 28.8021C39.8345 28.7447 39.7562 28.6867 39.6782 28.6284C39.6466 28.6049 39.6149 28.5814 39.5823 28.5572C39.3406 28.3643 39.1576 28.1174 38.9669 27.8763C38.9247 27.8254 38.9247 27.8254 38.8817 27.7735C38.1235 26.8457 37.7054 25.4385 37.8111 24.2485C37.8889 23.5911 38.034 22.9696 38.2557 22.3461C38.285 22.3461 38.3143 22.3461 38.3446 22.3461C38.3491 22.3077 38.3536 22.2692 38.3583 22.2296C38.391 22.0709 38.4445 21.9608 38.5252 21.8207C38.5495 21.778 38.5739 21.7352 38.599 21.6911C38.6177 21.6591 38.6364 21.627 38.6557 21.594C38.6851 21.594 38.7144 21.594 38.7447 21.594C38.7538 21.5648 38.763 21.5356 38.7724 21.5055C38.8554 21.3254 38.9658 21.1654 39.1003 21.0188C39.1296 21.0188 39.159 21.0188 39.1892 21.0188C39.1997 20.994 39.2103 20.9691 39.2211 20.9435C39.291 20.8189 39.3766 20.7322 39.4782 20.6317C39.5134 20.5964 39.5487 20.561 39.5851 20.5246C39.6782 20.4437 39.6782 20.4437 39.7671 20.4437C39.7671 20.4145 39.7671 20.3853 39.7671 20.3552C40.4671 19.7801 40.4671 19.7801 40.7896 19.7801C40.7896 19.7509 40.7896 19.7217 40.7896 19.6916C41.6314 19.3584 42.4141 19.1243 43.3259 19.091C43.3719 19.0893 43.418 19.0875 43.4654 19.0857C43.9347 19.0689 44.4039 19.064 44.8734 19.064Z" fill="white"/>
<path d="M106.998 14.0107C107.059 14.0098 107.12 14.0083 107.182 14.0062C107.586 13.9925 107.916 14.0112 108.227 14.2941C108.249 14.3598 108.249 14.3598 108.271 14.4268C108.315 14.4414 108.359 14.456 108.405 14.4711C108.531 14.6678 108.555 14.8212 108.555 15.0519C108.555 15.098 108.555 15.098 108.555 15.145C108.556 15.2475 108.555 15.3499 108.555 15.4524C108.555 15.5261 108.555 15.5998 108.555 15.6736C108.555 15.8322 108.555 15.9909 108.555 16.1496C108.555 16.4015 108.555 16.6535 108.556 16.9054C108.557 17.5319 108.558 18.1584 108.558 18.7849C108.558 19.2706 108.558 19.7564 108.559 20.2421C108.56 20.451 108.56 20.6599 108.56 20.8687C108.556 22.2478 108.63 23.4935 109.278 24.7398C109.339 24.8688 109.385 24.9973 109.427 25.1333C109.457 25.1333 109.486 25.1333 109.516 25.1333C109.694 25.432 109.694 25.432 109.694 25.5315C109.738 25.5461 109.782 25.5607 109.827 25.5758C109.827 25.6196 109.827 25.6634 109.827 25.7085C109.871 25.7231 109.915 25.7377 109.961 25.7527C110.021 25.8261 110.08 25.8999 110.139 25.9739C110.179 26.005 110.219 26.036 110.261 26.068C110.294 26.0953 110.327 26.1227 110.361 26.1509C110.361 26.1947 110.361 26.2385 110.361 26.2836C110.401 26.3028 110.401 26.3028 110.441 26.3223C110.539 26.3721 110.539 26.3721 110.672 26.4606C110.672 26.4898 110.672 26.519 110.672 26.5491C110.697 26.5607 110.722 26.5724 110.748 26.5843C110.858 26.6418 110.953 26.7086 111.053 26.7814C111.287 26.946 111.529 27.0817 111.783 27.2127C111.847 27.247 111.847 27.247 111.913 27.282C112.231 27.4485 112.549 27.5579 112.895 27.6551C112.951 27.6735 112.951 27.6735 113.008 27.6923C113.275 27.7797 113.541 27.8219 113.819 27.8573C113.962 27.8763 113.962 27.8763 114.056 27.8993C114.235 27.9291 114.41 27.927 114.591 27.9269C114.632 27.927 114.672 27.9272 114.714 27.9273C114.802 27.9276 114.891 27.9279 114.979 27.928C115.118 27.9284 115.258 27.9291 115.397 27.9299C115.794 27.9322 116.191 27.9343 116.588 27.935C116.831 27.9354 117.074 27.9367 117.317 27.9386C117.409 27.9391 117.502 27.9394 117.594 27.9393C117.724 27.9392 117.853 27.9402 117.983 27.9414C118.02 27.9411 118.058 27.9408 118.097 27.9405C118.363 27.9446 118.533 28.0094 118.763 28.1418C118.763 28.171 118.763 28.2002 118.763 28.2303C118.807 28.2449 118.851 28.2595 118.896 28.2745C118.896 28.3037 118.896 28.3329 118.896 28.363C118.925 28.363 118.955 28.363 118.985 28.363C119.189 28.6837 119.186 28.9607 119.177 29.3336C119.176 29.3886 119.176 29.4436 119.175 29.5002C119.17 29.904 119.17 29.904 119.118 29.9557C119.057 29.9602 118.996 29.9617 118.934 29.9619C118.895 29.9622 118.855 29.9624 118.814 29.9627C118.77 29.9627 118.726 29.9628 118.681 29.9628C118.612 29.9632 118.612 29.9632 118.541 29.9635C118.387 29.9642 118.234 29.9644 118.08 29.9647C117.973 29.9649 117.866 29.9652 117.759 29.9655C117.533 29.9659 117.308 29.9662 117.082 29.9663C116.796 29.9666 116.509 29.9676 116.223 29.9689C116.001 29.9697 115.779 29.97 115.557 29.97C115.451 29.9702 115.346 29.9705 115.241 29.9711C114.048 29.9773 112.847 29.8688 111.735 29.4148C111.65 29.3807 111.565 29.3486 111.479 29.317C110.937 29.1141 110.459 28.8305 109.974 28.5154C109.876 28.451 109.876 28.451 109.78 28.4097C109.672 28.351 109.602 28.2742 109.516 28.186C109.444 28.1261 109.371 28.0671 109.297 28.0091C109.26 27.9799 109.223 27.9507 109.184 27.9206C109.107 27.8599 109.03 27.7995 108.952 27.7393C108.84 27.6473 108.761 27.5477 108.672 27.4339C108.638 27.4003 108.603 27.3667 108.568 27.3321C108.365 27.1285 108.187 26.9039 108.005 26.6818C107.975 26.6458 107.945 26.6098 107.915 26.5728C107.739 26.3553 107.601 26.132 107.471 25.8855C107.435 25.8208 107.399 25.7563 107.363 25.6919C107.345 25.6593 107.327 25.6267 107.308 25.593C107.265 25.5167 107.222 25.4407 107.179 25.3649C107.053 25.1415 106.957 24.9406 106.893 24.6909C106.866 24.6262 106.838 24.5617 106.81 24.4974C106.678 24.1752 106.611 23.8357 106.538 23.4964C106.528 23.4535 106.518 23.4105 106.508 23.3663C106.377 22.7321 106.398 22.0662 106.399 21.4216C106.399 21.3409 106.398 21.2603 106.398 21.1796C106.398 20.9631 106.398 20.7466 106.398 20.5301C106.399 20.3028 106.398 20.0756 106.398 19.8484C106.398 19.4677 106.398 19.0871 106.399 18.7064C106.399 18.266 106.399 17.8256 106.399 17.3851C106.398 17.0062 106.398 16.6273 106.398 16.2484C106.398 16.0224 106.398 15.7964 106.398 15.5704C106.398 15.3586 106.398 15.1468 106.399 14.935C106.399 14.8571 106.399 14.7792 106.398 14.7013C106.398 14.5955 106.399 14.4897 106.399 14.3839C106.399 14.3527 106.399 14.3215 106.398 14.2893C106.4 13.9088 106.672 14.0145 106.998 14.0107Z" fill="white"/>
<path d="M15.2677 14.0215C15.3371 14.0208 15.3371 14.0208 15.408 14.0202C15.4585 14.02 15.5089 14.0198 15.5609 14.0196C15.6125 14.0194 15.6641 14.0191 15.7173 14.0189C15.8268 14.0184 15.9364 14.0181 16.0459 14.018C16.2132 14.0176 16.3805 14.0162 16.5479 14.0148C16.6542 14.0145 16.7605 14.0143 16.8668 14.0141C16.9418 14.0133 16.9418 14.0133 17.0184 14.0124C17.3088 14.0133 17.5271 14.0241 17.7486 14.2319C17.7772 14.2689 17.7772 14.2689 17.8064 14.3067C17.8276 14.3338 17.8488 14.3609 17.8707 14.3889C17.8917 14.4169 17.9128 14.4449 17.9346 14.4738C17.9567 14.502 17.9788 14.5302 18.0016 14.5593C18.1624 14.7679 18.1624 14.7679 18.1624 14.8692C18.1917 14.8692 18.2211 14.8692 18.2513 14.8692C18.2733 14.9568 18.2733 14.9568 18.2957 15.0462C18.3251 15.0462 18.3544 15.0462 18.3847 15.0462C18.4388 15.122 18.4388 15.122 18.4958 15.2204C18.5707 15.3583 18.5707 15.3583 18.6958 15.4443C18.6958 15.4881 18.6958 15.5319 18.6958 15.5771C18.7619 15.599 18.7619 15.599 18.8292 15.6213C18.882 15.7347 18.882 15.7347 18.9181 15.8425C18.9474 15.8425 18.9768 15.8425 19.007 15.8425C19.007 15.8863 19.007 15.9301 19.007 15.9752C19.073 15.9971 19.073 15.9971 19.1404 16.0195C19.2234 16.1194 19.2234 16.1194 19.3126 16.2462C19.3439 16.2901 19.3751 16.3341 19.4073 16.3793C19.4366 16.4212 19.4658 16.463 19.496 16.5061C19.6284 16.7014 19.6284 16.7014 19.7822 16.8793C19.8606 16.9574 19.9264 17.0403 19.9934 17.1283C20.0169 17.1589 20.0405 17.1896 20.0647 17.2211C20.1184 17.3025 20.1184 17.3025 20.1184 17.391C20.1844 17.4129 20.1844 17.4129 20.2517 17.4352C20.4296 17.6729 20.4296 17.6729 20.4296 17.7892C20.4589 17.7892 20.4882 17.7892 20.5185 17.7892C20.5231 17.8174 20.5276 17.8457 20.5324 17.8749C20.5424 17.905 20.5525 17.9351 20.5629 17.9661C20.6289 17.988 20.6289 17.988 20.6963 18.0104C20.7809 18.1149 20.7809 18.1149 20.8713 18.2454C20.9813 18.4034 21.0915 18.54 21.2297 18.674C21.2754 18.747 21.3197 18.8209 21.3631 18.8952C21.4004 18.9509 21.4384 19.0062 21.477 19.0611C21.4954 19.0873 21.5138 19.1136 21.5328 19.1406C21.5834 19.2115 21.5834 19.2115 21.6743 19.2491C21.6743 19.2929 21.6743 19.3367 21.6743 19.3819C21.7036 19.3819 21.733 19.3819 21.7632 19.3819C21.8205 19.4465 21.8205 19.4465 21.8799 19.5312C21.8997 19.5589 21.9195 19.5866 21.94 19.6152C21.9855 19.6916 21.9855 19.6916 21.9855 19.78C22.0148 19.78 22.0441 19.78 22.0744 19.78C22.089 19.8384 22.1037 19.8968 22.1188 19.957C22.1482 19.957 22.1775 19.957 22.2077 19.957C22.2734 20.0312 22.2734 20.0312 22.3498 20.135C22.3778 20.1727 22.4058 20.2104 22.4347 20.2493C22.4643 20.2897 22.4939 20.3301 22.5245 20.3718C22.5848 20.4532 22.6452 20.5345 22.7056 20.6158C22.7347 20.655 22.7637 20.6941 22.7937 20.7344C22.9162 20.8971 23.0446 21.0542 23.1758 21.21C23.2302 21.2843 23.2302 21.2843 23.2302 21.3727C23.2595 21.3727 23.2889 21.3727 23.3191 21.3727C23.3764 21.4374 23.3764 21.4374 23.4358 21.5221C23.4556 21.5498 23.4754 21.5775 23.4959 21.6061C23.5414 21.6824 23.5414 21.6824 23.5414 21.7709C23.5707 21.7709 23.6001 21.7709 23.6303 21.7709C23.6876 21.8356 23.6876 21.8356 23.747 21.9202C23.7668 21.948 23.7866 21.9757 23.8071 22.0042C23.8526 22.0806 23.8526 22.0806 23.8526 22.1691C23.8819 22.1691 23.9112 22.1691 23.9415 22.1691C23.9415 22.2129 23.9415 22.2567 23.9415 22.3018C23.9855 22.3164 24.0295 22.331 24.0748 22.3461C24.1312 22.4062 24.1312 22.4062 24.1874 22.4835C24.2085 22.5121 24.2297 22.5408 24.2515 22.5703C24.2851 22.6167 24.2851 22.6167 24.3193 22.6641C24.3667 22.7285 24.4142 22.7928 24.4617 22.8571C24.4859 22.8898 24.51 22.9225 24.5349 22.9562C24.6689 23.1347 24.8093 23.3082 24.9505 23.4812C25.0973 23.6638 25.0973 23.6638 25.0973 23.7618C25.1266 23.7618 25.156 23.7618 25.1862 23.7618C25.2404 23.8377 25.2404 23.8377 25.2973 23.936C25.3722 24.0739 25.3722 24.0739 25.4974 24.16C25.4974 24.2038 25.4974 24.2476 25.4974 24.2927C25.5414 24.3073 25.5854 24.3219 25.6307 24.337C25.7118 24.4237 25.7118 24.4237 25.7947 24.5305C25.8223 24.5655 25.85 24.6005 25.8785 24.6366C25.9419 24.7351 25.9419 24.7351 25.9419 24.8679C25.9859 24.8825 26.0299 24.8971 26.0753 24.9121C26.1598 25.0167 26.1598 25.0167 26.2503 25.1471C26.3377 25.2726 26.4192 25.3872 26.5283 25.4947C26.6087 25.5757 26.6087 25.5757 26.6532 25.7084C26.6966 25.7537 26.7412 25.7978 26.7865 25.8412C26.9199 26.0034 26.9199 26.0034 26.9199 26.1066C26.9639 26.1212 27.0079 26.1358 27.0533 26.1509C27.0533 26.1947 27.0533 26.2385 27.0533 26.2836C27.0973 26.2982 27.1413 26.3128 27.1866 26.3278C27.3645 26.5655 27.3645 26.5655 27.3645 26.6818C27.3938 26.6818 27.4231 26.6818 27.4534 26.6818C27.5244 26.7689 27.5908 26.856 27.6562 26.9472C27.7209 27.0367 27.7864 27.1249 27.8535 27.2127C27.8681 27.2127 27.8828 27.2127 27.8979 27.2127C27.8979 27.1866 27.898 27.1605 27.898 27.1336C27.8996 25.5879 27.9021 24.0421 27.9058 22.4964C27.9063 22.3108 27.9067 22.1251 27.9071 21.9395C27.9073 21.8841 27.9073 21.8841 27.9074 21.8275C27.9088 21.2293 27.9095 20.631 27.9101 20.0327C27.9106 19.4188 27.9118 18.8049 27.9137 18.191C27.9148 17.8122 27.9154 17.4334 27.9153 17.0546C27.9153 16.7948 27.916 16.535 27.9171 16.2752C27.9178 16.1254 27.918 15.9755 27.9177 15.8257C27.9174 15.663 27.9182 15.5004 27.9193 15.3378C27.9188 15.2671 27.9188 15.2671 27.9182 15.1949C27.9223 14.8417 27.9963 14.6061 28.2369 14.3438C28.2717 14.3128 28.3066 14.2818 28.3425 14.2498C28.3718 14.2206 28.4011 14.1914 28.4314 14.1613C28.7124 13.9944 28.9937 14.0111 29.3144 14.0162C29.4045 14.0176 29.4946 14.018 29.5847 14.0182C30.0249 14.0218 30.0249 14.0218 30.0762 14.0728C30.0806 14.157 30.0818 14.2413 30.0818 14.3255C30.0819 14.4084 30.0819 14.4084 30.0821 14.4929C30.082 14.555 30.0819 14.6171 30.0818 14.6792C30.0819 14.7445 30.0819 14.8098 30.082 14.8752C30.0822 15.0556 30.0821 15.236 30.082 15.4164C30.0819 15.6106 30.082 15.8048 30.0822 15.999C30.0824 16.3798 30.0823 16.7607 30.0822 17.1415C30.0821 17.4508 30.0821 17.7602 30.0821 18.0695C30.0821 18.1135 30.0821 18.1574 30.0821 18.2027C30.0822 18.2919 30.0822 18.3812 30.0822 18.4704C30.0823 19.3083 30.0822 20.1462 30.0819 20.9841C30.0817 21.7039 30.0818 22.4237 30.082 23.1435C30.0822 23.9783 30.0823 24.8132 30.0822 25.648C30.0822 25.7369 30.0821 25.8258 30.0821 25.9147C30.0821 25.9585 30.0821 26.0023 30.0821 26.0473C30.0821 26.3565 30.0821 26.6657 30.0822 26.9749C30.0824 27.3514 30.0823 27.7279 30.0821 28.1044C30.082 28.2966 30.0819 28.4889 30.0821 28.6812C30.0822 28.857 30.0821 29.0327 30.0819 29.2084C30.0818 29.2723 30.0819 29.3362 30.082 29.4C30.0821 29.4863 30.082 29.5725 30.0818 29.6587C30.0818 29.7068 30.0818 29.7549 30.0817 29.8044C30.0762 29.9114 30.0762 29.9114 30.0317 29.9557C29.9624 29.9607 29.8929 29.9627 29.8235 29.9635C29.7791 29.9641 29.7347 29.9646 29.689 29.9652C29.6406 29.9655 29.5922 29.9659 29.5424 29.9662C29.4929 29.9666 29.4433 29.9669 29.3923 29.9673C29.2871 29.9679 29.182 29.9684 29.0768 29.9687C28.9164 29.9695 28.756 29.9714 28.5956 29.9734C28.4935 29.9738 28.3914 29.9742 28.2893 29.9745C28.2415 29.9753 28.1936 29.976 28.1443 29.9768C27.8572 29.976 27.6884 29.9451 27.4534 29.7787C27.4094 29.7495 27.3653 29.7203 27.32 29.6902C27.32 29.6464 27.32 29.6026 27.32 29.5575C27.276 29.5429 27.232 29.5283 27.1866 29.5132C27.1178 29.4309 27.0524 29.3456 26.9894 29.2589C26.8413 29.0563 26.8413 29.0563 26.685 28.86C26.6087 28.7611 26.6087 28.7611 26.6087 28.6726C26.5794 28.6726 26.55 28.6726 26.5198 28.6726C26.5051 28.6143 26.4905 28.5559 26.4754 28.4957C26.446 28.4957 26.4167 28.4957 26.3865 28.4957C26.3571 28.4227 26.3278 28.3497 26.2975 28.2745C26.2682 28.2745 26.2389 28.2745 26.2086 28.2745C26.194 28.2161 26.1793 28.1577 26.1642 28.0975C26.1348 28.0975 26.1055 28.0975 26.0753 28.0975C25.9985 28.0038 25.9985 28.0038 25.9141 27.8818C25.886 27.8418 25.858 27.8018 25.829 27.7605C25.7641 27.6551 25.7641 27.6551 25.7641 27.5666C25.7201 27.552 25.6761 27.5374 25.6307 27.5224C25.5496 27.4356 25.5496 27.4356 25.4668 27.3288C25.4391 27.2938 25.4114 27.2588 25.3829 27.2227C25.3195 27.1242 25.3195 27.1242 25.3195 26.9915C25.2755 26.9769 25.2315 26.9623 25.1862 26.9472C25.14 26.8745 25.0957 26.8007 25.0528 26.726C25.0317 26.705 25.0106 26.684 24.9889 26.6624C24.9195 26.5933 24.9195 26.5933 24.8278 26.455C24.7554 26.3256 24.7554 26.3256 24.6527 26.2836C24.6381 26.2398 24.6234 26.196 24.6083 26.1509C24.5716 26.1153 24.5349 26.0797 24.4971 26.043C24.3931 25.9369 24.3575 25.8955 24.3416 25.7527C24.3122 25.7527 24.2829 25.7527 24.2526 25.7527C24.2481 25.7244 24.2435 25.6961 24.2388 25.667C24.2236 25.6218 24.2236 25.6218 24.2082 25.5757C24.1642 25.5611 24.1202 25.5465 24.0748 25.5315C24.0164 25.4692 24.0164 25.4692 23.9576 25.3894C23.9358 25.3601 23.9139 25.3307 23.8914 25.3005C23.8685 25.2691 23.8456 25.2376 23.822 25.2052C23.7984 25.1734 23.7748 25.1415 23.7505 25.1088C23.6428 24.9632 23.5363 24.8168 23.4304 24.67C23.3836 24.605 23.3836 24.605 23.3358 24.5388C23.295 24.4814 23.295 24.4814 23.2535 24.4228C23.1919 24.3321 23.1919 24.3321 23.0968 24.2927C23.0968 24.2489 23.0968 24.2051 23.0968 24.16C23.0528 24.1454 23.0088 24.1308 22.9635 24.1157C22.7856 23.8781 22.7856 23.8781 22.7856 23.7618C22.7416 23.7472 22.6976 23.7326 22.6523 23.7176C22.5833 23.6348 22.5833 23.6348 22.505 23.5212C22.3334 23.2794 22.1543 23.0443 21.9716 22.8106C21.9444 22.7757 21.9173 22.7408 21.8893 22.7048C21.8634 22.6717 21.8376 22.6387 21.8109 22.6046C21.7878 22.575 21.7647 22.5455 21.7409 22.515C21.6763 22.4332 21.6763 22.4332 21.5991 22.3659C21.5409 22.3018 21.5409 22.3018 21.5409 22.1691C21.5116 22.1691 21.4822 22.1691 21.452 22.1691C21.3947 22.1045 21.3947 22.1045 21.3353 22.0198C21.3155 21.9921 21.2957 21.9644 21.2752 21.9358C21.2297 21.8594 21.2297 21.8594 21.2297 21.7709C21.2004 21.7709 21.1711 21.7709 21.1408 21.7709C21.1262 21.7125 21.1115 21.6541 21.0964 21.594C21.067 21.594 21.0377 21.594 21.0075 21.594C20.9005 21.4805 20.8099 21.353 20.7157 21.229C20.6889 21.1946 20.6622 21.1602 20.6346 21.1248C20.609 21.0914 20.5835 21.058 20.5572 21.0237C20.5338 20.9931 20.5104 20.9625 20.4862 20.931C20.4296 20.8418 20.4296 20.8418 20.4077 20.7448C20.4002 20.7184 20.3928 20.692 20.3851 20.6649C20.3411 20.6503 20.2971 20.6357 20.2517 20.6206C20.1706 20.5272 20.0954 20.4344 20.0211 20.3358C20.0005 20.3093 19.9799 20.2829 19.9587 20.2556C19.8072 20.0572 19.8072 20.0572 19.8072 19.957C19.7779 19.957 19.7485 19.957 19.7183 19.957C19.7036 19.8986 19.6889 19.8402 19.6738 19.78C19.6445 19.78 19.6152 19.78 19.5849 19.78C19.4884 19.649 19.4144 19.5364 19.3627 19.3819C19.3333 19.3819 19.304 19.3819 19.2737 19.3819C19.202 19.2985 19.1361 19.2156 19.0709 19.1275C19.0526 19.1036 19.0343 19.0798 19.0154 19.0552C18.9203 18.9282 18.8667 18.8261 18.8292 18.674C18.7632 18.6521 18.7632 18.6521 18.6958 18.6298C18.6147 18.5363 18.5395 18.4435 18.4652 18.345C18.4446 18.3185 18.424 18.292 18.4028 18.2647C18.2513 18.0664 18.2513 18.0664 18.2513 17.9661C18.222 17.9661 18.1926 17.9661 18.1624 17.9661C18.1477 17.9223 18.133 17.8785 18.1179 17.8334C18.0568 17.7652 18.0568 17.7652 17.9846 17.7007C17.8824 17.6068 17.8524 17.5717 17.8067 17.4352C17.7728 17.4015 17.7389 17.3677 17.7039 17.3329C17.4067 17.0371 17.4067 17.0371 17.4067 16.8601C17.348 16.8455 17.2893 16.8309 17.2288 16.8158C17.2287 16.8422 17.2285 16.8685 17.2283 16.8957C17.2237 17.5379 17.2188 18.18 17.2138 18.8222C17.2113 19.1328 17.2089 19.4433 17.2067 19.7539C17.2046 20.0537 17.2023 20.3534 17.1998 20.6532C17.1989 20.7675 17.1981 20.8818 17.1973 20.9961C17.1962 21.1563 17.1949 21.3166 17.1935 21.4768C17.1933 21.5239 17.193 21.571 17.1927 21.6196C17.1903 21.8656 17.1763 22.1027 17.1399 22.3461C17.1106 22.3461 17.0813 22.3461 17.051 22.3461C17.0217 22.4337 16.9923 22.5213 16.9621 22.6115C16.9328 22.6115 16.9034 22.6115 16.8732 22.6115C16.8585 22.6553 16.8439 22.6991 16.8287 22.7442C16.5507 22.9252 16.3366 22.971 16.0029 22.9713C15.92 22.9714 15.92 22.9714 15.8355 22.9715C15.7782 22.9713 15.7209 22.9712 15.6618 22.971C15.5748 22.9712 15.5748 22.9712 15.4861 22.9715C15.4311 22.9714 15.3761 22.9714 15.3194 22.9713C15.2689 22.9713 15.2184 22.9712 15.1664 22.9712C15.0506 22.9655 15.0506 22.9655 15.0061 22.9212C15.0017 22.8072 15.0001 22.6943 15.0005 22.5803C15.0004 22.5441 15.0003 22.508 15.0003 22.4708C15.0001 22.3487 15.0002 22.2267 15.0004 22.1046C15.0003 22.0175 15.0002 21.9304 15.0001 21.8433C14.9999 21.606 15 21.3687 15.0001 21.1314C15.0003 20.8837 15.0002 20.636 15.0001 20.3882C15 19.9721 15.0001 19.556 15.0003 19.1399C15.0006 18.658 15.0005 18.1762 15.0002 17.6944C15 17.2815 15 16.8686 15.0001 16.4557C15.0002 16.2088 15.0002 15.9618 15.0001 15.7149C14.9999 15.4827 15 15.2506 15.0003 15.0185C15.0003 14.9331 15.0003 14.8476 15.0002 14.7622C15.0001 14.646 15.0002 14.5299 15.0005 14.4138C15.0004 14.3795 15.0003 14.3453 15.0002 14.3099C15.0012 14.047 15.0056 14.0234 15.2677 14.0215Z" fill="white"/>
</svg>
